<svg width="90" height="87" viewBox="0 0 90 87" fill="none" xmlns="http://www.w3.org/2000/svg">
<g clip-path="url(#clip0_1614_11144)">
<path d="M2.63672 68.4098V78.5195H87.3626V68.4098H44.9997H2.63672ZM44.9997 7.75098H2.63672V17.8608H87.3626V7.75098H44.9997Z" fill="#DFE7F4"/>
<path d="M45 7.75098H87.363V17.8608H45V7.75098ZM45 68.4098H87.363V78.5195H45V68.4098Z" fill="#C7CFE1"/>
<path d="M44.9997 17.8608H5.27344V68.4098H84.7259V17.8608H44.9997Z" fill="#FF641A"/>
<path d="M45 17.8608H84.7262V68.4098H45V17.8608Z" fill="#F03800"/>
<path d="M0 65.8824V81.0471H89.9993V65.8824H44.9996H0ZM14.2382 75.9922H5.2734V70.9373H14.2382V75.9922ZM28.3006 75.9922H19.5116V70.9373H28.3006V75.9922ZM42.3629 75.9922H33.574V70.9373H42.3629V75.9922ZM75.7611 70.9373H84.7259V75.9922H75.7611V70.9373ZM61.6987 70.9373H70.4877V75.9922H61.6987V70.9373ZM47.6363 70.9373H56.4253V75.9922H47.6363V70.9373ZM44.9996 5.22363H0V20.3883H89.9993V5.22363H44.9996ZM14.2382 15.3334H5.2734V10.2785H14.2382V15.3334ZM28.3006 15.3334H19.5116V10.2785H28.3006V15.3334ZM42.3629 15.3334H33.574V10.2785H42.3629V15.3334ZM56.4253 15.3334H47.6363V10.2785H56.4253V15.3334ZM70.4879 15.3334H61.6987V10.2785H70.4879V15.3334ZM84.7259 15.3334H75.7437V10.2785H84.7259V15.3334Z" fill="#404A80"/>
<path d="M56.4257 15.3334H47.6367V10.2785H56.4257V15.3334ZM70.4883 15.3334H61.6991V10.2785H70.4883V15.3334ZM45 5.22363V20.3883H89.9996V5.22363H45ZM84.7263 15.3334H75.7441V10.2785H84.7263V15.3334ZM89.9996 65.8824H45V81.0471H89.9996V65.8824ZM56.4257 75.9922H47.6367V70.9373H56.4257V75.9922ZM70.4881 75.9922H61.6991V70.9373H70.4881V75.9922ZM84.7263 75.9922H75.7615V70.9373H84.7263V75.9922Z" fill="#283366"/>
<path d="M44.9999 33.3583L37.0898 28.3037V57.9665L44.9999 52.912L60.3 43.1351L44.9999 33.3583Z" fill="#F0F7FF"/>
<path d="M45 33.3584V52.9121L60.3001 43.1352L45 33.3584Z" fill="#DFE7F4"/>
</g>
<defs>
<clipPath id="clip0_1614_11144">
<rect width="89.9993" height="86.2702" fill="white"/>
</clipPath>
</defs>
</svg>
