<svg width="90" height="86" viewBox="0 0 90 86" fill="none" xmlns="http://www.w3.org/2000/svg">
<path fill-rule="evenodd" clip-rule="evenodd" d="M33.0625 26.2148H74.28V41.4916C68.4771 44.8199 61.3614 46.7809 53.6713 46.7809C45.9812 46.7809 38.8654 44.8201 33.0625 41.4916V26.2148Z" fill="#5D689E"/>
<path fill-rule="evenodd" clip-rule="evenodd" d="M67.1592 26.2148H74.2804V41.4916C72.0818 42.7527 69.6946 43.8171 67.1592 44.6534V26.2148Z" fill="#495586"/>
<path fill-rule="evenodd" clip-rule="evenodd" d="M21.1228 21.5694L51.9559 13.6748C53.1312 13.374 54.211 13.374 55.3863 13.6748L86.2194 21.5694C86.8379 21.7278 87.2535 22.2453 87.2535 22.857C87.2535 23.4688 86.8379 23.9863 86.2194 24.1447L55.3863 32.0392C54.2112 32.3402 53.1312 32.3402 51.9559 32.0392L21.1228 24.1447C20.5042 23.9863 20.0889 23.4688 20.0889 22.857C20.0889 22.2453 20.5042 21.7276 21.1228 21.5694Z" fill="#004CBD"/>
<path fill-rule="evenodd" clip-rule="evenodd" d="M21.1826 21.5541L51.9558 13.6748C53.131 13.374 54.2109 13.374 55.3861 13.6748L86.1593 21.5541L55.3861 29.4332C54.211 29.7342 53.131 29.7342 51.9558 29.4332L21.1826 21.5541Z" fill="#0062D9"/>
<path fill-rule="evenodd" clip-rule="evenodd" d="M84.677 38.1328H85.2005L87.3941 42.6369C87.8661 43.6059 88.0779 44.5208 88.0779 45.5898V50.8734C88.0779 51.8816 87.2146 52.7065 86.1596 52.7065H83.1945C82.1395 52.7065 81.2764 51.8817 81.2764 50.8734V45.5898C81.2764 44.521 81.4882 43.6059 81.9602 42.6369L84.1537 38.1328H84.677Z" fill="#F2671F"/>
<path fill-rule="evenodd" clip-rule="evenodd" d="M84.0008 52.7064H83.1945C82.1395 52.7064 81.2764 51.8816 81.2764 50.8733V45.5897C81.2764 44.5209 81.4882 43.6058 81.9602 42.6368L83.5977 39.2744L85.2353 42.6368C85.7073 43.6058 85.9191 44.5208 85.9191 45.5897V50.8733C85.9191 51.8815 85.056 52.7064 84.001 52.7064H84.0008Z" fill="#FF8748"/>
<path fill-rule="evenodd" clip-rule="evenodd" d="M84.5531 41.229C86.4944 41.229 88.0777 39.7162 88.0777 37.8611C88.0777 36.0061 86.4944 34.4932 84.5531 34.4932C82.6118 34.4932 81.0283 36.0061 81.0283 37.8611C81.0283 39.7162 82.6118 41.229 84.5531 41.229Z" fill="#F19A00"/>
<path fill-rule="evenodd" clip-rule="evenodd" d="M83.4736 41.068C82.0551 40.6323 81.0283 39.3615 81.0283 37.8612C81.0283 36.3609 82.0549 35.09 83.4736 34.6543C84.8922 35.09 85.9189 36.3609 85.9189 37.8612C85.9189 39.3615 84.8922 40.6323 83.4736 41.068Z" fill="#F9AC00"/>
<path fill-rule="evenodd" clip-rule="evenodd" d="M3.54883 43.3748L31.3284 54.847L55.6156 72.0994C58.5133 73.696 63.3587 70.8586 66.439 65.7605C69.5192 60.6623 69.6681 55.2339 66.7714 53.6358L38.9909 42.1651L14.7048 24.9111L3.54883 43.3748Z" fill="#2A92FA"/>
<path fill-rule="evenodd" clip-rule="evenodd" d="M61.9209 70.8109C63.5548 69.6286 65.1516 67.8925 66.4397 65.7605C69.52 60.6623 69.6688 55.2339 66.7721 53.6358L38.9917 42.1651L14.7056 24.9111L5.29688 40.483L32.4959 51.7156L58.8537 70.4389C59.7386 70.9265 60.791 71.033 61.9209 70.8109Z" fill="#4EB1FC"/>
<path fill-rule="evenodd" clip-rule="evenodd" d="M14.7056 24.9121C17.2051 26.2909 16.7343 31.5418 13.6539 36.64C10.5735 41.7382 6.05016 44.7532 3.55073 43.3744C1.05129 41.9953 1.52204 36.7446 4.60243 31.6465C7.68264 26.5483 12.206 23.5332 14.7056 24.9122V24.9121Z" fill="#2A92FA"/>
<path fill-rule="evenodd" clip-rule="evenodd" d="M3.26044 43.1862C1.09412 41.5673 1.64712 36.537 4.60201 31.6464C7.29621 27.1872 11.0945 24.3218 13.6767 24.5962C15.8432 26.215 15.29 31.2455 12.3352 36.1362C9.64095 40.5954 5.84267 43.4608 3.26044 43.1864V43.1862Z" fill="#F3F3FF"/>
<path fill-rule="evenodd" clip-rule="evenodd" d="M11.8232 26.3249C13.4827 27.2405 12.9404 31.1072 10.6119 34.9612C8.2833 38.8152 5.05015 41.1974 3.39042 40.2816C1.7307 39.366 2.27316 35.4994 4.60173 31.6453C6.93031 27.7913 10.1635 25.4092 11.8232 26.3248V26.3249Z" fill="#2A92FA"/>
<path fill-rule="evenodd" clip-rule="evenodd" d="M12.2155 26.6394C13.3721 27.9314 12.7334 31.4517 10.6126 34.9617C8.564 38.3522 5.81566 40.6031 4.05416 40.4721C2.89752 39.1801 3.53631 35.66 5.65711 32.1498C7.70566 28.7593 10.454 26.5084 12.2155 26.6392V26.6394Z" fill="#4EB1FC"/>
<path fill-rule="evenodd" clip-rule="evenodd" d="M26.7446 50.9951L15.5547 58.3868L20.1955 59.3875L19.9997 63.9296L30.3794 55.5278L26.7446 50.9951Z" fill="#FF3C98"/>
<path fill-rule="evenodd" clip-rule="evenodd" d="M26.7442 50.9951L16.875 57.5145L20.2446 58.2411L20.0693 62.307L29.6176 54.5782L26.7442 50.9951Z" fill="#FD5BA6"/>
<path fill-rule="evenodd" clip-rule="evenodd" d="M31.1946 55.9854L28.752 68.7726L32.774 66.3447L35.9968 69.6887L37.119 56.7345L31.1946 55.9854Z" fill="#FF3C98"/>
<path fill-rule="evenodd" clip-rule="evenodd" d="M31.195 55.9854L29.0654 67.1343L31.8913 65.4284L34.834 68.4817L35.8654 56.5759L31.195 55.9854Z" fill="#FD5BA6"/>
<path fill-rule="evenodd" clip-rule="evenodd" d="M38.6527 37.2342C37.4358 37.767 36.0942 37.5982 35.0631 36.7827C34.1046 36.0243 33.104 35.7198 31.8707 36.0356C30.6369 36.3514 29.9305 37.0931 29.4968 38.2079C29.0306 39.4069 27.9571 40.194 26.6244 40.3141C25.3853 40.4256 24.4526 40.8862 23.814 41.9429C23.1754 42.9997 23.2246 44.0018 23.743 45.0829C24.3005 46.2457 24.1239 47.5277 23.2705 48.513C22.4768 49.4287 22.1581 50.385 22.4886 51.5634C22.819 52.7424 23.5953 53.4173 24.762 53.8319C26.0167 54.2773 26.8404 55.3033 26.9661 56.5766C27.0828 57.7607 27.5648 58.6519 28.6706 59.2621C29.7766 59.8724 30.8254 59.8253 31.9567 59.33C33.1736 58.7972 34.5152 58.966 35.5463 59.7815C36.5048 60.5399 37.5054 60.8444 38.7387 60.5286C39.9725 60.2128 40.6789 59.4711 41.1126 58.3563C41.5788 57.1573 42.6523 56.3702 43.985 56.2501C45.2241 56.1384 46.1568 55.6782 46.7954 54.6213C47.434 53.5645 47.3848 52.5624 46.8665 51.4813C46.3089 50.3185 46.4855 49.0365 47.3389 48.0512C48.1324 47.1354 48.4513 46.1792 48.1208 45.0007C47.7904 43.8218 47.0141 43.1467 45.8474 42.7323C44.5927 42.2869 43.769 41.2609 43.6433 39.9875C43.5266 38.8035 43.0446 37.9123 41.9388 37.3021C40.8328 36.6918 39.784 36.7389 38.6527 37.2342Z" fill="#F9AC00"/>
<path fill-rule="evenodd" clip-rule="evenodd" d="M38.6525 37.2342C37.4356 37.767 36.094 37.5982 35.0629 36.7827C34.1046 36.0243 33.1038 35.7198 31.8706 36.0356C30.6369 36.3514 29.9305 37.0931 29.4968 38.2079C29.0306 39.4069 27.957 40.194 26.6244 40.3141C25.3853 40.4256 24.4526 40.886 23.814 41.9429C23.1754 42.9997 23.2246 44.0018 23.743 45.0829C24.3005 46.2457 24.1239 47.5277 23.2705 48.513C22.4768 49.4287 22.1581 50.385 22.4886 51.5634C22.819 52.7424 23.5953 53.4173 24.762 53.8319C26.0167 54.2773 26.8404 55.3033 26.9661 56.5766C27.0587 57.5152 27.3807 58.2699 28.0612 58.8462C28.9239 59.121 29.7689 59.0103 30.6659 58.6176C31.8827 58.0848 33.2244 58.2536 34.2556 59.0691C34.2998 59.1041 34.3441 59.1382 34.3886 59.1712C34.7996 59.2964 35.1916 59.5006 35.5467 59.7815L35.5602 59.7921C36.1389 59.9755 36.7569 59.9935 37.4481 59.8164C38.6819 59.5006 39.3884 58.7589 39.822 57.6441C40.2882 56.4451 41.3619 55.6579 42.6945 55.5379C43.9335 55.4264 44.8662 54.966 45.5049 53.9091C46.1433 52.8523 46.0942 51.8502 45.5759 50.7691C45.0183 49.6063 45.195 48.3243 46.0484 47.339C46.842 46.4231 47.1607 45.467 46.8302 44.2885C46.645 43.6278 46.3196 43.1252 45.864 42.7382L45.8478 42.7323C45.4157 42.579 45.0348 42.3567 44.7158 42.0793C44.6631 42.0588 44.61 42.039 44.5567 42.0201C43.302 41.5747 42.4782 40.5487 42.3526 39.2754C42.2599 38.3367 41.9379 37.5821 41.2574 37.0056C40.3947 36.7308 39.5497 36.8417 38.6529 37.2342H38.6525Z" fill="#FCDB35"/>
<path fill-rule="evenodd" clip-rule="evenodd" d="M31.1379 53.0686C34.203 54.7595 38.1224 53.7561 39.8921 50.8272C41.6619 47.8983 40.6116 44.1531 37.5465 42.462C34.4814 40.7711 30.562 41.7745 28.7922 44.7034C27.0226 47.6323 28.0728 51.3775 31.1379 53.0686Z" fill="#F9AC00"/>
<path fill-rule="evenodd" clip-rule="evenodd" d="M32.0998 53.5862C35.1649 55.2773 39.0843 54.2737 40.854 51.3448C42.6238 48.4159 41.5735 44.6707 38.5084 42.9796C35.4433 41.2887 31.5239 42.2921 29.7542 45.221C27.9846 48.1499 29.0347 51.8951 32.0998 53.5862Z" fill="#F3F3FF"/>
<path fill-rule="evenodd" clip-rule="evenodd" d="M39.8801 50.8843C39.1685 52.0644 38.0166 52.9093 36.6445 53.2622C35.2639 53.6151 33.8239 53.4339 32.5873 52.7514C31.3507 52.07 30.4696 50.9691 30.097 49.6522C29.7328 48.337 29.9191 46.9619 30.6307 45.7809C31.3507 44.5999 32.4941 43.755 33.8749 43.4021C34.3282 43.2872 34.7951 43.2287 35.2641 43.2281C36.1959 43.2281 37.1022 43.4596 37.9323 43.9129C40.4818 45.3205 41.3542 48.4462 39.8804 50.8841L39.8801 50.8843ZM41.7096 51.8919C43.7594 48.4917 42.5397 44.1299 38.9822 42.1679C37.2627 41.2177 35.2553 40.9636 33.3324 41.4557C31.4097 41.9478 29.8003 43.127 28.8092 44.7734C26.751 48.1728 27.9792 52.5346 31.5366 54.4975C32.6801 55.1304 33.9506 55.454 35.2467 55.454C35.9017 55.4538 36.5539 55.3713 37.1864 55.2088C39.1091 54.7167 40.7101 53.5374 41.7096 51.8919ZM87.009 50.8769C87.009 51.3326 86.6279 51.7033 86.1535 51.7033H83.1803C82.7058 51.7033 82.3248 51.3326 82.3248 50.8769V45.5948C82.3248 44.6778 82.5026 43.8983 82.9092 43.0662L83.3751 42.0973C83.7566 42.1929 84.1495 42.2407 84.544 42.2398C85.0269 42.2398 85.4927 42.1694 85.9246 42.0365L86.4243 43.066C86.8309 43.8981 87.0088 44.6775 87.0088 45.5946V50.8767L87.009 50.8769ZM84.5442 35.5042C85.9079 35.5042 87.009 36.5644 87.009 37.8644C87.009 39.1643 85.9079 40.2245 84.5442 40.2245C83.1805 40.2245 82.0708 39.1666 82.0708 37.8644C82.0708 36.5621 83.1803 35.5042 84.5442 35.5042ZM73.2193 40.9199V28.5184L55.6519 33.0169C54.9742 33.1901 54.3135 33.2776 53.6613 33.2776C53.0092 33.2776 52.3484 33.1901 51.6708 33.0169L34.1118 28.5184V35.1634C34.6455 35.3447 35.1706 35.6369 35.6874 36.0441C36.4158 36.6164 37.3137 36.7312 38.1692 36.3565C39.6938 35.6912 41.083 35.7285 42.4298 36.469C43.7682 37.2096 44.4966 38.3436 44.6575 39.9341C44.7422 40.8277 45.3012 41.5197 46.182 41.8321C47.7491 42.3881 48.7062 43.3554 49.1044 44.7863C49.1552 44.9595 49.1891 45.131 49.223 45.2987L50.0023 45.6232C51.2136 45.7251 52.4418 45.7777 53.6615 45.7777C60.7088 45.7777 67.4596 44.099 73.2195 40.9197L73.2193 40.9199ZM67.7813 58.3638C67.8321 56.5176 67.29 55.1287 66.2821 54.5403L48.9771 47.3951C48.7824 47.854 48.5027 48.304 48.1216 48.7444C47.5202 49.4364 47.4016 50.2993 47.7913 51.1159C48.4858 52.5687 48.4519 53.8993 47.6726 55.1823C46.8934 56.4659 45.7076 57.1628 44.0473 57.3125C43.1071 57.3958 42.3873 57.9267 42.0568 58.7686C41.7942 59.4534 41.4386 60.0166 40.981 60.4619L56.1768 71.2567C58.2858 72.3502 62.5211 70.2224 65.5195 65.2624C66.9172 62.9396 67.7219 60.4903 67.7811 58.3639L67.7813 58.3638ZM36.1701 59.0671C36.9324 59.6717 37.5846 59.832 38.423 59.6183C39.2531 59.4047 39.736 58.9545 40.0833 58.066C40.6931 56.4958 42.0992 55.4629 43.8441 55.3052C44.8352 55.2179 45.4197 54.8883 45.8431 54.1745C46.275 53.4606 46.2835 52.8171 45.877 51.9559C45.1402 50.4303 45.3773 48.7507 46.4954 47.4589C47.1223 46.7289 47.2916 46.1056 47.0715 45.3092C46.8428 44.5112 46.377 44.0522 45.4452 43.7221C43.802 43.1369 42.7177 41.7933 42.5567 40.1235C42.4636 39.1797 42.1162 38.6254 41.3709 38.2142C40.6254 37.8007 39.9479 37.7941 39.0501 38.1892C37.4492 38.8876 35.6958 38.6659 34.3405 37.5976C33.5782 36.9929 32.926 36.8335 32.0958 37.0464C31.2573 37.26 30.7744 37.7102 30.4357 38.5987C29.8173 40.1712 28.4112 41.2024 26.6664 41.3603C25.6754 41.4493 25.0995 41.7772 24.6675 42.4911C24.2354 43.2049 24.2269 43.8476 24.642 44.7096C25.3704 46.2344 25.1417 47.9139 24.0237 49.2058C23.3885 49.9366 23.2275 50.5598 23.4477 51.3563C23.668 52.1535 24.1422 52.614 25.074 52.9434C26.7172 53.5278 27.793 54.8714 27.9625 56.5411C28.0556 57.485 28.3945 58.0393 29.1399 58.4513C29.8938 58.864 30.5628 58.8705 31.4691 58.4763C32.0789 58.2076 32.7228 58.0749 33.3495 58.0749C34.3574 58.0749 35.34 58.4108 36.1701 59.0672V59.0671ZM35.1706 67.2896L33.5782 65.6377C33.2308 65.2807 32.6634 65.2103 32.2399 65.4702L30.2494 66.673L31.3928 60.6359C31.7184 60.5534 32.0358 60.444 32.3415 60.3088C33.1971 59.9341 34.1034 60.0482 34.8234 60.6213C35.0945 60.8324 35.3835 61.0216 35.6874 61.187L35.1706 67.2896ZM21.1691 61.6775L21.2622 59.4314C21.2791 58.9465 20.9404 58.5151 20.4406 58.4091L18.1451 57.917L23.422 54.4214C23.7015 54.5759 24.0065 54.7152 24.3368 54.8326C25.2177 55.145 25.7684 55.837 25.8615 56.7304C25.8955 57.0817 25.9547 57.4095 26.0479 57.7171L21.1691 61.6775ZM9.73431 34.4853C8.67558 36.2384 7.3966 37.714 6.14292 38.6407C5.06714 39.4315 4.26242 39.6119 3.94917 39.4372C3.63576 39.264 3.39863 38.5129 3.57652 37.2284C3.78833 35.7229 4.49128 33.931 5.55019 32.1771C7.67626 28.6498 10.0479 27.1622 11.039 27.1622C11.1492 27.1622 11.2508 27.1832 11.3271 27.2254C12.0386 27.6171 12.1147 30.535 9.73466 34.4857L9.73431 34.4853ZM13.3088 25.5877C13.1054 25.5877 12.8938 25.6144 12.6651 25.6629C14.8675 27.267 13.8256 31.7439 11.5556 35.493C10.3613 37.4686 8.89583 39.153 7.43052 40.2359C6.27845 41.081 5.1858 41.5131 4.22867 41.5131C3.86445 41.5131 3.5171 41.4508 3.19525 41.3245C3.38158 41.8692 3.66107 42.2683 4.04234 42.4909L4.41499 42.6431C6.27001 43.1367 9.93769 40.7556 12.7328 36.1397C14.1473 33.7997 15.0283 31.3692 15.2146 29.2995C15.3502 27.756 15.0791 26.5888 14.4692 26.011L14.1304 25.773C13.9017 25.65 13.6222 25.5877 13.3088 25.5877ZM22.7279 45.5488C23.1174 46.3654 22.9989 47.229 22.3976 47.9212C21.9147 48.4854 21.5844 49.0617 21.3981 49.6581L7.70158 44.0006C8.14501 43.7842 8.57234 43.5388 8.98056 43.2664C11.0135 41.9116 12.9956 39.7391 14.5541 37.1475C16.1211 34.5574 17.1036 31.8314 17.3154 29.4713C17.3578 28.9728 17.3662 28.4984 17.3409 28.0525L29.2502 36.5114C28.9284 36.9007 28.6658 37.3613 28.454 37.8969C28.1321 38.738 27.4037 39.2689 26.4719 39.3531C24.8032 39.5021 23.6173 40.1996 22.8465 41.4826C22.0673 42.7662 22.0249 44.0968 22.7279 45.5489V45.5488ZM21.1355 22.8617C21.1355 22.7055 21.2286 22.5881 21.3897 22.5476L52.2217 14.6528C52.7214 14.5249 53.1873 14.4618 53.6617 14.4618C54.1361 14.4618 54.6019 14.5249 55.1017 14.6528L85.9337 22.5476C86.0947 22.5881 86.1879 22.7055 86.1879 22.8617C86.1879 23.0179 86.0947 23.1352 85.9337 23.1757L84.4515 23.5553L54.7376 20.9887C54.1532 20.9385 53.645 21.3482 53.5942 21.9026C53.5434 22.4571 53.9668 22.9459 54.5513 22.9961L78.5393 25.069L55.1019 31.0705C54.1108 31.3255 53.2215 31.3255 52.222 31.0705L21.39 23.1757C21.229 23.1352 21.1358 23.0178 21.1358 22.8617H21.1355ZM87.7462 40.9904C88.1815 40.5832 88.5272 40.0968 88.7628 39.56C88.9985 39.0231 89.1193 38.4467 89.1184 37.8645C89.1184 35.799 87.6191 34.0652 85.5946 33.608V25.349L86.4841 25.1224C87.5683 24.8441 88.2968 23.935 88.2968 22.8619C88.2968 21.7887 87.5683 20.878 86.4841 20.6012L55.6521 12.7063C54.2968 12.3583 53.0262 12.3583 51.671 12.7063L20.8388 20.601C19.7545 20.8778 19.0261 21.7867 19.0261 22.8617C19.0261 23.9367 19.7545 24.8439 20.8388 25.1222L32.0026 27.9794V35.0057C31.8502 35.0307 31.6977 35.0616 31.5452 35.0996C31.3674 35.1449 31.1895 35.2007 31.0285 35.2632L15.8243 24.4611C15.6385 24.3033 15.4371 24.1631 15.2229 24.0427C13.6389 23.1694 11.5215 23.5183 9.25988 25.027C7.22697 26.3827 5.24503 28.5559 3.67794 31.1459C2.11085 33.7375 1.13685 36.4637 0.925034 38.8221C0.687905 41.4495 1.43322 43.3774 3.00874 44.2507C3.22654 44.3695 3.45641 44.4669 3.69482 44.5413L21.4064 51.855V51.8785C21.525 52.2848 21.6859 52.6515 21.8892 52.9841L14.9691 57.5693C14.7996 57.6798 14.6681 57.8357 14.5912 58.0175C14.5144 58.1993 14.4955 58.3987 14.537 58.5907C14.5743 58.7825 14.6696 58.9596 14.8112 59.1001C14.9527 59.2407 15.1342 59.3385 15.3333 59.3815L19.1196 60.1916L18.9672 63.8938C18.9583 64.0896 19.0097 64.2835 19.1151 64.4516C19.2205 64.6196 19.3753 64.7544 19.5601 64.8391C19.7041 64.908 19.8649 64.9411 20.0175 64.9411C20.2686 64.9412 20.5117 64.8563 20.7036 64.7016L27.124 59.4924C27.3951 59.7579 27.7169 59.9934 28.0896 60.1965C28.4707 60.4078 28.8519 60.5591 29.2501 60.6547L27.7424 68.5746C27.6745 68.968 27.844 69.3677 28.1913 69.5911C28.5385 69.8145 28.9961 69.8194 29.3519 69.6058L32.6214 67.6227L35.2556 70.3455C35.3538 70.4473 35.473 70.5287 35.6056 70.5844C35.7383 70.6401 35.8815 70.6689 36.0264 70.6692C36.1451 70.6692 36.2551 70.6505 36.3736 70.6141C36.7718 70.4829 37.0428 70.1414 37.0767 69.7415L37.7628 61.7245C38.1525 61.7245 38.5589 61.6711 38.9655 61.5651C38.9739 61.5634 38.9824 61.5602 38.991 61.5585L54.9744 72.9134C55.0084 72.9369 55.0423 72.9587 55.076 72.9774C55.7876 73.3683 56.5837 73.5545 57.4224 73.5545C60.6666 73.5545 64.6222 70.7703 67.3412 66.2701C68.9167 63.6615 69.823 60.8715 69.8907 58.4174C69.967 55.7399 69.0436 53.7342 67.2904 52.7687C67.2555 52.7478 67.2186 52.7299 67.1803 52.7153L55.1949 47.7683C62.276 47.5328 69.0353 45.6752 74.8122 42.3616C74.9696 42.2727 75.1 42.1461 75.1907 41.9944C75.2813 41.8427 75.329 41.671 75.329 41.4963V27.9796L83.486 25.8882V33.608C81.4699 34.0654 79.9623 35.799 79.9623 37.8645C79.9623 39.1701 80.5636 40.3421 81.5207 41.145L80.9957 42.2166C80.462 43.3118 80.2164 44.3849 80.2164 45.595V50.8771C80.2164 52.4449 81.5462 53.7196 83.181 53.7196H86.1542C87.7889 53.7196 89.1189 52.4449 89.1189 50.8771V45.595C89.1189 44.3849 88.8733 43.3118 88.3396 42.2166L87.7467 40.9904H87.7462Z" fill="#021047"/>
</svg>
