<svg width="90" height="86" viewBox="0 0 90 86" fill="none" xmlns="http://www.w3.org/2000/svg">
<path fill-rule="evenodd" clip-rule="evenodd" d="M39.9963 29.0769H55.9419L60.0984 38.0473L64.2503 29.0769H69.5687C70.9732 29.0769 72.1255 27.9247 72.1255 26.5201V8.81756C72.1255 7.41301 70.9732 6.26074 69.5687 6.26074H39.9963C38.5868 6.26074 37.4395 7.41301 37.4395 8.81756V26.5201C37.4395 27.9247 38.5868 29.0769 39.9963 29.0769Z" fill="#CD212D"/>
<path fill-rule="evenodd" clip-rule="evenodd" d="M45.0334 29.0769H60.979L62.6169 32.6051L64.25 29.0769H69.5684C70.973 29.0769 72.1252 27.9247 72.1252 26.5201V8.81756C72.1252 7.41301 70.973 6.26074 69.5684 6.26074H45.0334C43.6288 6.26074 42.4766 7.41301 42.4766 8.81756V26.5201C42.4766 27.9247 43.6288 29.0769 45.0334 29.0769Z" fill="#EE2B39"/>
<path fill-rule="evenodd" clip-rule="evenodd" d="M50.0093 24.4873H34.0588L29.9069 33.4624L25.7504 24.4873H20.4367C19.0273 24.4873 17.8799 23.3397 17.8799 21.9305V4.2326C17.8799 2.82318 19.0273 1.67578 20.4367 1.67578H50.0093C51.4138 1.67578 52.5661 2.82334 52.5661 4.2326V21.9305C52.5661 23.3397 51.4138 24.4873 50.0093 24.4873Z" fill="#00ADE6"/>
<path fill-rule="evenodd" clip-rule="evenodd" d="M50.009 24.4873H34.0585L32.4254 28.0202L30.7875 24.4873H25.4738C24.0693 24.4873 22.917 23.3397 22.917 21.9305V4.2326C22.917 2.82318 24.0693 1.67578 25.4738 1.67578H50.0088C51.4134 1.67578 52.5657 2.82334 52.5657 4.2326V21.9305C52.5657 23.3397 51.4134 24.4873 50.0088 24.4873H50.009Z" fill="#11BEF7"/>
<path fill-rule="evenodd" clip-rule="evenodd" d="M25.8172 10.9697C26.9837 10.9697 27.9312 11.9125 27.9312 13.0791C27.9312 14.2456 26.9837 15.1931 25.8172 15.1931C24.6506 15.1931 23.7031 14.2456 23.7031 13.0791C23.7031 11.9125 24.6506 10.9697 25.8172 10.9697ZM44.6245 10.9697C45.791 10.9697 46.7385 11.9125 46.7385 13.0791C46.7385 14.2456 45.791 15.1931 44.6245 15.1931C43.4579 15.1931 42.5153 14.2456 42.5153 13.0791C42.5153 11.9125 43.4581 10.9697 44.6245 10.9697ZM35.2209 10.9697C36.3875 10.9697 37.335 11.9125 37.335 13.0791C37.335 14.2456 36.3875 15.1931 35.2209 15.1931C34.0544 15.1931 33.1117 14.2456 33.1117 13.0791C33.1117 11.9125 34.0545 10.9697 35.2209 10.9697Z" fill="#E2E5E7"/>
<path fill-rule="evenodd" clip-rule="evenodd" d="M42.9199 78.5088L43.5246 78.9754L43.5483 78.9611L42.9913 78.5563L42.9199 78.5088Z" fill="white"/>
<path fill-rule="evenodd" clip-rule="evenodd" d="M75.0012 62.4402V44.2233H65.3976L53.4801 42.452C51.6185 42.1712 49.9138 42.614 48.414 43.7567L44.9478 46.4087L32.9111 55.5981L38.3152 61.9116L62.4694 59.9213L67.3545 63.4352C67.6497 63.6512 67.8923 63.9312 68.064 64.2542L69.3971 63.3067C70.2209 62.7163 71.0921 62.4402 72.1016 62.4402H75.0012Z" fill="#E2B698"/>
<path fill-rule="evenodd" clip-rule="evenodd" d="M46.8954 44.918L44.948 46.4082L42.4482 48.3128L46.8954 44.918ZM59.0034 60.2067L62.4696 59.9209L67.3546 63.4348C67.6499 63.6508 67.8925 63.9308 68.0641 64.2539L69.3973 63.3063C69.6084 63.1539 69.8313 63.0186 70.064 62.9017C69.9212 62.5399 69.6736 62.2114 69.307 61.9446L64.4219 58.4307L55.785 51.7696C54.4375 50.7317 52.6282 50.7268 51.276 51.76L49.3239 53.2502L59.0036 60.2065L59.0034 60.2067Z" fill="#D9A989"/>
<path fill-rule="evenodd" clip-rule="evenodd" d="M53.8327 53.2597L62.4697 59.9208L67.3547 63.4347C70.102 65.4154 65.9834 70.7766 63.5504 69.0246C66.5024 71.1529 62.3885 76.5141 59.7461 74.6144L58.4033 73.6479C61.1029 75.5905 57.1558 81.0755 54.4609 79.1329L53.2991 78.2949C55.994 80.2375 52.0469 85.7225 49.352 83.7799L44.467 80.266L20.6127 63.3014C19.789 62.7157 18.9177 62.4395 17.9082 62.4395H14.999V44.2226H24.6026L36.4631 42.461C38.3343 42.1848 40.0531 42.6323 41.5529 43.7893L44.943 46.4081L39.2104 50.7838C36.0489 53.2026 40.9626 59.6351 44.1288 57.2164L47.3666 54.7405L49.3234 53.2501C50.6709 52.2169 52.4849 52.2216 53.8324 53.2597H53.8327Z" fill="#E2B698"/>
<path fill-rule="evenodd" clip-rule="evenodd" d="M53.8326 53.2597L62.4695 59.9208L67.3545 63.4347C70.1018 65.4154 65.9833 70.7766 63.5502 69.0246C66.5023 71.1529 62.3884 76.5141 59.7459 74.6144L58.4032 73.6479C61.1028 75.5905 57.1557 81.0755 54.4608 79.1329L53.2989 78.2949C55.9938 80.2375 52.0467 85.7225 49.3518 83.7799L44.4668 80.266L24.5692 66.1153L25.8548 63.9632L20.6127 60.2302C19.789 59.6445 18.9177 59.3684 17.9082 59.3684H14.999V44.2226H24.6026L36.4631 42.461C38.3342 42.1848 40.0531 42.6323 41.5529 43.7893L44.943 46.4081L39.2104 50.7838C36.0489 53.2026 40.9626 59.6351 44.1288 57.2164L47.3666 54.7405L49.3234 53.2501C50.6709 52.2169 52.4849 52.2216 53.8324 53.2597H53.8326Z" fill="#EFC9AE"/>
<path fill-rule="evenodd" clip-rule="evenodd" d="M24.4692 71.286L27.2783 68.4721C29.6304 66.1247 24.8549 61.3443 22.5028 63.6964L19.6888 66.5055C17.2748 68.9242 22.1218 73.6284 24.4692 71.2859V71.286Z" fill="#E2B698"/>
<path fill-rule="evenodd" clip-rule="evenodd" d="M25.5552 63.4923C24.522 62.9305 23.3554 62.8448 22.5032 63.6971L20.6748 65.5254L19.6892 66.5062C18.8179 67.3823 18.894 68.5584 19.4606 69.5868L25.555 63.4923H25.5552Z" fill="#D9A989"/>
<path fill-rule="evenodd" clip-rule="evenodd" d="M28.9926 76.314L34.9917 70.3195C37.3438 67.9674 32.5634 63.187 30.2113 65.5391L24.2169 71.5384C21.8648 73.8858 26.6452 78.6662 28.9926 76.314Z" fill="#E2B698"/>
<path fill-rule="evenodd" clip-rule="evenodd" d="M33.268 65.3394C32.2348 64.7729 31.0682 64.6919 30.216 65.5395L28.3399 67.4153L24.2166 71.5386C23.3644 72.3862 23.45 73.5575 24.0119 74.5906L33.2678 65.3394H33.268Z" fill="#D9A989"/>
<path fill-rule="evenodd" clip-rule="evenodd" d="M34.9445 79.923L39.7677 75.0951C42.1198 72.7477 37.3443 67.9673 34.992 70.3194L30.1641 75.1426C27.812 77.4947 32.5924 82.2704 34.9445 79.923Z" fill="#E2B698"/>
<path fill-rule="evenodd" clip-rule="evenodd" d="M38.0438 70.1154C37.0106 69.5535 35.8441 69.4679 34.9918 70.3201L30.1639 75.1434C29.3116 75.9956 29.3973 77.1669 29.9591 78.2001L38.0438 70.1154Z" fill="#D9A989"/>
<path fill-rule="evenodd" clip-rule="evenodd" d="M40.7345 83.6894L43.5436 80.8754C45.8957 78.528 41.1153 73.7476 38.7633 76.0997L35.9541 78.9088C33.6021 81.2609 38.3825 86.0413 40.7345 83.6892V83.6894Z" fill="#E2B698"/>
<path fill-rule="evenodd" clip-rule="evenodd" d="M41.8199 75.8952C40.7867 75.3334 39.6202 75.2477 38.7679 76.0951L36.5682 78.2948L35.9539 78.9089C35.1017 79.7612 35.1873 80.9324 35.7492 81.9656L41.8199 75.8949V75.8952Z" fill="#D9A989"/>
<path fill-rule="evenodd" clip-rule="evenodd" d="M75.001 62.4356V44.233C75.001 43.1712 75.8675 42.3047 76.9293 42.3047H80.2241C81.2859 42.3047 82.1524 43.1712 82.1524 44.233V62.4356C82.1524 63.4926 81.2859 64.3639 80.2241 64.3639H76.9293C75.8675 64.3639 75.001 63.4926 75.001 62.4356Z" fill="#CD212D"/>
<path fill-rule="evenodd" clip-rule="evenodd" d="M75.001 59.3541V44.232C75.001 43.1703 75.8675 42.3037 76.9293 42.3037H80.2241C81.2859 42.3037 82.1524 43.1703 82.1524 44.232V59.3541C82.1524 60.4158 81.2859 61.2823 80.2241 61.2823H76.9293C75.8675 61.2823 75.001 60.4158 75.001 59.3541Z" fill="#EE2B39"/>
<path fill-rule="evenodd" clip-rule="evenodd" d="M7.84766 62.4356V44.233C7.84766 43.1712 8.71421 42.3047 9.77594 42.3047H13.0708C14.1325 42.3047 14.9991 43.1712 14.9991 44.233V62.4356C14.9991 63.4926 14.1325 64.3639 13.0708 64.3639H9.77594C8.71891 64.3639 7.84766 63.4926 7.84766 62.4356Z" fill="#00ADE6"/>
<path fill-rule="evenodd" clip-rule="evenodd" d="M7.84766 59.3541V44.232C7.84766 43.1703 8.71421 42.3037 9.77594 42.3037H13.0708C14.1325 42.3037 14.9991 43.1703 14.9991 44.232V59.3541C14.9991 60.4158 14.1325 61.2823 13.0708 61.2823H9.77594C8.71891 61.2823 7.84766 60.4158 7.84766 59.3541Z" fill="#11BEF7"/>
<path d="M80.2073 41.3125H76.9173C75.656 41.3125 74.5812 42.113 74.1654 43.2314H65.4647L53.6279 41.4714C51.4898 41.1491 49.5291 41.6535 47.7986 42.9719L44.9456 45.1509L42.1667 43.0081C40.4402 41.6763 38.4723 41.1627 36.3167 41.4806L24.5349 43.2314H15.8341C15.4185 42.113 14.3435 41.3125 13.0823 41.3125H9.78739C8.17019 41.3125 6.85449 42.6305 6.85449 44.2503V62.4433C6.85449 64.0632 8.17019 65.3811 9.78739 65.3811H13.0823C14.3435 65.3811 15.4184 64.5805 15.8341 63.4622H17.9198C18.9474 63.4622 19.5996 63.8191 20.4015 64.3859L18.9869 65.8005C18.1264 66.6608 17.8348 67.8153 18.1658 69.0512C18.6241 70.7613 20.2122 72.3388 21.9421 72.8023C22.1553 72.8593 22.3729 72.8986 22.5927 72.9197C22.5401 74.0731 23.0678 75.3404 24.1417 76.4121C25.1621 77.4303 26.3584 77.9544 27.4643 77.9544C27.8885 77.9544 28.2994 77.8768 28.6819 77.7209C28.9026 78.509 29.3699 79.3013 30.0762 80.009C31.0993 81.0342 32.3002 81.5618 33.4107 81.5618C33.7678 81.5618 34.1143 81.5037 34.4439 81.3934C34.6547 82.2152 35.1347 83.0455 35.8736 83.7829C36.8942 84.8011 38.0906 85.3252 39.1964 85.325C40.0376 85.325 40.8265 85.0217 41.4448 84.402L44.2532 81.5938C44.2981 81.5489 44.3406 81.5029 44.3822 81.4565L48.7598 84.6031C49.3151 85.0023 49.9415 85.1945 50.585 85.1945C51.8493 85.1945 53.1793 84.4529 54.1631 83.0853C54.7699 82.2418 55.1087 81.3488 55.1846 80.5068C56.5899 80.7339 58.151 79.9891 59.2671 78.439C59.851 77.628 60.1874 76.7714 60.2805 75.9582C61.8654 76.3293 63.5355 75.3448 64.563 73.9189C65.4422 72.6988 65.748 71.3918 65.5004 70.2626C65.6847 70.2098 65.8647 70.1436 66.0393 70.0645C67.6874 69.322 69.0646 67.4254 69.2426 65.6527C69.2767 65.3252 69.2668 64.9946 69.2132 64.6697C70.2121 63.9404 70.8988 63.4619 72.0892 63.4619H74.1654C74.581 64.5802 75.656 65.3807 76.9173 65.3807H80.2073C81.8272 65.3807 83.1449 64.0627 83.1449 62.443V44.2499C83.1449 42.63 81.827 41.3122 80.2073 41.3122V41.3125ZM14.0012 62.4433C14.001 62.6869 13.9041 62.9205 13.7318 63.0928C13.5595 63.2651 13.3259 63.362 13.0823 63.3623H9.78739C9.28332 63.3623 8.87314 62.9501 8.87314 62.4433V44.2503C8.87314 43.7435 9.28332 43.3313 9.78739 43.3313H13.0823C13.3259 43.3316 13.5595 43.4285 13.7318 43.6008C13.9041 43.773 14.001 44.0066 14.0012 44.2503V62.4433ZM20.1158 68.5286C19.904 67.738 20.288 67.3542 20.4141 67.2279L23.2241 64.4179C23.343 64.2985 23.7056 63.9352 24.485 64.144C25.5121 64.4189 26.5712 65.478 26.846 66.5051C27.0546 67.2847 26.6914 67.647 26.5722 67.7661L23.7537 70.5846C23.6243 70.7136 23.2533 71.0633 22.4645 70.8523C21.4391 70.5774 20.3856 69.5351 20.1158 68.5286ZM28.2848 75.6047C27.4582 76.4332 26.146 75.5603 25.5676 74.9832C24.9867 74.4035 24.1076 73.0873 24.9373 72.2559L25.1888 72.0044L25.1896 72.0036L27.9981 69.1951C27.9989 69.1943 27.9998 69.1934 28.0006 69.1924L30.9318 66.2612C31.0252 66.1678 31.2679 65.9251 31.7441 65.9251C31.8755 65.9251 32.0244 65.9434 32.1931 65.9888C33.2199 66.2639 34.2789 67.3228 34.5541 68.3494C34.7633 69.1305 34.3994 69.4945 34.2799 69.6139L28.2855 75.6036L28.2844 75.6047H28.2848ZM31.5051 78.5827C30.9279 78.0044 30.0552 76.6923 30.8836 75.8655L30.8818 75.8637L35.7075 71.0416C36.5383 70.2113 37.8528 71.0863 38.4319 71.6655C39.0109 72.2444 39.8866 73.559 39.0556 74.3899L38.1259 75.3196C38.1012 75.3428 38.0759 75.365 38.0517 75.3891L38.054 75.3915L35.2434 78.2021L35.241 78.1998C35.2135 78.2275 35.1876 78.256 35.1613 78.2844L34.2331 79.2126C33.4009 80.0429 32.0847 79.1639 31.5051 78.5832V78.5827ZM42.8265 80.1653L40.0166 82.9751C39.1903 83.8037 37.878 82.9309 37.2995 82.3538C36.7319 81.7874 35.8805 80.5181 36.6165 79.6838L39.5557 76.7445C39.7258 76.596 40.0871 76.3684 40.7445 76.5451C41.7708 76.8213 42.8284 77.8795 43.102 78.9044C43.3098 79.6829 42.9466 80.0454 42.8265 80.1653ZM67.2339 65.4511C67.1277 66.5078 66.2009 67.7776 65.21 68.2241C64.5563 68.5186 64.2373 68.2893 64.1325 68.2137L64.1315 68.213L54.0917 60.8807C53.6413 60.5516 53.0099 60.6504 52.6812 61.1006C52.3525 61.5507 52.4508 62.1821 52.9011 62.5108L62.9475 69.848L62.9487 69.8489L62.9524 69.8519C62.9529 69.8519 62.9534 69.8527 62.954 69.8531C64.0183 70.6224 63.4369 72.0289 62.9251 72.7391C62.3883 73.484 61.2105 74.4304 60.3329 73.799L58.997 72.8374L58.9957 72.8362L49.2493 65.7227C49.033 65.5666 48.7636 65.5025 48.5001 65.5444C48.2367 65.5863 48.0005 65.7308 47.8432 65.9463C47.686 66.1617 47.6204 66.4307 47.6608 66.6944C47.7013 66.9581 47.8444 67.1951 48.0591 67.3535L57.8055 74.467L57.8078 74.4683L57.8103 74.4704C58.7615 75.156 58.1076 76.5947 57.6289 77.2595C57.1502 77.9243 55.9936 79.0015 55.0439 78.3178L53.8886 77.4846L53.8876 77.4837L53.8869 77.4832L45.4688 71.3362C45.2525 71.1816 44.9838 71.1186 44.7212 71.1609C44.4586 71.2032 44.2234 71.3474 44.0665 71.5622C43.9097 71.777 43.8439 72.045 43.8836 72.308C43.9232 72.571 44.0651 72.8077 44.2783 72.9667L52.6964 79.1137L52.6984 79.1149L52.7012 79.1171L52.7021 79.1177C53.655 79.8034 53.0026 81.2417 52.5244 81.9063C52.046 82.5712 50.8902 83.6478 49.9385 82.9639L45.1794 79.543C45.1999 79.1706 45.1589 78.7821 45.0528 78.384C44.5912 76.6545 43 75.0613 41.2693 74.5957C41.2612 74.5935 41.2531 74.592 41.2451 74.59C41.6912 73.2407 41.2066 71.585 39.8597 70.2381C38.8703 69.2486 37.7146 68.7255 36.6359 68.6936C36.6255 68.4005 36.5815 68.1097 36.5047 67.8267C36.0409 66.0956 34.4476 64.5026 32.7161 64.0387C31.4871 63.7094 30.3466 63.9918 29.5046 64.8337L28.6908 65.6475C28.1247 64.0692 26.5991 62.6197 25.0072 62.1937C23.8035 61.8717 22.6861 62.1381 21.8504 62.9401C20.7621 62.1499 19.6839 61.443 17.9201 61.443H16.0204V45.25H24.6098C24.6593 45.25 24.7091 45.2463 24.7581 45.2391L36.6128 43.4776C38.2045 43.2425 39.6581 43.6224 40.9342 44.6067L43.2832 46.4181L38.6001 49.9993C37.5251 50.8202 37.0355 52.0642 37.2214 53.5022C37.4838 55.5309 39.1052 57.6543 40.9933 58.4413C42.3325 58.9996 43.6628 58.8541 44.739 58.0318L49.9334 54.0657C50.9169 53.3149 52.2346 53.3194 53.2137 54.0768L61.8459 60.7332C61.8547 60.7399 61.8634 60.7466 61.8725 60.753L66.7533 64.2673C66.9935 64.4399 67.3048 64.7507 67.2344 65.4511H67.2339ZM68.2414 62.8809C68.1432 62.7908 68.0398 62.7066 67.9318 62.6287L63.0649 59.1246L54.4471 52.4794C52.7355 51.1548 50.4291 51.1472 48.7078 52.4613L43.513 56.4277C43.0131 56.8091 42.4429 56.8585 41.7693 56.5782C40.5366 56.0642 39.3942 54.5682 39.2229 53.2435C39.1295 52.5209 39.3264 51.9847 39.8252 51.6036L45.5532 47.2233L45.5555 47.2213L45.5574 47.2236L49.0227 44.5771C50.3011 43.6029 51.7488 43.229 53.3286 43.468L65.2414 45.2393C65.2905 45.2465 65.3402 45.2502 65.3899 45.2502H73.9793V61.4432H72.089C70.3697 61.4432 69.3019 62.1151 68.2414 62.8809ZM81.1261 62.4431C81.1258 62.6868 81.0289 62.9204 80.8566 63.0926C80.6843 63.2649 80.4508 63.3618 80.2071 63.3621H76.9171C76.6735 63.3618 76.4399 63.2649 76.2676 63.0926C76.0953 62.9204 75.9984 62.6868 75.9982 62.4431V44.2501C75.9984 44.0065 76.0953 43.7729 76.2676 43.6006C76.4399 43.4283 76.6735 43.3314 76.9171 43.3311H80.2071C80.4508 43.3314 80.6843 43.4283 80.8566 43.6006C81.0289 43.7729 81.1258 44.0065 81.1261 44.2501V62.4431ZM20.4338 25.5097H25.1025L28.9881 33.895C29.069 34.0697 29.1983 34.2176 29.3606 34.3213C29.5229 34.425 29.7114 34.4801 29.904 34.4801C30.0966 34.4801 30.2851 34.425 30.4474 34.3213C30.6097 34.2176 30.739 34.0697 30.8199 33.895L34.7056 25.5097H36.4272V26.5286C36.4272 28.495 38.027 30.0947 39.9934 30.0947H55.2942L59.1798 38.4846C59.2607 38.6594 59.39 38.8074 59.5524 38.9111C59.7147 39.0148 59.9034 39.0699 60.096 39.0698C60.2886 39.0698 60.4772 39.0146 60.6396 38.9109C60.8019 38.8071 60.9311 38.6591 61.012 38.4842L64.8929 30.0947H69.5661C71.5325 30.0947 73.1323 28.495 73.1323 26.5286V8.82599C73.1323 6.85958 71.5325 5.25985 69.5661 5.25985H53.5728V4.24112C53.5728 2.27471 51.9731 0.674805 50.0067 0.674805H20.4338C18.4673 0.674805 16.8676 2.27471 16.8676 4.24112V21.9437C16.8676 23.9101 18.4673 25.5097 20.4338 25.5097ZM69.5658 7.27866C70.4191 7.27866 71.1133 7.97271 71.1133 8.82599V26.5287C71.1133 27.382 70.4191 28.076 69.5658 28.076H64.2474C64.0547 28.0761 63.8661 28.1312 63.7038 28.235C63.5415 28.3387 63.4122 28.4867 63.3313 28.6616L60.095 35.6575L56.8548 28.6613C56.7738 28.4865 56.6446 28.3386 56.4823 28.2349C56.32 28.1312 56.1314 28.0761 55.9388 28.076H39.9932C39.1399 28.076 38.4457 27.382 38.4457 26.5287V25.5098H50.0062C51.9726 25.5098 53.5723 23.9101 53.5723 21.9437V7.27866H69.5656H69.5658ZM18.8863 4.24095C18.8863 3.38767 19.5805 2.69345 20.4338 2.69345H50.0063C50.8596 2.69345 51.5538 3.38767 51.5538 4.24095V21.9435C51.5538 22.7968 50.8596 23.4908 50.0063 23.4908H34.0607C33.8682 23.4908 33.6796 23.5459 33.5173 23.6496C33.355 23.7532 33.2258 23.9012 33.1448 24.0759L29.904 31.0698L26.6632 24.0759C26.5822 23.9012 26.453 23.7532 26.2907 23.6496C26.1284 23.5459 25.9399 23.4908 25.7473 23.4908H20.4338C19.5805 23.4908 18.8863 22.7968 18.8863 21.9435V4.24095ZM25.814 16.2109C27.5361 16.2109 28.9373 14.8119 28.9373 13.0922C28.9373 11.3726 27.5361 9.96868 25.814 9.96868C24.0918 9.96868 22.6953 11.3699 22.6953 13.0922C22.6953 14.8146 24.0943 16.2109 25.814 16.2109ZM25.814 11.9875C26.423 11.9875 26.9187 12.483 26.9187 13.0921C26.9187 13.7011 26.4232 14.1919 25.814 14.1919C25.2047 14.1919 24.7141 13.6984 24.7141 13.0921C24.7141 12.4857 25.2076 11.9875 25.814 11.9875ZM35.2175 16.2109C36.9397 16.2109 38.3409 14.8119 38.3409 13.0922C38.3409 11.3726 36.9397 9.96868 35.2175 9.96868C33.4953 9.96868 32.0989 11.3699 32.0989 13.0922C32.0989 14.8146 33.4979 16.2109 35.2175 16.2109ZM35.2175 11.9875C35.8266 11.9875 36.3223 12.483 36.3223 13.0921C36.3223 13.7011 35.8267 14.1919 35.2175 14.1919C34.6083 14.1919 34.1177 13.6984 34.1177 13.0921C34.1177 12.4857 34.6112 11.9875 35.2175 11.9875ZM44.626 16.2109C46.3456 16.2109 47.7445 14.8119 47.7445 13.0922C47.7445 11.3726 46.3455 9.96868 44.626 9.96868C42.9065 9.96868 41.5026 11.3699 41.5026 13.0922C41.5026 14.8146 42.9038 16.2109 44.626 16.2109ZM44.626 11.9875C45.2323 11.9875 45.7258 12.483 45.7258 13.0921C45.7258 13.7011 45.2323 14.1919 44.626 14.1919C44.0196 14.1919 43.5212 13.6984 43.5212 13.0921C43.5212 12.4857 44.0167 11.9875 44.626 11.9875Z" fill="black"/>
</svg>
