<svg width="38" height="37" viewBox="0 0 38 37" fill="none" xmlns="http://www.w3.org/2000/svg">
<path d="M36.565 19.8541L12.0989 33.4112C11.4548 33.7679 10.6962 33.8525 9.99011 33.6462C9.28402 33.4399 8.68823 32.9597 8.33378 32.3111L0.877698 18.6722C0.523522 18.0236 0.439654 17.2601 0.644535 16.5493C0.849416 15.8385 1.32627 15.2388 1.97025 14.8819L26.4357 1.32304C27.0799 0.966258 27.8385 0.881713 28.5446 1.088C29.2507 1.29429 29.8465 1.77452 30.2009 2.42305L37.657 16.0626C38.0112 16.7112 38.095 17.4747 37.8901 18.1855C37.6853 18.8963 37.2084 19.496 36.5644 19.8529L36.565 19.8541Z" fill="#FEBC1F"/>
<path d="M36.0311 18.8767L11.5645 32.4337C10.9203 32.7905 10.1617 32.8751 9.45562 32.6688C8.74953 32.4625 8.15374 31.9823 7.7993 31.3337L0.343213 17.6948C-0.0109626 17.0462 -0.0948304 16.2826 0.11005 15.5719C0.314931 14.8611 0.791787 14.2614 1.43577 13.9045L25.9019 0.345624C26.546 -0.0111589 27.3046 -0.0957043 28.0107 0.110585C28.7168 0.316873 29.3126 0.797101 29.667 1.44564L37.1231 15.0852C37.4773 15.7337 37.5611 16.4973 37.3563 17.2081C37.1514 17.9189 36.6745 18.5186 36.0305 18.8755L36.0311 18.8767Z" fill="#FFD475"/>
<path d="M25.9019 0.346213L1.43583 13.9033C0.791695 14.2601 0.314724 14.86 0.109835 15.5709C-0.0950553 16.2818 -0.0110833 17.0456 0.34328 17.6941L7.79937 31.3343C7.79937 31.3343 0.852149 17.9572 28.3756 0.249364C27.9842 0.0708343 27.5568 -0.0133666 27.1274 0.00344514C26.698 0.0202568 26.2784 0.137618 25.9019 0.346213Z" fill="#FEBC1F"/>
<path d="M2.53489 19.3669L3.47128 21.0797C3.58466 21.2869 3.77512 21.4403 4.00081 21.5063C4.2265 21.5722 4.46895 21.5452 4.67487 21.4312L30.4853 7.12921C30.6911 7.01506 30.8435 6.8233 30.909 6.59607C30.9744 6.36884 30.9476 6.12473 30.8344 5.9174L29.898 4.20461C29.7846 3.99737 29.5942 3.84393 29.3685 3.77802C29.1428 3.7121 28.9004 3.7391 28.6944 3.85308L2.88403 18.1551C2.6782 18.2692 2.5258 18.461 2.46033 18.6882C2.39486 18.9154 2.42168 19.1595 2.53489 19.3669Z" fill="#1D2943"/>
<path d="M2.27541 18.8923L3.2118 20.605C3.32518 20.8123 3.51564 20.9657 3.74133 21.0316C3.96702 21.0976 4.20947 21.0706 4.41539 20.9566L30.2258 6.6546C30.4316 6.54045 30.584 6.34869 30.6495 6.12146C30.715 5.89423 30.6881 5.65012 30.5749 5.44279L29.6385 3.73C29.5252 3.52276 29.3347 3.36932 29.109 3.30341C28.8833 3.23749 28.6409 3.26449 28.435 3.37847L2.62396 17.681C2.41813 17.7952 2.26573 17.987 2.20026 18.2142C2.13479 18.4414 2.16161 18.6855 2.27482 18.8929L2.27541 18.8923Z" fill="#4C5C75"/>
<path d="M32.1413 37H4.21529C3.48012 37 2.77505 36.706 2.25515 36.1827C1.73525 35.6593 1.44309 34.9495 1.44293 34.2093V18.6399C1.44309 17.8997 1.73525 17.1899 2.25515 16.6666C2.77505 16.1432 3.48012 15.8492 4.21529 15.8492H32.1407C32.8759 15.8492 33.581 16.1432 34.1009 16.6666C34.6208 17.1899 34.9129 17.8997 34.9131 18.6399V34.2093C34.9129 34.9495 34.6208 35.6593 34.1009 36.1827C33.581 36.706 32.8765 37 32.1413 37Z" fill="#5094FF"/>
<path d="M4.21469 35.8844H32.1407C32.5049 35.8845 32.8654 35.8123 33.2019 35.6721C33.5383 35.5318 33.844 35.3263 34.1015 35.067C34.359 34.8078 34.5632 34.5001 34.7026 34.1614C34.842 33.8227 34.9137 33.4597 34.9137 33.0931V17.5243C34.9137 16.784 34.6216 16.074 34.1017 15.5506C33.5818 15.0271 32.8766 14.733 32.1413 14.733H4.21529C3.85122 14.733 3.49071 14.8052 3.15435 14.9455C2.818 15.0858 2.51237 15.2914 2.25494 15.5506C1.9975 15.8098 1.79329 16.1175 1.65397 16.4561C1.51464 16.7948 1.44293 17.1578 1.44293 17.5243V33.0931C1.44285 33.4597 1.51451 33.8227 1.65379 34.1615C1.79308 34.5002 1.99728 34.808 2.25473 35.0672C2.51217 35.3265 2.81782 35.5321 3.15422 35.6725C3.49061 35.8128 3.85117 35.885 4.21529 35.885L4.21469 35.8844Z" fill="#57B3FE"/>
<path d="M4.21469 14.7336H32.1407C32.8759 14.7336 33.581 15.0276 34.1009 15.551C34.6208 16.0743 34.9129 16.7841 34.9131 17.5243V33.0931C34.9131 33.0931 34.5942 18.0014 2.00049 15.8492C2.25791 15.5027 2.59201 15.2214 2.97627 15.0277C3.36052 14.8339 3.78435 14.7331 4.2141 14.733L4.21469 14.7336Z" fill="#5094FF"/>
<path d="M32.7417 30.8752V31.308H32.7358C32.747 31.8939 32.2619 32.3859 31.6765 32.3859H28.8637C28.2895 32.3859 27.7931 31.9028 27.805 31.308H27.7991V30.8752H27.8679C28.0342 30.4543 28.4861 30.1661 28.9611 30.1661H31.5797C32.0547 30.1661 32.5066 30.4543 32.6728 30.8752H32.7417Z" fill="#E3E7F0"/>
<path d="M31.6735 31.9561H28.9545C28.4071 31.9561 27.8893 31.5818 27.8121 31.0354C27.7899 30.8822 27.8006 30.726 27.8437 30.5773C27.8867 30.4287 27.9611 30.2911 28.0616 30.1739C28.1622 30.0567 28.2866 29.9627 28.4264 29.8983C28.5662 29.8338 28.7182 29.8004 28.872 29.8003H31.5802C32.1609 29.8003 32.7025 30.2248 32.7375 30.8082C32.7475 30.9551 32.7274 31.1025 32.6785 31.2413C32.6296 31.38 32.5528 31.5072 32.453 31.6148C32.3533 31.7224 32.2326 31.8083 32.0985 31.867C31.9644 31.9257 31.8197 31.956 31.6735 31.9561Z" fill="white"/>
<path d="M24.6799 30.8752V31.308H24.674C24.6859 31.8939 24.2001 32.3859 23.6153 32.3859H20.8025C20.2278 32.3859 19.732 31.9028 19.7432 31.308H19.7373V30.8752H19.8062C19.9724 30.4543 20.4249 30.1661 20.8999 30.1661H23.5179C23.9929 30.1661 24.4454 30.4543 24.6116 30.8752H24.6799Z" fill="#E3E7F0"/>
<path d="M23.6123 31.9561H20.8928C20.3453 31.9561 19.8275 31.5818 19.7509 31.0354C19.7287 30.8822 19.7395 30.7261 19.7825 30.5775C19.8255 30.4288 19.8998 30.2913 20.0003 30.1741C20.1007 30.057 20.2251 29.9629 20.3648 29.8984C20.5046 29.8339 20.6565 29.8005 20.8103 29.8003H23.5185C24.0998 29.8003 24.6407 30.2248 24.6763 30.8082C24.6864 30.9551 24.6663 31.1025 24.6173 31.2413C24.5684 31.38 24.4917 31.5072 24.3919 31.6148C24.2921 31.7224 24.1714 31.8083 24.0373 31.867C23.9032 31.9257 23.7585 31.956 23.6123 31.9561Z" fill="white"/>
<path d="M16.6188 30.8752V31.308H16.6128C16.6241 31.8939 16.139 32.3859 15.5535 32.3859H12.7408C12.166 32.3859 11.6702 31.9028 11.6815 31.308H11.6755V30.8752H11.745C11.9113 30.4543 12.3631 30.1661 12.8382 30.1661H15.4567C15.9317 30.1661 16.3836 30.4543 16.5499 30.8752H16.6188Z" fill="#E3E7F0"/>
<path d="M15.5506 31.9561H12.8317C12.2842 31.9561 11.7664 31.5818 11.6892 31.0354C11.667 30.8822 11.6778 30.726 11.7208 30.5773C11.7639 30.4287 11.8382 30.2911 11.9387 30.1739C12.0393 30.0567 12.1637 29.9627 12.3035 29.8983C12.4434 29.8338 12.5953 29.8004 12.7491 29.8003H15.4568C16.0387 29.8003 16.579 30.2248 16.6146 30.8082C16.6247 30.9551 16.6046 31.1025 16.5556 31.2413C16.5067 31.38 16.43 31.5072 16.3302 31.6148C16.2304 31.7224 16.1097 31.8083 15.9756 31.867C15.8415 31.9257 15.6968 31.956 15.5506 31.9561Z" fill="white"/>
<path d="M8.55706 30.8752V31.308H8.55112C8.563 31.8939 8.07729 32.3859 7.49241 32.3859H4.67968C4.1049 32.3859 3.6091 31.9028 3.62038 31.308H3.61444V30.8752H3.68332C3.84958 30.4543 4.30144 30.1661 4.77706 30.1661H7.39503C7.87006 30.1661 8.32252 30.4543 8.48818 30.8752H8.55706Z" fill="#E3E7F0"/>
<path d="M7.48943 31.9561H4.76992C4.22246 31.9561 3.70468 31.5818 3.62809 31.0354C3.60585 30.8822 3.61661 30.7261 3.65963 30.5775C3.70265 30.4288 3.77692 30.2913 3.8774 30.1741C3.97788 30.057 4.10222 29.9629 4.24198 29.8984C4.38174 29.8339 4.53364 29.8005 4.68739 29.8003H7.39562C7.97693 29.8003 8.51786 30.2248 8.55348 30.8082C8.56349 30.9551 8.54341 31.1025 8.49447 31.2413C8.44554 31.38 8.3688 31.5072 8.26902 31.6148C8.16924 31.7224 8.04855 31.8083 7.91444 31.867C7.78033 31.9257 7.63567 31.956 7.48943 31.9561Z" fill="white"/>
<path d="M3.61676 19.6515V22.2557C3.61676 22.9121 4.14522 23.4442 4.79719 23.4442H9.64125C10.2932 23.4442 10.8217 22.9121 10.8217 22.2557V19.6515C10.8217 18.9951 10.2932 18.4624 9.64125 18.4624H4.79719C4.14522 18.4624 3.61676 18.9945 3.61676 19.6515Z" fill="#FEBC1F"/>
<path d="M3.61676 19.2455V21.8497C3.61676 22.5061 4.14522 23.0387 4.79719 23.0387H9.64125C10.2932 23.0387 10.8217 22.5067 10.8217 21.8497V19.2455C10.8217 18.5891 10.2932 18.0564 9.64125 18.0564H4.79719C4.14522 18.0564 3.61676 18.5885 3.61676 19.2455Z" fill="#FFD475"/>
<path d="M7.09395 20.2666V18.0564H6.53283V20.2666H3.61737V20.8309H5.21226V23.0387H5.77279V20.8309H8.29813V23.0387H8.85866V20.8309H10.8217V20.2666H7.09395Z" fill="#FEBC1F"/>
<path d="M32.2298 22.2161H29.0721C28.809 22.2161 28.5608 22.0368 28.5234 21.7743C28.5127 21.7007 28.5178 21.6257 28.5385 21.5542C28.5591 21.4828 28.5948 21.4167 28.643 21.3604C28.6913 21.304 28.7511 21.2588 28.8182 21.2278C28.8854 21.1968 28.9584 21.1807 29.0323 21.1807H32.1853C32.4638 21.1807 32.7232 21.3845 32.7405 21.6649C32.7453 21.7354 32.7356 21.8062 32.7121 21.8728C32.6887 21.9394 32.6518 22.0004 32.604 22.0521C32.5561 22.1038 32.4982 22.145 32.4338 22.1732C32.3694 22.2014 32.3 22.216 32.2298 22.2161ZM32.2298 20H26.6863C26.4232 20 26.175 19.8206 26.1376 19.5576C26.127 19.484 26.1322 19.409 26.1529 19.3376C26.1735 19.2663 26.2092 19.2002 26.2575 19.144C26.3058 19.0877 26.3655 19.0426 26.4326 19.0116C26.4997 18.9807 26.5727 18.9646 26.6465 18.9645H32.1847C32.4638 18.9645 32.7232 19.1678 32.7405 19.4488C32.7453 19.5193 32.7356 19.59 32.7121 19.6566C32.6887 19.7232 32.6518 19.7843 32.604 19.8359C32.5561 19.8876 32.4982 19.9289 32.4338 19.9571C32.3694 19.9853 32.3 19.9999 32.2298 20ZM31.3866 7.9303C32.7036 9.62805 33.7884 11.496 34.6121 13.4842C33.2952 11.7864 32.21 9.91848 31.3866 7.9303ZM6.79468 13.4824C8.71134 12.0034 10.7956 10.7587 13.0038 9.77462C11.0871 11.2536 9.00284 12.4982 6.79468 13.4824ZM22.6771 34.4831C25.0748 34.1955 27.4979 34.1955 29.8957 34.4831C27.4909 34.7718 25.0819 34.77 22.6771 34.4831Z" fill="white"/>
</svg>
