<svg width="499" height="488" viewBox="0 0 499 488" fill="none" xmlns="http://www.w3.org/2000/svg">
<path d="M481.092 266.939L474.012 261.019C470.522 264.079 449.472 289.869 377.662 337.019C329.662 325.019 297.562 286.439 299.012 241.819C301.905 210.392 301.289 181.155 297.162 154.109C311.592 181.689 336.262 204.009 337.992 205.919C374.312 195.659 418.732 174.479 435.192 141.099C444.062 123.099 444.192 104.889 435.662 91.0986C424.752 73.5586 399.662 64.3886 367.502 78.0986C361.482 67.5886 349.222 52.8286 328.482 52.8286C327.642 52.8286 326.802 52.8286 325.962 52.8986C306.802 54.0086 286.482 73.8286 284.812 104.239C270.545 64.2386 246.792 30.5719 213.552 3.2386C211.014 1.15677 207.835 0.015735 204.552 0.00859806C198.782 0.00859806 208.432 -2.6314 13.1719 84.6086C10.8504 85.6603 8.85284 87.3145 7.38692 89.3994C5.921 91.4842 5.04021 93.9237 4.83607 96.4641C4.63193 99.0046 5.11191 101.553 6.22612 103.846C7.34032 106.138 9.04809 108.09 11.1719 109.499C114.982 178.499 101.002 281.499 103.802 295.169C104.022 297.939 104.412 306.799 106.292 320.399C103.329 317.004 99.6672 314.289 95.5577 312.441C91.4482 310.592 86.9879 309.653 82.4819 309.689C69.6119 309.689 57.2919 317.099 47.6919 330.329C42.4717 327.9 36.7986 326.599 31.0419 326.509C-11.5481 326.509 -21.9581 403.839 75.9919 424.099L81.6619 425.269C96.9919 407.799 111.382 386.199 115.722 363.479C125.352 394.029 140.412 419.419 160.822 439.349C200.042 477.669 252.532 489.869 306.662 487.269H307.092C327.492 483.039 365.412 458.499 382.422 446.269C432.932 409.799 487.932 373.559 497.102 335.799L497.172 335.509L497.222 335.219C498.112 330.289 505.112 287.049 481.092 266.939Z" fill="white"/>
<path d="M16.6619 101.199C81.0919 143.999 114.852 207.639 113.752 294.959C121.652 422.549 196.482 482.529 306.192 477.279C315.762 475.999 414.442 418.999 460.532 340.929C374.662 373.659 286.202 320.239 289.032 241.149C298.262 141.349 271.882 64.0585 207.202 10.9885C206.589 10.4893 205.848 10.1706 205.064 10.0681C204.28 9.96568 203.483 10.0835 202.762 10.4085L17.2419 93.7585C16.5477 94.0733 15.9506 94.5687 15.513 95.1928C15.0754 95.817 14.8133 96.5472 14.7541 97.3072C14.6949 98.0672 14.8406 98.8291 15.1762 99.5136C15.5118 100.198 16.0248 100.78 16.6619 101.199Z" fill="#4C3CE3"/>
<path d="M275.372 219.289L142.482 290.629C141.753 275.549 139.989 260.537 137.202 245.699C126.932 191.429 103.272 148.199 69.6821 113.219L215.982 47.4885C245.402 81.9385 264.802 120.839 272.212 165.099C275.191 182.998 276.25 201.164 275.372 219.289Z" fill="#B6B3FF"/>
<path d="M275.372 219.289L142.482 290.629C141.753 275.549 139.989 260.537 137.202 245.699C159.072 227.019 213.142 184.409 272.202 165.099C275.184 182.998 276.247 201.164 275.372 219.289Z" fill="#776CFF"/>
<path d="M143.912 162.699L166.882 229.839L247.802 184.609L220.942 117.119L143.912 162.699Z" fill="#FF5800"/>
<path d="M152.552 187.969L232.382 145.859L220.942 117.119L143.912 162.699L152.552 187.969Z" fill="#FCC836"/>
<path d="M191.262 160.579C191.262 160.579 182.602 154.929 176.262 160.579C169.922 166.229 171.612 187.439 206.482 191.329C206.482 191.329 219.582 173.479 216.582 159.329C213.582 145.179 198.482 143.619 191.262 160.579Z" fill="white"/>
<path d="M362.802 91.4785C362.802 91.4785 352.652 61.3185 326.482 62.8285C300.312 64.3385 264.102 118.899 340.862 194.659C340.862 194.659 406.522 176.489 426.192 136.599C445.862 96.7085 412.632 64.2985 362.802 91.4785ZM51.032 343.829C51.032 343.829 33.202 329.669 18.102 340.769C3.002 351.869 2.48199 398.689 78.032 414.309C78.032 414.309 110.372 377.859 106.672 346.259C102.972 314.659 70.362 308.109 51.032 343.829Z" fill="#FF3D81"/>
<path d="M143.952 336.619C187.665 315.906 229.306 291.077 268.312 262.469C270.982 260.519 273.942 264.549 271.312 266.469C232.05 295.267 190.134 320.26 146.132 341.109C143.092 342.559 140.992 338.029 143.952 336.619ZM159.832 390.119C207.729 370.607 252.012 343.193 290.832 309.019C291.079 308.801 291.366 308.635 291.677 308.528C291.988 308.422 292.318 308.378 292.646 308.399C292.974 308.42 293.295 308.505 293.59 308.65C293.886 308.795 294.149 308.997 294.367 309.244C294.584 309.491 294.751 309.778 294.857 310.089C294.963 310.4 295.007 310.73 294.986 311.058C294.965 311.386 294.88 311.707 294.735 312.002C294.59 312.298 294.389 312.561 294.142 312.779C254.9 347.333 210.134 375.052 161.712 394.779C158.622 396.009 156.802 391.359 159.832 390.119ZM207.902 439.319C255.556 416.706 298.174 384.739 333.222 345.319C335.412 342.839 339.152 346.169 336.962 348.639C301.464 388.56 258.297 420.932 210.032 443.829C207.052 445.259 204.902 440.739 207.902 439.319ZM281.482 466.169C314.798 436.752 343.964 402.946 368.182 365.679C369.982 362.909 374.182 365.629 372.372 368.409C347.908 406.054 318.446 440.203 284.792 469.919C282.272 472.109 278.962 468.359 281.482 466.169Z" fill="#B6B3FF"/>
<path d="M474.672 274.609C426.482 323.609 306.192 396.279 275.672 403.879C288.25 407.042 299.162 414.853 306.212 425.739C315.152 439.539 324.342 469.929 306.212 477.279C306.212 477.279 331.932 470.339 376.602 438.099C425.202 403.009 479.252 366.999 487.412 333.379C487.392 333.379 494.932 291.569 474.672 274.609Z" fill="#776CFF"/>
</svg>
