<svg width="1440" height="486" viewBox="0 0 1440 486" fill="none" xmlns="http://www.w3.org/2000/svg">
<g clip-path="url(#clip0_827_3585)">
<rect width="1440" height="486" fill="#F8F9FA"/>
<path d="M113 18C113 72.1239 69.1239 116 15 116C-39.1239 116 -83 72.1239 -83 18C-83 -36.1239 -39.1239 -80 15 -80C69.1239 -80 113 -36.1239 113 18ZM-57.2969 18C-57.2969 57.9285 -24.9285 90.2969 15 90.2969C54.9285 90.2969 87.2969 57.9285 87.2969 18C87.2969 -21.9285 54.9285 -54.2969 15 -54.2969C-24.9285 -54.2969 -57.2969 -21.9285 -57.2969 18Z" fill="#F15C54"/>
<path d="M900 -12C900 42.1239 856.124 86 802 86C747.876 86 704 42.1239 704 -12C704 -66.1239 747.876 -110 802 -110C856.124 -110 900 -66.1239 900 -12ZM727.44 -12C727.44 29.1782 760.822 62.5597 802 62.5597C843.178 62.5597 876.56 29.1782 876.56 -12C876.56 -53.1782 843.178 -86.5597 802 -86.5597C760.822 -86.5597 727.44 -53.1782 727.44 -12Z" fill="#536CB3"/>
<path d="M1537.03 103.676C1508.25 173.518 1428.3 206.805 1358.46 178.026C1288.62 149.247 1255.33 69.3 1284.11 -0.541211C1312.89 -70.3825 1392.83 -103.67 1462.68 -74.8913C1532.52 -46.1124 1565.81 33.835 1537.03 103.676ZM1314.91 12.1499C1293.14 64.9813 1318.32 125.457 1371.15 147.227C1423.98 168.997 1484.46 143.816 1506.23 90.9851C1528 38.1538 1502.82 -22.3223 1449.99 -44.0921C1397.15 -65.8618 1336.68 -40.6814 1314.91 12.1499Z" fill="#536CB3"/>
<rect x="886" y="442.799" width="28" height="28" transform="rotate(-45 886 442.799)" fill="#536CB3" fill-opacity="0.4"/>
<rect x="906" y="95.799" width="28" height="28" transform="rotate(-45 906 95.799)" fill="#F15C54" fill-opacity="0.47"/>
<rect x="199" y="102.799" width="28" height="28" transform="rotate(-45 199 102.799)" fill="#D9D9D9"/>
<path d="M1085.77 419.249C1162 405.78 1211.27 323.958 1195.82 236.495C1180.36 149.032 1106.04 89.0483 1029.81 102.517C953.576 115.986 904.307 197.808 919.76 285.271C935.214 372.734 1009.54 432.718 1085.77 419.249Z" fill="#68003C"/>
<path d="M1098.25 412.344C1174.48 398.875 1223.75 317.053 1208.3 229.59C1192.85 142.127 1118.52 82.1431 1042.29 95.6121C966.06 109.081 916.791 190.903 932.244 278.366C947.698 365.829 1022.02 425.813 1098.25 412.344Z" fill="#514BDB"/>
<path d="M1076.68 390.625C1049.45 390.625 1022.31 379.291 1000.2 358.75C977.184 337.309 961.303 307.319 955.472 274.291C942.347 199.797 983.109 130.122 1046.41 118.956C1052.14 117.946 1057.95 117.438 1063.77 117.438C1091.01 117.437 1118.15 128.762 1140.25 149.312C1163.27 170.744 1179.15 200.744 1184.98 233.772C1198.11 308.256 1157.34 377.941 1094.04 389.097C1088.31 390.111 1082.5 390.622 1076.68 390.625Z" fill="white"/>
<path d="M1076.68 363.062C1056.45 363.062 1035.97 354.353 1019.01 338.556C1000.35 321.184 987.441 296.659 982.65 269.491C977.428 239.903 982.2 210.541 996.084 186.812C1009.12 164.547 1028.68 150.1 1051.17 146.134C1055.32 145.388 1059.53 145.008 1063.74 145C1083.97 145 1104.45 153.7 1121.42 169.497C1140.07 186.878 1152.98 211.403 1157.77 238.562C1163 268.15 1158.22 297.512 1144.33 321.25C1131.31 343.516 1111.74 357.962 1089.25 361.928C1085.1 362.661 1080.9 363.031 1076.68 363.034V363.062Z" fill="#514BDB"/>
<path d="M1076.68 326.603C1065.7 326.603 1054.05 321.372 1043.87 311.875C1030.97 299.866 1021.99 282.569 1018.56 263.125C1014.81 242.041 1018.03 221.462 1027.56 205.197C1035.06 192.316 1045.73 184.075 1057.51 182.003C1059.57 181.637 1061.65 181.452 1063.74 181.45C1074.72 181.45 1086.38 186.681 1096.56 196.169C1109.45 208.178 1118.44 225.484 1121.87 244.919C1125.62 266.003 1122.39 286.572 1112.87 302.847C1105.37 315.728 1094.69 323.959 1082.92 326.041C1080.86 326.406 1078.77 326.591 1076.68 326.594V326.603Z" fill="white"/>
<path d="M1079.33 289.483C1091.57 286.872 1098.12 268.897 1093.94 249.336C1089.77 229.775 1076.46 216.034 1064.22 218.646C1051.97 221.257 1045.43 239.232 1049.6 258.793C1053.78 278.354 1067.08 292.095 1079.33 289.483Z" fill="#514BDB"/>
<path d="M1228.22 175.122L1068.17 253.3C1067.57 253.751 1067.12 254.361 1066.86 255.059C1066.59 255.758 1066.54 256.516 1066.69 257.247C1067.23 259.122 1069.78 260.434 1072.31 259.459L1231.96 183.091L1258.57 190.731L1314.94 164.612L1272.4 153.531L1279.46 116.659L1235.4 148.534L1228.22 175.122Z" fill="#68003C"/>
<path d="M1063.52 421.206H969.469V406.056H1063.52V421.206Z" fill="#FDC500"/>
<path d="M1070.2 406.047H975.909V390.897H1070.2V406.047Z" fill="#E87700"/>
<path d="M1061.94 390.888H967.894V375.738H1061.94V390.888Z" fill="#FDC500"/>
<path d="M988.678 421.206H894.628V406.056H988.678V421.206Z" fill="#E87700"/>
<path d="M988.678 406.047H905.916V390.897H988.678V406.047Z" fill="#FDC500"/>
<path d="M987.113 390.888H893.062V375.738H987.113V390.888Z" fill="#E87700"/>
<path d="M988.678 375.747H894.628V360.597H988.678V375.747Z" fill="#FDC500"/>
<path d="M999.966 360.588H905.916V345.438H999.966V360.588Z" fill="#E87700"/>
<path d="M987.113 345.428H893.062V330.278H987.113V345.428Z" fill="#FDC500"/>
<path d="M1020.24 379.103C1042.44 379.103 1060.43 361.109 1060.43 338.912C1060.43 316.716 1042.44 298.722 1020.24 298.722C998.047 298.722 980.053 316.716 980.053 338.912C980.053 361.109 998.047 379.103 1020.24 379.103Z" fill="#E87700"/>
<path d="M1024.91 366.475C1021.8 367.066 1018.59 366.4 1015.97 364.624C1013.35 362.847 1011.54 360.105 1010.93 356.997L1010.16 352.956C1010.01 352.21 1010.17 351.438 1010.6 350.81C1011.03 350.181 1011.68 349.748 1012.43 349.605C1013.18 349.462 1013.95 349.621 1014.58 350.047C1015.2 350.474 1015.64 351.132 1015.78 351.878L1016.56 355.919C1016.95 357.457 1017.91 358.789 1019.25 359.641C1020.59 360.493 1022.2 360.801 1023.76 360.501C1025.32 360.201 1026.7 359.317 1027.63 358.029C1028.56 356.741 1028.96 355.148 1028.75 353.575L1027.81 348.578C1027.5 346.961 1026.55 345.534 1025.19 344.609C1023.83 343.685 1022.15 343.339 1020.53 343.647C1017.42 344.243 1014.2 343.58 1011.58 341.802C1008.96 340.025 1007.15 337.279 1006.56 334.169L1004.9 325.553C1004.3 322.443 1004.97 319.224 1006.74 316.604C1008.52 313.983 1011.27 312.174 1014.37 311.575L1015.57 311.35C1018.67 310.754 1021.89 311.416 1024.51 313.191C1027.14 314.967 1028.94 317.71 1029.54 320.819L1031.16 329.2C1031.26 329.927 1031.07 330.665 1030.65 331.262C1030.22 331.859 1029.58 332.269 1028.86 332.409C1028.14 332.548 1027.39 332.406 1026.77 332.011C1026.15 331.617 1025.71 331 1025.53 330.288L1023.92 321.906C1023.61 320.289 1022.66 318.862 1021.3 317.937C1019.94 317.013 1018.26 316.667 1016.64 316.975L1015.45 317.2C1013.84 317.513 1012.41 318.455 1011.48 319.819C1010.56 321.182 1010.21 322.857 1010.52 324.475L1012.18 333.091C1012.49 334.708 1013.44 336.135 1014.8 337.059C1016.16 337.984 1017.84 338.33 1019.46 338.022C1022.57 337.428 1025.79 338.093 1028.41 339.87C1031.03 341.647 1032.83 344.391 1033.43 347.5L1034.37 352.497C1034.97 355.605 1034.31 358.822 1032.53 361.443C1030.76 364.064 1028.02 365.874 1024.91 366.475Z" fill="white"/>
<path d="M1027.19 375.128C1026.45 375.271 1025.68 375.112 1025.05 374.687C1024.42 374.261 1023.99 373.604 1023.84 372.859L1011.02 306.044C1010.88 305.298 1011.03 304.526 1011.46 303.897C1011.89 303.269 1012.55 302.835 1013.29 302.692C1014.04 302.549 1014.81 302.708 1015.44 303.135C1016.07 303.561 1016.5 304.22 1016.64 304.966L1029.47 371.772C1029.61 372.519 1029.45 373.292 1029.02 373.922C1028.6 374.551 1027.94 374.985 1027.19 375.128Z" fill="white"/>
<path d="M986.288 172.703L1102.54 93.2125L1109.8 136.562L1210.97 66.9344L1227.39 90.7094L1090.74 191.753L1080.23 145.769L993.516 214.75L986.288 172.703Z" fill="#FDC500"/>
<path d="M1201.61 60.0344L1232.16 109.309L1255.81 50.6688L1201.61 60.0344Z" fill="#FDC500"/>
<path d="M226 521C226 575.124 182.124 619 128 619C73.8761 619 30 575.124 30 521C30 466.876 73.8761 423 128 423C182.124 423 226 466.876 226 521ZM64.9247 521C64.9247 555.836 93.1645 584.075 128 584.075C162.836 584.075 191.075 555.836 191.075 521C191.075 486.164 162.836 457.925 128 457.925C93.1645 457.925 64.9247 486.164 64.9247 521Z" fill="#F15C54"/>
</g>
<defs>
<clipPath id="clip0_827_3585">
<rect width="1440" height="486" fill="white"/>
</clipPath>
</defs>
</svg>
