<svg width="1440" height="486" viewBox="0 0 1440 486" fill="none" xmlns="http://www.w3.org/2000/svg">
<g clip-path="url(#clip0_827_3660)">
<rect width="1440" height="486" fill="#0A142F"/>
<path d="M98 258C98 312.124 54.1239 356 0 356C-54.1239 356 -98 312.124 -98 258C-98 203.876 -54.1239 160 0 160C54.1239 160 98 203.876 98 258ZM-72.2969 258C-72.2969 297.928 -39.9285 330.297 0 330.297C39.9285 330.297 72.2969 297.928 72.2969 258C72.2969 218.072 39.9285 185.703 0 185.703C-39.9285 185.703 -72.2969 218.072 -72.2969 258Z" fill="#F9F9F9"/>
<path d="M655 521C655 575.124 611.124 619 557 619C502.876 619 459 575.124 459 521C459 466.876 502.876 423 557 423C611.124 423 655 466.876 655 521ZM493.925 521C493.925 555.836 522.164 584.075 557 584.075C591.836 584.075 620.075 555.836 620.075 521C620.075 486.164 591.836 457.925 557 457.925C522.164 457.925 493.925 486.164 493.925 521Z" fill="#F15C54"/>
<path d="M1575.03 508.676C1546.25 578.518 1466.3 611.805 1396.46 583.026C1326.62 554.247 1293.33 474.3 1322.11 404.459C1350.89 334.618 1430.83 301.33 1500.68 330.109C1570.52 358.888 1603.81 438.835 1575.03 508.676ZM1352.91 417.15C1331.14 469.981 1356.32 530.457 1409.15 552.227C1461.98 573.997 1522.46 548.816 1544.23 495.985C1566 443.154 1540.82 382.678 1487.99 360.908C1435.15 339.138 1374.68 364.319 1352.91 417.15Z" fill="white"/>
<rect x="1367" y="112.799" width="28" height="28" transform="rotate(-45 1367 112.799)" fill="#EAEAEA" fill-opacity="0.99"/>
<rect x="848" y="378.799" width="28" height="28" transform="rotate(-45 848 378.799)" fill="#F15C54" fill-opacity="0.47"/>
<rect x="199" y="102.799" width="28" height="28" transform="rotate(-45 199 102.799)" fill="#D9D9D9"/>
<g clip-path="url(#clip1_827_3660)">
<path d="M618.557 245.139C618.976 154.253 545.638 80.2354 454.753 79.8166C363.868 79.3979 289.852 152.736 289.433 243.622C289.014 334.508 362.352 408.526 453.237 408.944C544.122 409.363 618.138 336.025 618.557 245.139Z" fill="#514BDB"/>
<path d="M509.645 94.7205C515.364 109.116 508.305 125.485 493.911 131.205C479.515 136.927 463.147 129.869 457.425 115.471C451.702 101.077 458.763 84.7074 473.156 78.9875C487.553 73.2657 503.921 80.322 509.645 94.7205ZM464.752 112.561C468.867 122.917 480.642 127.994 490.997 123.878C501.356 119.763 506.429 107.988 502.315 97.6327C498.198 87.2739 486.424 82.1973 476.069 86.3135C465.713 90.4305 460.637 102.204 464.752 112.561Z" fill="#B8CBFE"/>
<path fill-rule="evenodd" clip-rule="evenodd" d="M326.626 377.022L397.847 373.817L382.874 340.644L371.172 359.748L355.125 338.84L346.126 360.92L331.047 344.783L326.626 377.022Z" fill="#FEC900"/>
<path fill-rule="evenodd" clip-rule="evenodd" d="M587.524 356.475C588.939 358.609 590.604 360.431 591.633 363.045C587.766 365.179 586.122 366.885 581.654 367.091C578.485 367.237 575.466 366.316 572.537 365.307C568.842 364.034 565.869 361.835 561.443 362.885C557.267 363.877 554.794 367.881 550.173 368.77C544.259 369.91 539.344 367.385 535.161 365.497C533.098 364.563 531.571 363.367 528.212 364.117C525.877 364.638 523.92 366.519 521.598 367.803C515.746 371.028 509.701 371.694 504.168 367.761C505.205 365.653 506.82 364.01 508.015 362.036C516.605 365.802 520.491 356.184 530.11 356.049C537.161 355.949 542.457 362.34 548.712 361.063C551.052 360.588 553.195 358.403 554.906 357.425C557.021 356.215 559.351 355.022 562.056 354.745C569.078 354.024 575.469 360.302 582.077 359.182C584.276 358.812 585.351 357.504 587.524 356.475Z" fill="#FE5D0D"/>
<path fill-rule="evenodd" clip-rule="evenodd" d="M406.39 112.938C407.804 115.072 409.47 116.895 410.498 119.508C406.632 121.642 404.988 123.348 400.519 123.555C397.351 123.701 394.331 122.78 391.402 121.771C387.708 120.498 384.735 118.299 380.308 119.349C376.132 120.34 373.66 124.344 369.038 125.233C363.124 126.373 358.21 123.849 354.026 121.961C351.963 121.027 350.435 119.831 347.077 120.581C344.742 121.102 342.785 122.983 340.462 124.267C334.611 127.492 328.566 128.159 323.033 124.225C324.07 122.118 325.685 120.474 326.88 118.501C335.47 122.266 339.356 112.648 348.975 112.514C356.026 112.413 361.322 118.804 367.577 117.527C369.916 117.053 372.06 114.867 373.77 113.889C375.885 112.68 378.215 111.486 380.92 111.209C387.941 110.489 394.332 116.766 400.941 115.646C403.142 115.276 404.218 113.968 406.39 112.938Z" fill="#79BB35"/>
<path d="M588.486 311.947C592.279 310.623 594.28 306.474 592.956 302.681C591.631 298.888 587.483 296.887 583.689 298.211C579.896 299.536 577.895 303.684 579.219 307.477C580.544 311.271 584.693 313.272 588.486 311.947Z" fill="#79BB35"/>
<path d="M555.889 156.381C559.888 155.986 562.809 152.425 562.414 148.427C562.019 144.428 558.457 141.507 554.459 141.902C550.461 142.297 547.54 145.859 547.935 149.857C548.33 153.855 551.891 156.776 555.889 156.381Z" fill="#FEC900"/>
<path fill-rule="evenodd" clip-rule="evenodd" d="M307.58 181.816L313.968 189.206L304.372 191.047L294.777 192.884L297.983 183.656L301.19 174.427L307.58 181.816Z" fill="#FE5D0D"/>
<path fill-rule="evenodd" clip-rule="evenodd" d="M461.15 386.86C456.397 390.014 449.987 388.719 446.832 383.966C443.678 379.214 444.972 372.804 449.725 369.649C454.478 366.494 460.888 367.79 464.043 372.542C467.198 377.295 465.902 383.705 461.15 386.86Z" fill="white"/>
<path d="M315.437 244.387C315.437 244.387 356.359 301.887 453.851 301.887C551.343 301.887 592.892 244.387 592.892 244.387L592.886 244.383C592.886 244.383 551.974 186.892 454.482 186.892C356.991 186.892 315.437 244.383 315.437 244.383V244.387Z" fill="white"/>
<path d="M505.785 244.387C505.785 272.751 482.797 295.747 454.425 295.747C426.066 295.747 403.078 272.751 403.078 244.387C403.078 216.029 426.066 193.028 454.425 193.028C482.797 193.027 505.785 216.028 505.785 244.387Z" fill="#8E8EFF"/>
<path d="M474.871 244.387C474.871 255.674 465.719 264.828 454.425 264.828C443.141 264.828 433.983 255.674 433.983 244.387C433.983 233.099 443.141 223.94 454.425 223.94C465.719 223.94 474.871 233.099 474.871 244.387Z" fill="#1D1D1B"/>
<path d="M487.518 228.944C487.518 237.474 480.609 244.383 472.082 244.383C463.555 244.383 456.64 237.474 456.64 228.944C456.64 220.411 463.555 213.505 472.082 213.505C480.609 213.505 487.518 220.411 487.518 228.944Z" fill="white"/>
<path d="M315.437 244.379C315.437 244.379 448.652 135.386 592.887 244.379C592.887 244.379 551.974 149.94 454.482 149.94C356.991 149.94 315.437 244.379 315.437 244.379ZM592.892 244.386C592.892 244.386 456.64 345.221 315.437 244.386C315.437 244.386 356.359 338.84 453.851 338.84C551.343 338.84 592.892 244.386 592.892 244.386Z" fill="#FE5D0D"/>
<path d="M367.022 164.998C373.089 157.031 380.063 152.061 388.9 149.86C397.148 147.809 403.393 150.204 405.7 155.901C408.052 161.698 405.22 167.039 397.219 170.886C390.569 174.081 383.432 176.239 378.018 181.674C374.77 184.932 370.251 186.042 366.015 183.193C361.148 179.921 361.692 175.245 363.71 170.664C364.729 168.347 366.278 166.246 367.022 164.998ZM417.582 145.591C421.062 141.986 429.736 142.137 433.751 145.73C436.792 148.455 437.053 151.62 434.265 154.617C430.853 158.287 422.407 158.053 418.476 154.294C415.595 151.54 415.216 148.511 417.582 145.591Z" fill="white"/>
</g>
</g>
<defs>
<clipPath id="clip0_827_3660">
<rect width="1440" height="486" fill="white"/>
</clipPath>
<clipPath id="clip1_827_3660">
<rect width="332" height="332" fill="white" transform="translate(288 77)"/>
</clipPath>
</defs>
</svg>
