<svg width="87" height="87" viewBox="0 0 87 87" fill="none" xmlns="http://www.w3.org/2000/svg">
<path fill-rule="evenodd" clip-rule="evenodd" d="M43.5 0C19.507 0 0 19.507 0 43.5C0 67.493 19.507 87 43.5 87C67.493 87 87 67.493 87 43.5C87 19.507 67.493 0 43.5 0Z" fill="#4BAE4F"/>
<path d="M35.1229 63.3979C29.5664 57.8415 24.0439 52.234 18.4705 46.6776C17.8588 46.0659 17.8588 45.0463 18.4705 44.4346L24.8766 38.0286C25.4883 37.4168 26.5078 37.4168 27.1195 38.0286L36.2783 47.1874L59.8295 23.6192C60.4582 23.0075 61.4607 23.0075 62.0895 23.6192L68.5125 30.0422C69.1412 30.6709 69.1412 31.6735 68.5125 32.2852L37.3658 63.3979C36.7541 64.0266 35.7516 64.0266 35.1229 63.3979Z" fill="white"/>
</svg>
