<svg width="94" height="95" viewBox="0 0 94 95" fill="none" xmlns="http://www.w3.org/2000/svg">
<g clip-path="url(#clip0_1276_13306)">
<path d="M78.333 80.7913H15.6663C11.358 80.7913 7.83301 77.2663 7.83301 72.958V22.0413C7.83301 17.733 11.358 14.208 15.6663 14.208H78.333C82.6413 14.208 86.1663 17.733 86.1663 22.0413V72.958C86.1663 77.2663 82.6413 80.7913 78.333 80.7913Z" fill="#8CBCD6"/>
<path d="M68.542 37.708C71.7867 37.708 74.417 35.0777 74.417 31.833C74.417 28.5883 71.7867 25.958 68.542 25.958C65.2973 25.958 62.667 28.5883 62.667 31.833C62.667 35.0777 65.2973 37.708 68.542 37.708Z" fill="#B3DDF5"/>
<path d="M39.1667 31.833L17.625 63.1663H60.7083L39.1667 31.833Z" fill="#9AC9E3"/>
<path d="M60.7087 43.583L45.042 63.1663H76.3753L60.7087 43.583Z" fill="#B3DDF5"/>
<path d="M74.4163 94.4997C85.2319 94.4997 93.9997 85.7319 93.9997 74.9163C93.9997 64.1008 85.2319 55.333 74.4163 55.333C63.6008 55.333 54.833 64.1008 54.833 74.9163C54.833 85.7319 63.6008 94.4997 74.4163 94.4997Z" fill="#43A047"/>
<path d="M70.5 63.167H78.3333V86.667H70.5V63.167Z" fill="white"/>
<path d="M62.667 71H86.167V78.8333H62.667V71Z" fill="white"/>
</g>
<defs>
<clipPath id="clip0_1276_13306">
<rect width="94" height="94" fill="white" transform="translate(0 0.5)"/>
</clipPath>
</defs>
</svg>
