<svg width="494" height="586" viewBox="0 0 494 586" fill="none" xmlns="http://www.w3.org/2000/svg">
<mask id="mask0_860_14168" style="mask-type:luminance" maskUnits="userSpaceOnUse" x="230" y="372" width="70" height="116">
<path d="M246.052 372.731L299.126 380.511L283.459 487.367L230.386 479.585L246.052 372.731Z" fill="white"/>
</mask>
<g mask="url(#mask0_860_14168)">
<path d="M246.052 372.731L299.126 380.511L283.459 487.367L230.386 479.585L246.052 372.731Z" fill="#E39C76"/>
<path d="M289.798 402.581C280.292 427.427 256.149 439.342 230.861 436.633L239.182 402.086L289.798 402.581Z" fill="#D48F6E"/>
</g>
<path d="M203.541 322.274C210.795 311.062 217.162 305.19 221.642 297.728C232.724 279.289 237.711 263.545 257.843 257.047C264.431 254.175 271.401 252.272 278.535 251.396C305.373 246.461 338.436 261.944 352.682 289.342C369.024 320.907 352.773 353.801 348.775 361.978C329.932 400.133 290.893 412.998 274.719 416.853C265.528 419.835 255.983 421.587 246.331 422.062C235.614 422.478 206.927 423.585 195.546 405.042C192.577 400.185 190.025 390.392 190.923 370.755C192.069 345.362 196.301 333.486 203.541 322.274Z" fill="#E39C76"/>
<path d="M228.061 355.598C227.957 355.597 227.854 355.572 227.762 355.525C227.669 355.477 227.589 355.408 227.527 355.324C224.337 350.767 223.334 347.081 224.584 344.36C227.293 338.435 237.88 342.472 249.6 326.546C249.701 326.406 249.855 326.312 250.026 326.285C250.197 326.258 250.371 326.301 250.511 326.402C250.651 326.504 250.745 326.658 250.772 326.829C250.798 326.999 250.756 327.174 250.654 327.314C238.752 343.591 228.191 339.698 225.821 344.907C224.78 347.172 225.73 350.415 228.647 354.569C228.72 354.67 228.762 354.79 228.769 354.915C228.775 355.039 228.746 355.163 228.684 355.271C228.623 355.38 228.531 355.468 228.421 355.526C228.31 355.584 228.185 355.609 228.061 355.598ZM234.299 320.855C231.838 325.009 227.671 327.106 224.975 325.517C222.28 323.928 222.084 319.266 224.545 315.099C227.006 310.932 231.174 308.849 233.869 310.438C236.565 312.026 236.76 316.688 234.299 320.855ZM276.242 345.584C273.781 349.751 269.614 351.834 266.919 350.246C264.223 348.657 264.028 343.995 266.489 339.828C268.95 335.661 273.117 333.578 275.813 335.166C278.508 336.755 278.691 341.43 276.242 345.584ZM234.637 290.488C234.505 290.38 234.394 290.246 234.313 290.095C234.232 289.944 234.182 289.778 234.165 289.608C234.148 289.437 234.165 289.265 234.215 289.101C234.264 288.937 234.346 288.784 234.455 288.652C234.674 288.387 234.988 288.22 235.329 288.186C235.67 288.152 236.012 288.254 236.278 288.469C242.268 293.34 250.133 294.134 256.605 289.902C256.893 289.744 257.23 289.7 257.548 289.78C257.867 289.86 258.143 290.057 258.323 290.331C258.502 290.606 258.571 290.939 258.516 291.262C258.461 291.586 258.285 291.877 258.025 292.077C250.524 296.986 241.422 296.009 234.637 290.488ZM299.539 327.249C299.29 327.249 299.046 327.179 298.836 327.045C298.626 326.911 298.458 326.72 298.354 326.494C292.286 313.472 278.287 314.526 277.688 314.578C277.517 314.594 277.345 314.575 277.181 314.524C277.017 314.473 276.865 314.39 276.733 314.28C276.467 314.058 276.3 313.739 276.269 313.394C276.237 313.048 276.345 312.705 276.567 312.438C276.789 312.172 277.108 312.005 277.454 311.974C277.61 311.974 293.861 310.672 300.711 325.374C300.808 325.572 300.853 325.793 300.842 326.014C300.83 326.235 300.763 326.449 300.646 326.637C300.528 326.825 300.365 326.979 300.172 327.086C299.978 327.193 299.76 327.249 299.539 327.249Z" fill="#2D1929"/>
<path d="M252.582 450.476C252.582 450.476 176.911 464.8 168.044 483.89C159.176 502.98 174.867 565.694 174.867 565.694H377.345C377.345 565.694 383.479 490.701 377.345 472.301C371.212 453.9 252.582 450.476 252.582 450.476Z" fill="#E39C76"/>
<path d="M330.987 199.608C362.509 243.631 393.64 288.648 424.381 334.659C390.927 392.632 338.801 435.214 273.717 453.276L366.433 551.448C472.445 388.765 495.585 374.597 493.918 338.057C492.551 308.003 473.695 285.761 435.97 241.252C414.521 215.944 390.786 192.667 365.066 171.715L330.987 199.608ZM27.5628 248.44C22.6144 298.262 18.2911 337.406 15.4003 362.708C10.7384 403.675 8.88927 416.892 15.4003 434.836C26.0262 464.084 49.4787 479.971 81.8122 501.248C111.582 520.786 144.082 535.807 178.253 545.823L237.346 459.305C182.439 455.201 129.216 438.495 81.8122 410.485C77.7494 358.892 73.6952 307.295 69.6497 255.693L27.5628 248.44Z" fill="#E39C76"/>
<path d="M339.164 205.494C339.164 205.494 320.126 197.798 320.126 184.02C320.126 170.243 323.772 148.015 323.772 140.28C323.772 132.545 314.449 106.618 320.126 106.214C325.804 105.811 353.293 138.873 357.981 148.887C362.669 158.901 369.558 181.794 369.558 181.794L339.164 205.494ZM28.5647 271.137C28.5647 271.137 8.92755 235.978 5.68509 223.555C2.44262 211.132 27.7313 171.65 27.7313 171.65L44.5817 221.367L28.5647 271.137Z" fill="#E39C76"/>
<path d="M249.131 375.365C244.638 367.773 234.468 368.086 229.976 375.365C229.93 375.438 229.871 375.501 229.802 375.551C229.732 375.601 229.653 375.636 229.57 375.656C229.486 375.675 229.4 375.678 229.315 375.664C229.231 375.649 229.15 375.619 229.077 375.573C229.005 375.529 228.942 375.471 228.892 375.403C228.842 375.334 228.807 375.257 228.787 375.174C228.768 375.092 228.765 375.006 228.779 374.923C228.793 374.839 228.824 374.759 228.869 374.688C230.11 372.594 231.928 370.902 234.106 369.814C236.284 368.727 238.729 368.289 241.148 368.554C243.023 368.851 244.81 369.553 246.385 370.613C247.959 371.672 249.283 373.063 250.264 374.688C250.308 374.762 250.338 374.845 250.35 374.93C250.363 375.016 250.359 375.103 250.337 375.188C250.316 375.272 250.279 375.351 250.227 375.42C250.175 375.49 250.11 375.548 250.036 375.593C249.962 375.637 249.879 375.667 249.793 375.679C249.708 375.692 249.62 375.687 249.536 375.666C249.452 375.645 249.373 375.608 249.304 375.556C249.234 375.504 249.175 375.439 249.131 375.365Z" fill="#2D1929"/>
<path d="M112.335 426.606L68.3994 492.341L158.928 551.383V565.707L384.651 565.629C384.39 552.051 384.125 538.461 383.856 524.857L453.602 422.257L400.772 369.101L289.291 448.34C289.291 448.34 291.257 477.809 264.758 478.616C238.258 479.423 234.143 454.552 234.143 454.552L112.335 426.606Z" fill="#287EEF"/>
<path d="M384.546 585.982H158.928V551.383L384.351 551.031C384.794 562.243 384.885 573.911 384.546 585.982Z" fill="#287EEF"/>
<path d="M158.928 551.383C158.928 551.383 170.4 488.356 174.046 487.575C177.692 486.794 173.708 558.102 179.047 565.642C184.386 573.182 237.398 585.982 237.398 585.982H158.928V551.383ZM383.856 524.844C383.856 524.844 363.867 458.953 359.83 457.729C355.794 456.505 362.656 530.652 359.83 545.861C357.005 561.071 310.803 585.982 310.803 585.982H384.546L383.856 524.844Z" fill="#1573D8"/>
<path d="M232.475 278.794C232.475 278.794 226.694 243.479 260.994 242.867C260.994 242.867 266.437 223.724 284.967 220.729C303.497 217.734 283.535 228.933 315.1 233.491C346.665 238.048 408.05 317.014 370.365 350.819C370.365 350.819 382.28 395.822 294.838 410.29C294.838 410.29 316.793 386.369 334.45 342.758C329.891 337.77 326.84 331.592 325.651 324.94C324.462 318.288 325.183 311.435 327.731 305.177C336.326 282.688 280.201 296.973 277.57 263.506C277.57 263.532 253.232 256.058 232.475 278.794Z" fill="#40C2D6"/>
<path d="M315.153 361.249C324.437 352.824 337.603 352.134 344.543 359.817C351.484 367.5 349.583 380.496 340.298 388.934C331.013 397.372 317.848 398.049 310.907 390.366C303.967 382.683 305.868 369.688 315.153 361.249Z" fill="#E39C76"/>
<path d="M317.523 380.418C316.643 380.415 315.767 380.297 314.918 380.066C314.756 380.01 314.622 379.893 314.545 379.74C314.467 379.587 314.451 379.41 314.501 379.246C314.555 379.082 314.672 378.946 314.825 378.868C314.979 378.789 315.158 378.776 315.322 378.829C315.53 378.894 320.531 380.418 323.135 376.042C324.945 373.06 319.671 369.375 319.619 369.336C319.541 369.275 319.477 369.197 319.433 369.108C319.39 369.019 319.367 368.921 319.367 368.822C319.367 368.722 319.39 368.624 319.433 368.535C319.477 368.446 319.541 368.368 319.619 368.307C320.049 367.917 330.479 358.84 338.149 363.02C344.856 366.666 340.858 374.362 340.819 374.441C340.782 374.522 340.729 374.595 340.663 374.655C340.597 374.715 340.52 374.761 340.435 374.79C340.351 374.819 340.261 374.83 340.172 374.823C340.083 374.816 339.997 374.79 339.918 374.748C339.839 374.706 339.77 374.648 339.715 374.578C339.659 374.508 339.619 374.428 339.596 374.342C339.573 374.255 339.568 374.165 339.581 374.077C339.594 373.989 339.626 373.904 339.673 373.829C339.803 373.555 343.098 367.2 337.524 364.166C331.638 360.963 323.395 366.94 321.091 368.776C322.679 370.078 326.299 373.451 324.307 376.719C323.618 377.893 322.623 378.858 321.428 379.509C320.232 380.161 318.882 380.475 317.523 380.418Z" fill="#2D1929"/>
<path d="M81.8639 410.524C65.7557 415.251 52.6556 419.314 43.3579 422.244C30.6225 426.268 27.6274 427.375 27.7316 428.156C28.0181 429.81 42.4073 430.187 55.8981 425.929C65.5996 422.808 74.4742 417.543 81.8639 410.524ZM424.38 334.658C424.38 334.658 456.675 336.846 476.13 329.853C495.584 322.86 463.798 357.616 424.38 334.658Z" fill="#D48F6E"/>
<path d="M393.18 153.237C389.104 153.237 387.021 154.656 387.021 157.508C387.002 158.918 387.362 160.307 388.062 161.532C389.364 164.058 391.63 166.011 393.44 166.011C395.888 166.011 398.91 161.102 399.144 158.68V157.56C399.144 154.656 397.139 153.237 393.18 153.237ZM390.849 80.4047C383.973 82.6705 378.335 87.1501 376.46 94.1559C374.585 101.162 376.759 107.894 383.843 107.894C385.666 107.894 386.955 106.214 386.955 104.066L386.825 101.279C386.771 97.4436 387.854 93.6781 389.937 90.4577C394.339 83.543 404.874 82.8138 409.783 89.7415C414.692 96.6691 414.809 105.667 406.02 116.137C398.037 125.617 382.489 137.949 387.932 147.325C388.585 148.426 389.531 149.325 390.664 149.92C391.798 150.516 393.074 150.785 394.352 150.697C397.269 150.372 398.701 148.562 398.701 145.189C398.701 131.177 424.381 119.379 424.381 98.948C424.525 94.9383 423.439 90.9805 421.268 87.6059C414.979 78.6077 401.514 76.9799 390.849 80.4047Z" fill="#DAC0D5"/>
<path d="M8.83672 82.0975L227.189 0.853515C230.283 -0.299713 233.692 -0.283811 236.775 0.898238C239.859 2.08029 242.405 4.34719 243.935 7.27334L316.298 145.593C317.189 147.299 317.707 149.175 317.818 151.096C317.929 153.018 317.629 154.941 316.939 156.738C316.25 158.535 315.186 160.164 313.818 161.518C312.45 162.872 310.81 163.92 309.006 164.592L53.9448 259.496C52.1427 260.161 50.2198 260.436 48.3035 260.303C46.3871 260.169 44.5209 259.631 42.8283 258.722C41.1356 257.814 39.6552 256.556 38.4849 255.033C37.3146 253.509 36.4811 251.755 36.0396 249.885L0.35942 97.9062C-0.396111 94.6907 0.0483418 91.31 1.6093 88.3991C3.17025 85.4882 5.74031 83.2474 8.83672 82.0975Z" fill="#F15C54"/>
<path d="M42.1269 278.504L330.223 171.076C333.485 169.86 335.143 166.23 333.927 162.968L324.04 136.455C322.824 133.194 319.194 131.535 315.933 132.752L27.8361 240.18C24.5747 241.396 22.9166 245.026 24.1328 248.288L34.0194 274.801C35.2355 278.062 38.8654 279.72 42.1269 278.504Z" fill="#F15C54"/>
<path d="M210.911 29.9446C212.105 29.4985 213.374 29.2921 214.648 29.3374C215.921 29.3827 217.173 29.6787 218.332 30.2085C219.491 30.7383 220.534 31.4915 221.401 32.4249C222.268 33.3583 222.943 34.4537 223.386 35.6482L257.634 127.687C258.078 128.884 258.281 130.157 258.233 131.433C258.185 132.709 257.886 133.962 257.354 135.123C256.821 136.283 256.065 137.327 255.129 138.195C254.193 139.063 253.095 139.738 251.898 140.182C250.701 140.626 249.428 140.829 248.152 140.781C246.877 140.733 245.623 140.434 244.463 139.902C243.302 139.369 242.258 138.613 241.39 137.677C240.522 136.741 239.847 135.643 239.403 134.446L205.208 42.4326C204.761 41.2382 204.555 39.9675 204.6 38.6933C204.645 37.419 204.941 36.1661 205.471 35.0062C206 33.8464 206.754 32.8024 207.687 31.9338C208.621 31.0653 209.716 30.3893 210.911 29.9446ZM166.702 46.4174C169.106 45.522 171.767 45.6153 174.102 46.6768C176.438 47.7384 178.258 49.6819 179.164 52.0819L213.411 144.134C214.308 146.552 214.207 149.226 213.131 151.569C212.055 153.913 210.093 155.732 207.675 156.629C205.258 157.525 202.583 157.424 200.24 156.348C197.897 155.273 196.077 153.31 195.181 150.893L161.05 58.8794C160.603 57.69 160.394 56.4242 160.436 55.1543C160.478 53.8843 160.77 52.635 161.295 51.4778C161.82 50.3206 162.567 49.2781 163.495 48.4098C164.423 47.5415 165.512 46.8645 166.702 46.4174ZM122.479 62.8771C123.675 62.4212 124.95 62.2072 126.23 62.2476C127.51 62.288 128.769 62.582 129.934 63.1125C131.099 63.643 132.147 64.3996 133.018 65.3382C133.889 66.2769 134.565 67.379 135.006 68.5807L169.254 160.62C170.15 163.029 170.053 165.695 168.983 168.032C167.913 170.369 165.959 172.186 163.55 173.082C161.141 173.978 158.475 173.881 156.138 172.811C153.801 171.741 151.985 169.787 151.088 167.378L116.775 75.3391C115.882 72.93 115.981 70.265 117.05 67.9286C118.119 65.5923 120.072 63.7756 122.479 62.8771ZM78.2565 79.3238C80.6674 78.43 83.3343 78.5285 85.6728 79.5976C88.0112 80.6667 89.8303 82.6194 90.7316 85.0275L124.979 177.093C125.876 179.51 125.775 182.185 124.699 184.528C123.623 186.871 121.661 188.691 119.243 189.587C116.826 190.483 114.151 190.383 111.808 189.307C109.465 188.231 107.645 186.269 106.749 183.851L72.5008 91.7859C72.0598 90.5897 71.8588 89.3184 71.9095 88.0445C71.9601 86.7707 72.2613 85.5193 72.7958 84.3619C73.3304 83.2046 74.0878 82.1639 75.0248 81.2994C75.9618 80.4349 77.0599 79.7636 78.2565 79.3238ZM34.047 95.7836C35.2396 95.3377 36.5085 95.1316 37.7809 95.177C39.0533 95.2225 40.3042 95.5186 41.462 96.0485C42.6197 96.5784 43.6615 97.3316 44.5276 98.2648C45.3936 99.1981 46.067 100.293 46.509 101.487L80.7568 193.526C81.2014 194.723 81.4059 195.996 81.3586 197.272C81.3112 198.549 81.013 199.803 80.481 200.964C79.9489 202.124 79.1935 203.169 78.2577 204.038C77.3219 204.907 76.2241 205.583 75.0271 206.027C73.8301 206.472 72.5571 206.677 71.2811 206.629C70.005 206.582 68.7507 206.284 67.5899 205.752C66.4291 205.22 65.3844 204.464 64.5155 203.528C63.6467 202.593 62.9706 201.495 62.526 200.298L28.2783 108.246C27.834 107.049 27.6309 105.776 27.6807 104.501C27.7305 103.225 28.0322 101.972 28.5684 100.814C29.1047 99.6554 29.8648 98.6145 30.8051 97.7512C31.7453 96.8879 32.8471 96.2192 34.047 95.7836Z" fill="#2D1929"/>
<path d="M309.488 135.136L28.5649 223.295L32.0939 238.348L309.488 135.136Z" fill="#AC4943"/>
<path d="M193.149 202.954C194.479 203.149 195.758 203.603 196.912 204.293C198.066 204.982 199.073 205.892 199.875 206.971C200.677 208.05 201.259 209.277 201.586 210.581C201.913 211.884 201.98 213.24 201.783 214.57L190.167 293.47C189.992 294.817 189.55 296.117 188.868 297.292C188.186 298.467 187.276 299.494 186.193 300.314C185.109 301.134 183.873 301.729 182.557 302.067C181.24 302.404 179.87 302.475 178.526 302.278C177.181 302.08 175.89 301.616 174.727 300.914C173.564 300.211 172.552 299.284 171.751 298.187C170.949 297.09 170.375 295.844 170.06 294.522C169.745 293.2 169.697 291.829 169.918 290.488L181.533 211.588C181.929 208.903 183.375 206.485 185.554 204.866C187.732 203.247 190.464 202.559 193.149 202.954Z" fill="#CC3745"/>
<path d="M192.837 223.568C203.006 223.568 211.25 215.324 211.25 205.155C211.25 194.986 203.006 186.742 192.837 186.742C182.668 186.742 174.424 194.986 174.424 205.155C174.424 215.324 182.668 223.568 192.837 223.568Z" fill="#E73F46"/>
</svg>
