<svg width="88" height="84" viewBox="0 0 88 84" fill="none" xmlns="http://www.w3.org/2000/svg">
<path d="M52.9999 72.5312V81.7909C52.9999 83.3007 51.3349 84.2928 49.9249 83.617L44.9449 81.2302C44.3599 80.9426 43.6399 80.9426 43.0549 81.2302L38.075 83.617C36.665 84.2928 35 83.3007 35 81.7909V72.5312H52.9999Z" fill="#7ED09E"/>
<path d="M58.5345 63.7028H84.4993C86.1493 63.7028 87.4993 62.4088 87.4993 60.8272V3.31366C87.4993 1.73204 86.1493 0.437988 84.4993 0.437988H3.49998C1.84999 0.437988 0.5 1.73204 0.5 3.31366V60.8272C0.5 62.4088 1.84999 63.7028 3.49998 63.7028H58.5345Z" fill="#F29C1F"/>
<path d="M60.1546 57.9516H79.9994C80.8244 57.9516 81.4994 57.3046 81.4994 56.5138V7.62729C81.4994 6.83648 80.8244 6.18945 79.9994 6.18945H7.99999C7.17499 6.18945 6.5 6.83648 6.5 7.62729V56.5138C6.5 57.3046 7.17499 57.9516 7.99999 57.9516H60.1546Z" fill="#F0C419"/>
<path d="M44 24.8811C47.3136 24.8811 49.9999 22.3062 49.9999 19.1298C49.9999 15.9534 47.3136 13.3784 44 13.3784C40.6863 13.3784 38 15.9534 38 19.1298C38 22.3062 40.6863 24.8811 44 24.8811Z" fill="#ECF0F1"/>
<path d="M59.5072 61.6958C59.0897 62.0997 58.7892 62.6009 58.6354 63.1501C58.4815 63.6992 58.4796 64.2773 58.6297 64.8274C58.7107 65.1078 58.7437 65.3723 58.7437 65.6527C58.7413 66.3713 58.4938 67.0695 58.0388 67.6406C57.5838 68.2118 56.9463 68.6245 56.2237 68.8159C55.6496 68.9608 55.1259 69.2492 54.7061 69.6516C54.2863 70.0541 53.9854 70.5561 53.8342 71.1064C53.6346 71.7991 53.2039 72.4101 52.6081 72.8462C52.0123 73.2824 51.284 73.5197 50.5343 73.522C50.2418 73.522 49.9658 73.4904 49.6733 73.4127C49.3808 73.3351 49.1048 73.3034 48.8123 73.3034C47.9116 73.307 47.0481 73.6481 46.4063 74.2538C45.7403 74.8779 44.8778 75.2043 44.0003 75.2043C43.1228 75.2043 42.2603 74.8764 41.5943 74.2538C40.9525 73.6481 40.089 73.307 39.1884 73.3034C38.8959 73.3034 38.6199 73.3351 38.3274 73.4127C38.0349 73.4904 37.7589 73.522 37.4664 73.522C36.7167 73.5197 35.9884 73.2824 35.3925 72.8462C34.7967 72.4101 34.3661 71.7991 34.1664 71.1064C34.0152 70.5561 33.7144 70.0541 33.2946 69.6516C32.8748 69.2492 32.351 68.9608 31.7769 68.8159C31.0543 68.6245 30.4169 68.2118 29.9619 67.6406C29.5069 67.0695 29.2593 66.3713 29.2569 65.6527C29.2569 65.3723 29.2899 65.1078 29.3709 64.8274C29.4519 64.547 29.4849 64.2824 29.4849 64.0021C29.4812 63.1387 29.1253 62.311 28.4934 61.6958C27.8424 61.0574 27.502 60.2306 27.502 59.3895C27.502 58.5483 27.8439 57.7216 28.4934 57.0832C29.1255 56.468 29.4813 55.6403 29.4849 54.7769C29.4849 54.4965 29.4519 54.232 29.3709 53.9516C29.2899 53.6712 29.2569 53.4066 29.2569 53.1263C29.2593 52.4076 29.5069 51.7095 29.9619 51.1384C30.4169 50.5672 31.0543 50.1544 31.7769 49.963C32.351 49.8181 32.8748 49.5297 33.2946 49.1273C33.7144 48.7249 34.0152 48.2229 34.1664 47.6725C34.3661 46.9799 34.7967 46.3689 35.3925 45.9327C35.9884 45.4966 36.7167 45.2593 37.4664 45.257C37.7589 45.257 38.0349 45.2886 38.3274 45.3663C38.6199 45.4439 38.8959 45.4755 39.1884 45.4755C40.089 45.4719 40.9525 45.1308 41.5943 44.5251C42.2603 43.9025 43.1228 43.5747 44.0003 43.5747C44.8778 43.5747 45.7403 43.9025 46.4063 44.5251C47.0481 45.1308 47.9116 45.4719 48.8123 45.4755C49.1048 45.4755 49.3808 45.4439 49.6733 45.3663C49.9658 45.2886 50.2418 45.257 50.5343 45.257C51.284 45.2593 52.0123 45.4966 52.6081 45.9327C53.2039 46.3689 53.6346 46.9799 53.8342 47.6725C54.1432 48.7941 55.0537 49.6668 56.2237 49.963C56.9463 50.1544 57.5838 50.5672 58.0388 51.1384C58.4938 51.7095 58.7413 52.4076 58.7437 53.1263C58.7437 53.4066 58.7107 53.6712 58.6297 53.9516C58.5487 54.232 58.5157 54.4965 58.5157 54.7769C58.5195 55.6403 58.8753 56.468 59.5072 57.0832C60.1582 57.7216 60.4987 58.5483 60.4987 59.3895C60.4987 60.2306 60.1567 61.0574 59.5072 61.6958Z" fill="#24AE5F"/>
<path d="M43.9999 68.0163C48.9705 68.0163 52.9999 64.1538 52.9999 59.3892C52.9999 54.6247 48.9705 50.7622 43.9999 50.7622C39.0294 50.7622 35 54.6247 35 59.3892C35 64.1538 39.0294 68.0163 43.9999 68.0163Z" fill="#7ED09E"/>
<path d="M63.4997 33.5085H24.5C24.1022 33.5085 23.7206 33.357 23.4393 33.0874C23.158 32.8177 23 32.452 23 32.0707C23 31.6893 23.158 31.3236 23.4393 31.0539C23.7206 30.7843 24.1022 30.6328 24.5 30.6328H63.4997C63.8975 30.6328 64.279 30.7843 64.5603 31.0539C64.8416 31.3236 64.9997 31.6893 64.9997 32.0707C64.9997 32.452 64.8416 32.8177 64.5603 33.0874C64.279 33.357 63.8975 33.5085 63.4997 33.5085ZM54.4998 39.2598H33.4999C33.1021 39.2598 32.7206 39.1084 32.4393 38.8387C32.158 38.5691 31.9999 38.2033 31.9999 37.822C31.9999 37.4407 32.158 37.0749 32.4393 36.8053C32.7206 36.5356 33.1021 36.3842 33.4999 36.3842H54.4998C54.8976 36.3842 55.2791 36.5356 55.5604 36.8053C55.8417 37.0749 55.9997 37.4407 55.9997 37.822C55.9997 38.2033 55.8417 38.5691 55.5604 38.8387C55.2791 39.1084 54.8976 39.2598 54.4998 39.2598Z" fill="#ECF0F1"/>
<path d="M19.9999 6.18945L6.5 19.13V7.62729C6.5 6.83648 7.17499 6.18945 7.99999 6.18945H19.9999ZM81.4994 7.62729V19.13L67.9995 6.18945H79.9994C80.8244 6.18945 81.4994 6.83648 81.4994 7.62729ZM19.9999 57.9516H7.99999C7.17499 57.9516 6.5 57.3046 6.5 56.5138V45.0111L19.9999 57.9516ZM81.4994 45.0111V56.5138C81.4994 57.3046 80.8244 57.9516 79.9994 57.9516H67.9995L81.4994 45.0111Z" fill="#E57E25"/>
</svg>
