<svg width="90" height="86" viewBox="0 0 90 86" fill="none" xmlns="http://www.w3.org/2000/svg">
<path d="M31.3184 4.36534C31.3184 1.95448 29.3639 0 26.9529 0H8.31961C5.90859 0 3.9541 1.95448 3.9541 4.36534V81.6345C3.9541 84.0455 5.90859 85.9998 8.31944 85.9998H26.9529C29.3639 85.9998 31.3182 84.0453 31.3182 81.6345H35.3987V4.36534H31.3184Z" fill="#0E80AC"/>
<path d="M26.9525 0H20.9941C23.4052 0 25.3595 1.95448 25.3595 4.36534V81.6345C25.3595 84.0455 23.405 85.9998 20.9941 85.9998H26.9525C29.3635 85.9998 31.3178 84.0453 31.3178 81.6345V4.36534C31.318 1.95448 29.3635 0 26.9525 0Z" fill="#057195"/>
<path d="M58.6825 4.36534C58.6825 1.95448 56.728 0 54.3171 0H35.6837C33.2727 0 31.3184 1.95448 31.3184 4.36534V81.6345C31.3184 84.0455 33.2728 85.9998 35.6837 85.9998H54.3171C56.7282 85.9998 58.6825 84.0453 58.6825 81.6345H62.7629V4.36534H58.6825Z" fill="#FD7E42"/>
<path d="M54.3168 0H48.3584C50.7694 0 52.7237 1.95448 52.7237 4.36534V81.6345C52.7237 84.0455 50.7693 85.9998 48.3584 85.9998H54.3168C56.7278 85.9998 58.6821 84.0453 58.6821 81.6345V4.36534C58.6821 1.95448 56.7276 0 54.3168 0Z" fill="#FA6931"/>
<path d="M37.2764 39.6662V7.77314C37.2764 6.69999 38.1463 5.83008 39.2194 5.83008H50.7806C51.8537 5.83008 52.7238 6.69999 52.7238 7.77314V39.6662C52.7238 40.7394 51.8539 41.6093 50.7806 41.6093H39.2194C38.1463 41.6093 37.2764 40.7394 37.2764 39.6662Z" fill="#F1FAFF"/>
<path d="M81.6812 86H63.048C60.6369 86 58.6826 84.0455 58.6826 81.6347V4.36534C58.6824 1.95448 60.6369 0 63.048 0H81.6814C84.0924 0 86.0467 1.95448 86.0467 4.36534V81.6345C86.0467 84.0455 84.0923 86 81.6812 86Z" fill="#FDCB82"/>
<path d="M81.681 0H75.7227C78.1337 0 80.088 1.95448 80.088 4.36534V81.6345C80.088 84.0455 78.1335 85.9998 75.7227 85.9998H81.681C84.092 85.9998 86.0464 84.0453 86.0464 81.6345V4.36534C86.0465 1.95448 84.092 0 81.681 0Z" fill="#FBBE66"/>
<path d="M64.6406 39.6662V7.77314C64.6406 6.69999 65.5105 5.83008 66.5837 5.83008H78.1448C79.218 5.83008 80.0879 6.69999 80.0879 7.77314V39.6662C80.0879 40.7394 79.218 41.6093 78.1448 41.6093H66.5837C65.5107 41.6093 64.6406 40.7394 64.6406 39.6662Z" fill="#F1FAFF"/>
<path d="M17.6364 77.7698C21.9002 77.7698 25.3567 74.3133 25.3567 70.0494C25.3567 65.7856 21.9002 62.3291 17.6364 62.3291C13.3725 62.3291 9.91602 65.7856 9.91602 70.0494C9.91602 74.3133 13.3725 77.7698 17.6364 77.7698Z" fill="#F1FAFF"/>
<path d="M17.6359 73.5033C15.7313 73.5033 14.1816 71.9538 14.1816 70.049C14.1816 68.1444 15.7312 66.5947 17.6359 66.5947C19.5407 66.5947 21.0902 68.1442 21.0902 70.049C21.09 71.9538 19.5405 73.5033 17.6359 73.5033Z" fill="#3C5959"/>
<path d="M9.91211 39.6662V7.77314C9.91211 6.69999 10.782 5.83008 11.8552 5.83008H23.4163C24.4894 5.83008 25.3594 6.69999 25.3594 7.77314V39.6662C25.3594 40.7394 24.4894 41.6093 23.4163 41.6093H11.8553C10.7822 41.6093 9.91211 40.7394 9.91211 39.6662Z" fill="#F1FAFF"/>
<path d="M20.4692 14.2585H14.8026C14.4584 14.2585 14.1283 14.1218 13.885 13.8784C13.6416 13.6351 13.5049 13.305 13.5049 12.9608C13.5049 12.6166 13.6416 12.2866 13.885 12.0432C14.1283 11.7998 14.4584 11.6631 14.8026 11.6631H20.4692C20.8134 11.6631 21.1435 11.7998 21.3868 12.0432C21.6302 12.2866 21.7669 12.6166 21.7669 12.9608C21.7669 13.305 21.6302 13.6351 21.3868 13.8784C21.1435 14.1218 20.8134 14.2585 20.4692 14.2585ZM20.4692 21.1705H14.8026C14.4584 21.1705 14.1283 21.0337 13.885 20.7904C13.6416 20.547 13.5049 20.2169 13.5049 19.8727C13.5049 19.5285 13.6416 19.1985 13.885 18.9551C14.1283 18.7117 14.4584 18.575 14.8026 18.575H20.4692C20.8134 18.575 21.1435 18.7117 21.3868 18.9551C21.6302 19.1985 21.7669 19.5285 21.7669 19.8727C21.7669 20.2169 21.6302 20.547 21.3868 20.7904C21.1435 21.0337 20.8134 21.1705 20.4692 21.1705ZM47.8335 14.2585H42.1671C41.8229 14.2585 41.4928 14.1218 41.2494 13.8784C41.0061 13.6351 40.8693 13.305 40.8693 12.9608C40.8693 12.6166 41.0061 12.2866 41.2494 12.0432C41.4928 11.7998 41.8229 11.6631 42.1671 11.6631H47.8335C48.1777 11.6631 48.5078 11.7998 48.7511 12.0432C48.9945 12.2866 49.1312 12.6166 49.1312 12.9608C49.1312 13.305 48.9945 13.6351 48.7511 13.8784C48.5078 14.1218 48.1777 14.2585 47.8335 14.2585ZM47.8335 21.1705H42.1671C41.8229 21.1705 41.4928 21.0337 41.2494 20.7904C41.0061 20.547 40.8693 20.2169 40.8693 19.8727C40.8693 19.5285 41.0061 19.1985 41.2494 18.9551C41.4928 18.7117 41.8229 18.575 42.1671 18.575H47.8335C48.1777 18.575 48.5078 18.7117 48.7511 18.9551C48.9945 19.1985 49.1312 19.5285 49.1312 19.8727C49.1312 20.2169 48.9945 20.547 48.7511 20.7904C48.5078 21.0337 48.1777 21.1705 47.8335 21.1705ZM75.1976 14.2585H69.5312C69.187 14.2585 68.8569 14.1218 68.6136 13.8784C68.3702 13.6351 68.2335 13.305 68.2335 12.9608C68.2335 12.6166 68.3702 12.2866 68.6136 12.0432C68.8569 11.7998 69.187 11.6631 69.5312 11.6631H75.1976C75.5418 11.6631 75.8719 11.7998 76.1153 12.0432C76.3586 12.2866 76.4953 12.6166 76.4953 12.9608C76.4953 13.305 76.3586 13.6351 76.1153 13.8784C75.8719 14.1218 75.5418 14.2585 75.1976 14.2585ZM75.1976 21.1705H69.5312C69.187 21.1705 68.8569 21.0337 68.6136 20.7904C68.3702 20.547 68.2335 20.2169 68.2335 19.8727C68.2335 19.5285 68.3702 19.1985 68.6136 18.9551C68.8569 18.7117 69.187 18.575 69.5312 18.575H75.1976C75.5418 18.575 75.8719 18.7117 76.1153 18.9551C76.3586 19.1985 76.4953 19.5285 76.4953 19.8727C76.4953 20.2169 76.3586 20.547 76.1153 20.7904C75.8719 21.0337 75.5418 21.1705 75.1976 21.1705Z" fill="#0E80AC"/>
<path d="M17.6368 78.838C22.4909 78.838 26.4259 74.903 26.4259 70.0489C26.4259 65.1948 22.4909 61.2598 17.6368 61.2598C12.7827 61.2598 8.84766 65.1948 8.84766 70.0489C8.84766 74.903 12.7827 78.838 17.6368 78.838Z" fill="#F1FAFF"/>
<path d="M17.6366 74.0446C15.4338 74.0446 13.6416 72.2526 13.6416 70.0497C13.6416 67.8469 15.4337 66.0547 17.6366 66.0547C19.8395 66.0547 21.6315 67.8467 21.6315 70.0497C21.6314 72.2526 19.8393 74.0446 17.6366 74.0446Z" fill="#3C5959"/>
<path d="M45.0001 78.838C49.8542 78.838 53.7892 74.903 53.7892 70.0489C53.7892 65.1948 49.8542 61.2598 45.0001 61.2598C40.146 61.2598 36.2109 65.1948 36.2109 70.0489C36.2109 74.903 40.146 78.838 45.0001 78.838Z" fill="#F1FAFF"/>
<path d="M45.0008 74.0446C42.7981 74.0446 41.0059 72.2526 41.0059 70.0497C41.0059 67.8469 42.7979 66.0547 45.0008 66.0547C47.2036 66.0547 48.9958 67.8467 48.9958 70.0497C48.9958 72.2526 47.2036 74.0446 45.0008 74.0446Z" fill="#3C5959"/>
<path d="M72.3643 78.838C77.2184 78.838 81.1535 74.903 81.1535 70.0489C81.1535 65.1948 77.2184 61.2598 72.3643 61.2598C67.5102 61.2598 63.5752 65.1948 63.5752 70.0489C63.5752 74.903 67.5102 78.838 72.3643 78.838Z" fill="#F1FAFF"/>
<path d="M72.3651 74.0446C70.1623 74.0446 68.3701 72.2526 68.3701 70.0497C68.3701 67.8469 70.1622 66.0547 72.3651 66.0547C74.5678 66.0547 76.3601 67.8467 76.3601 70.0497C76.3599 72.2526 74.5678 74.0446 72.3651 74.0446Z" fill="#3C5959"/>
</svg>
