<svg width="90" height="87" viewBox="0 0 90 87" fill="none" xmlns="http://www.w3.org/2000/svg">
<path d="M70.5811 8.43599V77.7517C70.5811 82.3915 66.785 86.1877 62.1452 86.1877H8.43599C3.7962 86.1877 0 82.3915 0 77.7517V8.43599C0 3.7962 3.7962 0 8.43599 0H62.1452C66.785 0 70.5811 3.7962 70.5811 8.43599Z" fill="#E9E7FC"/>
<path d="M35.2909 10.4037V31.4937C35.2909 33.4621 33.7443 35.0087 31.7759 35.0087H10.6859C8.7175 35.0087 7.1709 33.4621 7.1709 31.4937V10.4037C7.1709 8.43527 8.7175 6.88867 10.6859 6.88867H31.7759C33.7443 6.88867 35.2909 8.43527 35.2909 10.4037Z" fill="#57B3FE"/>
<path d="M27.2759 17.0127V25.4487C27.2759 29.2449 24.1827 32.3381 20.3865 32.3381C16.5903 32.3381 13.4971 29.2449 13.4971 25.4487V17.0127H27.2759ZM29.5255 23.1991C29.5255 24.4645 28.5413 25.4487 27.2759 25.4487V20.9495C28.5413 20.9495 29.5255 21.9337 29.5255 23.1991Z" fill="#FABDAB"/>
<path d="M27.8388 20.9492V25.3078H27.417V20.8086C27.5576 20.9492 27.6982 20.9492 27.8388 20.9492Z" fill="#EA8B82"/>
<path d="M11.3887 23.1988C11.3887 24.4642 12.3729 25.4484 13.6383 25.4484V20.9492C12.3729 20.9492 11.3887 21.9334 11.3887 23.1988Z" fill="#FABDAB"/>
<path d="M13.0752 20.9492V25.3078H13.497V20.8086C13.497 20.9492 13.2158 20.9492 13.0752 20.9492Z" fill="#EA8B82"/>
<path d="M18.4184 27.9795C18.1372 27.9795 17.9966 28.2607 18.1372 28.4013C18.559 29.2449 19.4026 29.8073 20.3868 29.8073C21.371 29.8073 22.2146 29.2449 22.6364 28.4013C22.777 28.1201 22.6364 27.9795 22.3552 27.9795H18.4184Z" fill="white"/>
<path d="M21.2302 25.7295C21.0896 26.1513 20.8084 26.4325 20.3866 26.4325C19.9648 26.4325 19.543 26.1513 19.543 25.7295H21.2302Z" fill="#EA8B82"/>
<path d="M17.9966 23.3404C17.9966 23.7622 17.7154 24.0434 17.2936 24.0434C16.8718 24.0434 16.5906 23.7622 16.5906 23.3404C16.5906 22.9186 16.8718 22.6374 17.2936 22.6374C17.5748 22.4968 17.9966 22.9186 17.9966 23.3404ZM24.3236 23.3404C24.3236 23.7622 24.0424 24.0434 23.6206 24.0434C23.1988 24.0434 22.9176 23.7622 22.9176 23.3404C22.9176 22.9186 23.1988 22.6374 23.6206 22.6374C24.0424 22.4968 24.3236 22.9186 24.3236 23.3404ZM18.8402 21.5126C18.8402 21.6532 18.6996 21.7938 18.559 21.7938H15.747C15.6064 21.7938 15.4658 21.6532 15.4658 21.5126C15.4658 21.372 15.6064 21.2314 15.747 21.2314H18.559C18.6996 21.2314 18.8402 21.372 18.8402 21.5126ZM25.3078 21.5126C25.3078 21.6532 25.1672 21.7938 25.0266 21.7938H22.2146C22.074 21.7938 21.9334 21.6532 21.9334 21.5126C21.9334 21.372 22.074 21.2314 22.2146 21.2314H25.0266C25.1672 21.2314 25.3078 21.372 25.3078 21.5126Z" fill="#1D2943"/>
<path d="M13.6378 24.0425C13.6378 24.0425 14.2002 18.2779 16.731 17.0125C16.731 17.0125 20.1054 21.2305 23.3392 17.0125C23.3392 17.0125 24.3234 18.9809 26.4324 18.4185C26.4324 18.4185 26.8542 22.9177 27.4166 24.0425C28.8226 22.6365 29.2444 20.2463 29.1038 17.0125C30.3692 17.0125 31.2128 16.4501 31.2128 15.0441C31.2128 13.4975 30.088 13.0757 28.5414 13.0757C31.6346 10.9667 28.682 8.15468 25.167 10.1231C20.949 9.84187 17.7152 10.4043 16.1686 12.5133C10.6852 11.2479 11.107 18.2779 13.6378 24.0425Z" fill="#1D2943"/>
<path d="M63.41 16.3101H58.489C57.786 16.3101 57.3642 15.7477 57.3642 15.1853C57.3642 14.6229 57.9266 14.0605 58.489 14.0605H63.41C64.113 14.0605 64.5348 14.6229 64.5348 15.1853C64.5348 15.7477 63.9724 16.3101 63.41 16.3101ZM53.2868 16.3101H41.617C40.914 16.3101 40.4922 15.7477 40.4922 15.1853C40.4922 14.6229 41.0546 14.0605 41.617 14.0605H53.2868C53.9898 14.0605 54.4116 14.6229 54.4116 15.1853C54.4116 15.7477 53.8492 16.3101 53.2868 16.3101ZM63.6912 22.7777H41.617C40.914 22.7777 40.4922 22.2153 40.4922 21.6529C40.4922 21.0905 41.0546 20.5281 41.617 20.5281H63.6912C64.3942 20.5281 64.816 21.0905 64.816 21.6529C64.816 22.2153 64.3942 22.7777 63.6912 22.7777ZM41.617 27.6987H46.538C47.241 27.6987 47.6628 28.2611 47.6628 28.8235C47.6628 29.3859 47.1004 29.9483 46.538 29.9483H41.617C40.914 29.9483 40.4922 29.3859 40.4922 28.8235C40.4922 28.2611 40.914 27.6987 41.617 27.6987ZM51.7402 27.6987H63.41C64.113 27.6987 64.5348 28.2611 64.5348 28.8235C64.5348 29.3859 63.9724 29.9483 63.41 29.9483H51.7402C51.0372 29.9483 50.6154 29.3859 50.6154 28.8235C50.6154 28.2611 51.1778 27.6987 51.7402 27.6987ZM35.1494 77.0493V42.3211C35.1494 41.6181 35.7118 41.1963 36.2742 41.1963C36.8366 41.1963 37.399 41.7587 37.399 42.3211V77.0493C37.399 77.7523 36.8366 78.1741 36.2742 78.1741C35.7118 78.1741 35.1494 77.6117 35.1494 77.0493ZM65.2378 70.1599V73.9561C65.2378 74.7997 64.5348 75.5027 63.6912 75.5027H43.726C42.8824 75.5027 42.1794 74.7997 42.1794 73.9561V70.1599C42.1794 69.3163 42.8824 68.6133 43.726 68.6133H63.5506C64.5348 68.4727 65.2378 69.1757 65.2378 70.1599Z" fill="#CCCFF2"/>
<path d="M55.6773 71.9868C55.6773 73.9552 54.1307 75.5018 52.1623 75.5018H43.7263C42.8827 75.5018 42.1797 74.7988 42.1797 73.9552V70.159C42.1797 69.3154 42.8827 68.6124 43.7263 68.6124H52.1623C54.1307 68.4718 55.6773 70.0184 55.6773 71.9868Z" fill="#57B3FE"/>
<path d="M65.2381 58.0681V61.8643C65.2381 62.7079 64.5351 63.4109 63.6915 63.4109H43.7263C42.8827 63.4109 42.1797 62.7079 42.1797 61.8643V58.0681C42.1797 57.2245 42.8827 56.5215 43.7263 56.5215H63.5509C64.5351 56.5215 65.2381 57.2245 65.2381 58.0681Z" fill="#CCCFF2"/>
<path d="M60.3171 60.0356C60.3171 62.004 58.7705 63.5506 56.8021 63.5506H43.8669C43.0233 63.5506 42.3203 62.8476 42.3203 62.004V58.2078C42.3203 57.3642 43.0233 56.6612 43.8669 56.6612H56.8021C58.7705 56.5206 60.3171 58.0672 60.3171 60.0356Z" fill="#FFD06C"/>
<path d="M53.9905 58.0683C52.4439 58.3495 50.7567 58.4901 49.2101 58.4901C48.3665 58.4901 47.6635 58.4901 46.8199 58.3495C45.9763 58.3495 45.2733 58.2089 44.4297 58.0683C45.2733 57.9277 45.9763 57.7871 46.8199 57.7871C47.6635 57.7871 48.3665 57.6465 49.2101 57.6465C50.7567 57.6465 52.3033 57.7871 53.9905 58.0683Z" fill="white"/>
<path d="M65.2381 45.4138V49.21C65.2381 50.0536 64.5351 50.7566 63.6915 50.7566H43.7263C42.8827 50.7566 42.1797 50.0536 42.1797 49.21V45.4138C42.1797 44.5702 42.8827 43.8672 43.7263 43.8672H63.5509C64.5351 43.8672 65.2381 44.5702 65.2381 45.4138Z" fill="#CCCFF2"/>
<path d="M53.4277 47.3823C53.4277 49.3507 51.8811 50.8973 49.9127 50.8973H43.7263C42.8827 50.8973 42.1797 50.1943 42.1797 49.3507V45.5545C42.1797 44.7109 42.8827 44.0079 43.7263 44.0079H49.9127C51.8811 43.8673 53.4277 45.4139 53.4277 47.3823Z" fill="#F34B58"/>
<path d="M51.0378 45.414C49.7724 45.6952 48.6476 45.6952 47.3822 45.6952H45.5544C44.992 45.6952 44.289 45.5546 43.7266 45.414C44.289 45.2734 44.992 45.2734 45.5544 45.1328H47.3822C48.6476 45.1328 49.7724 45.2734 51.0378 45.414Z" fill="white"/>
<path d="M8.5769 47.8043H13.3573C13.9197 47.8043 14.4821 47.3825 14.4821 46.6795C14.4821 46.1171 14.0603 45.5547 13.3573 45.5547H8.5769C8.0145 45.5547 7.4521 45.9765 7.4521 46.6795C7.4521 47.3825 7.8739 47.8043 8.5769 47.8043ZM18.1377 47.8043H29.2451C29.8075 47.8043 30.3699 47.3825 30.3699 46.6795C30.3699 46.1171 29.9481 45.5547 29.2451 45.5547H18.1377C17.5753 45.5547 17.0129 45.9765 17.0129 46.6795C17.1535 47.3825 17.5753 47.8043 18.1377 47.8043ZM8.2957 53.9907H29.3857C29.9481 53.9907 30.5105 53.5689 30.5105 52.8659C30.5105 52.3035 30.0887 51.7411 29.3857 51.7411H8.2957C7.7333 51.7411 7.1709 52.1629 7.1709 52.8659C7.1709 53.5689 7.5927 53.9907 8.2957 53.9907ZM29.2451 58.6305H20.2467C19.6843 58.6305 19.1219 59.0523 19.1219 59.7553C19.1219 60.3177 19.5437 60.8801 20.2467 60.8801H29.2451C29.8075 60.8801 30.3699 60.4583 30.3699 59.7553C30.3699 59.1929 29.9481 58.6305 29.2451 58.6305ZM15.3257 58.6305H8.5769C8.0145 58.6305 7.4521 59.0523 7.4521 59.7553C7.4521 60.3177 7.8739 60.8801 8.5769 60.8801H15.3257C15.8881 60.8801 16.4505 60.4583 16.4505 59.7553C16.4505 59.1929 15.8881 58.6305 15.3257 58.6305ZM8.2957 67.0665H29.3857C29.9481 67.0665 30.5105 66.6447 30.5105 65.9417C30.5105 65.3793 30.0887 64.8169 29.3857 64.8169H8.2957C7.7333 64.8169 7.1709 65.2387 7.1709 65.9417C7.1709 66.6447 7.5927 67.0665 8.2957 67.0665Z" fill="#CCCFF2"/>
<path d="M29.2451 73.6744H24.4647C23.9023 73.6744 23.3399 73.2526 23.3399 72.5496C23.3399 71.9872 23.7617 71.4248 24.4647 71.4248H29.2451C29.8075 71.4248 30.3699 71.8466 30.3699 72.5496C30.3699 73.2526 29.9481 73.6744 29.2451 73.6744ZM19.6843 73.6744H8.57695C8.01455 73.6744 7.45215 73.2526 7.45215 72.5496C7.45215 71.9872 7.87395 71.4248 8.57695 71.4248H19.6843C20.2467 71.4248 20.8091 71.8466 20.8091 72.5496C20.6685 73.2526 20.2467 73.6744 19.6843 73.6744Z" fill="#423D9B"/>
<path d="M60.8793 3.37485C56.3801 4.07785 51.8809 4.21845 47.3817 4.21845C43.1637 4.21845 38.2427 4.07785 33.8841 3.37485C38.1021 2.67185 43.1637 2.53125 47.3817 2.53125C51.8809 2.67185 56.3801 2.81245 60.8793 3.37485ZM11.5287 84.0792C11.1069 83.9386 8.71669 84.501 5.7641 81.9702C2.9521 79.7206 2.8115 77.0492 2.6709 76.9086C3.6551 78.0334 4.7799 79.58 6.6077 80.986C8.15429 82.2514 9.84149 83.2356 11.5287 84.0792Z" fill="white"/>
<path d="M84.6418 46.5391L87.4538 70.0192C88.0162 74.9402 86.329 77.7522 85.0636 83.095L82.9546 83.3762C80.4238 78.4552 78.1742 76.065 77.6118 71.144L74.7998 47.6639L84.6418 46.5391Z" fill="#FFD06C"/>
<path d="M78.3135 74.3777C79.1571 76.7679 80.0007 77.7521 82.9533 83.3761L85.0623 83.0949C86.7495 77.0491 87.3119 75.9243 87.4525 73.2529L78.3135 74.3777Z" fill="#FEBC1F"/>
<path d="M85.0631 83.0938L85.3443 85.0621C85.4849 86.0463 84.3601 86.6087 83.5165 86.0463C83.2353 85.9057 83.0947 85.6245 83.0947 85.3433L82.9541 83.3749L85.0631 83.0938Z" fill="#1D2943"/>
<path d="M81.6886 16.7313L85.2036 46.5384C85.2036 46.9602 84.9224 47.5226 84.36 47.5226L75.0804 48.6474C74.6586 48.6474 74.0962 48.3662 74.0962 47.8038L70.5812 17.9967C70.1594 14.9035 72.409 12.2321 75.3616 11.8103C78.4548 11.5291 81.2668 13.6381 81.6886 16.7313Z" fill="#F34B58"/>
<path d="M82.1523 20.4156L84.3865 20.1484L85.7587 31.5961L83.5232 31.8632L82.1523 20.4156Z" fill="#497BFE"/>
<path d="M87.4535 19.4025L89.9843 40.2113C90.1249 41.4767 89.2813 42.6015 88.0159 42.7421C87.7347 42.7421 87.5941 42.7421 87.3129 42.6015C87.1723 42.4609 87.0317 42.1797 87.0317 42.0391L84.2197 18.5589C84.2197 17.9965 84.5009 17.5747 85.0633 17.5747C86.1881 17.2935 87.3129 18.1371 87.4535 19.4025Z" fill="#57B3FE"/>
<path d="M80.2829 21.6523C81.1265 24.8861 81.6889 28.1199 82.1107 31.2131C82.2513 32.9003 82.3919 34.4469 82.5325 36.1341C82.6731 37.8213 82.6731 39.3679 82.6731 41.0551C82.2513 39.5085 81.9701 37.8213 81.6889 36.2747C81.4077 34.7281 81.1265 33.0409 80.9859 31.4943C80.4235 28.1199 80.1423 24.8861 80.2829 21.6523Z" fill="white"/>
</svg>
