<svg width="20" height="20" viewBox="0 0 20 20" fill="none" xmlns="http://www.w3.org/2000/svg">
<path fill-rule="evenodd" clip-rule="evenodd" d="M0.000126811 15.692H19.1082V18.3236C19.1082 18.8239 18.6999 19.2324 18.1996 19.2324H0.908869C0.408421 19.2324 0 18.8242 0 18.3236V15.692H0.000126811ZM0.908869 1.61133H18.1993C18.6998 1.61133 19.1079 2.01962 19.1079 2.51994V5.0843H0.000380313V2.51994C0.000380313 2.0195 0.408421 1.61133 0.908869 1.61133Z" fill="#E35454"/>
<path fill-rule="evenodd" clip-rule="evenodd" d="M19.1079 15.6915V4.86914H0V15.6915C0 16.192 0.408294 16.6003 0.908742 16.6003H18.1992C18.6995 16.6003 19.1078 16.1919 19.1078 15.6915H19.1079Z" fill="#E0E4F0"/>
<path d="M3.14043 3.65196C3.19736 3.65196 3.25197 3.62934 3.29222 3.58908C3.33248 3.54882 3.3551 3.49422 3.3551 3.43729C3.3551 3.38035 3.33248 3.32575 3.29222 3.28549C3.25197 3.24524 3.19736 3.22262 3.14043 3.22262C2.95699 3.22286 2.7753 3.18684 2.60582 3.11664C2.43633 3.04644 2.28239 2.94345 2.15284 2.81357C1.90008 2.56081 1.74379 2.21171 1.74379 1.82598C1.74379 1.44025 1.90008 1.09115 2.15284 0.838391C2.4056 0.585631 2.7547 0.429336 3.1403 0.429336C3.52591 0.429336 3.87526 0.585631 4.12802 0.838391C4.25788 0.967927 4.36087 1.12185 4.43107 1.29131C4.50127 1.46077 4.53729 1.64243 4.53707 1.82585C4.53707 1.88278 4.55969 1.93739 4.59995 1.97764C4.64021 2.0179 4.69481 2.04052 4.75174 2.04052C4.80867 2.04052 4.86328 2.0179 4.90353 1.97764C4.94379 1.93739 4.96641 1.88278 4.96641 1.82585C4.96669 1.58602 4.91958 1.34851 4.82778 1.12695C4.73598 0.905385 4.6013 0.704148 4.43148 0.5348C4.10114 0.204464 3.64456 0 3.14043 0C2.63631 0 2.17972 0.204464 1.84925 0.534927C1.51892 0.865264 1.31445 1.32173 1.31445 1.82598C1.31445 2.33023 1.51892 2.78669 1.84938 3.11716C2.01874 3.28695 2.21998 3.4216 2.44154 3.51338C2.6631 3.60516 2.90061 3.65225 3.14043 3.65196ZM15.9677 3.65196C16.0246 3.65196 16.0792 3.62934 16.1195 3.58908C16.1597 3.54882 16.1823 3.49422 16.1823 3.43729C16.1823 3.38035 16.1597 3.32575 16.1195 3.28549C16.0792 3.24524 16.0246 3.22262 15.9677 3.22262C15.7842 3.22286 15.6025 3.18684 15.433 3.11664C15.2636 3.04644 15.1096 2.94345 14.9801 2.81357C14.7273 2.56081 14.571 2.21171 14.571 1.82598C14.571 1.44025 14.7273 1.09115 14.9801 0.838391C15.2328 0.585631 15.5819 0.429336 15.9675 0.429336C16.3531 0.429336 16.7025 0.585631 16.9552 0.838391C17.0851 0.967927 17.1881 1.12185 17.2583 1.29131C17.3285 1.46077 17.3645 1.64243 17.3643 1.82585C17.3643 1.88277 17.3869 1.93735 17.4272 1.9776C17.4674 2.01785 17.522 2.04046 17.5789 2.04046C17.6358 2.04046 17.6904 2.01785 17.7306 1.9776C17.7709 1.93735 17.7935 1.88277 17.7935 1.82585C17.7938 1.58603 17.7467 1.34852 17.6549 1.12696C17.5632 0.9054 17.4285 0.704159 17.2587 0.5348C16.9284 0.204464 16.4718 0 15.9677 0C15.4635 0 15.0069 0.204464 14.6765 0.534927C14.3461 0.865264 14.1417 1.32173 14.1417 1.82598C14.1417 2.33023 14.3461 2.78669 14.6766 3.11716C14.846 3.28695 15.0472 3.4216 15.2688 3.51338C15.4903 3.60516 15.7278 3.65225 15.9677 3.65196ZM11.6919 3.65196C11.7488 3.65196 11.8034 3.62934 11.8437 3.58908C11.884 3.54882 11.9066 3.49422 11.9066 3.43729C11.9066 3.38035 11.884 3.32575 11.8437 3.28549C11.8034 3.24524 11.7488 3.22262 11.6919 3.22262C11.5085 3.22286 11.3268 3.18684 11.1573 3.11664C10.9878 3.04644 10.8339 2.94345 10.7043 2.81357C10.4516 2.56081 10.2953 2.21171 10.2953 1.82598C10.2953 1.44025 10.4516 1.09115 10.7043 0.838391C10.957 0.585631 11.3062 0.429336 11.6918 0.429336C12.0774 0.429336 12.4267 0.585631 12.6795 0.838391C12.8094 0.967927 12.9124 1.12185 12.9826 1.29131C13.0528 1.46077 13.0888 1.64243 13.0886 1.82585C13.0886 1.88277 13.1112 1.93735 13.1514 1.9776C13.1917 2.01785 13.2462 2.04046 13.3032 2.04046C13.3601 2.04046 13.4147 2.01785 13.4549 1.9776C13.4952 1.93735 13.5178 1.88277 13.5178 1.82585C13.5181 1.58603 13.471 1.34852 13.3792 1.12696C13.2874 0.9054 13.1528 0.704159 12.983 0.5348C12.6526 0.204464 12.196 0 11.6919 0C11.1878 0 10.7311 0.204464 10.4007 0.534927C10.0704 0.865264 9.86594 1.32173 9.86594 1.82598C9.86594 2.33023 10.0704 2.78669 10.4009 3.11716C10.5702 3.28695 10.7715 3.4216 10.993 3.51338C11.2146 3.60516 11.4521 3.65225 11.6919 3.65196ZM7.41617 3.65196C7.47311 3.65196 7.52771 3.62934 7.56797 3.58908C7.60822 3.54882 7.63084 3.49422 7.63084 3.43729C7.63084 3.38035 7.60822 3.32575 7.56797 3.28549C7.52771 3.24524 7.47311 3.22262 7.41617 3.22262C7.23273 3.22286 7.05104 3.18684 6.88156 3.11664C6.71208 3.04644 6.55814 2.94345 6.42859 2.81357C6.17583 2.56081 6.01953 2.21171 6.01953 1.82598C6.01953 1.44025 6.17583 1.09115 6.42859 0.838391C6.68122 0.585631 7.03044 0.429336 7.41605 0.429336C7.80165 0.429336 8.151 0.585631 8.40363 0.838391C8.5335 0.967927 8.63649 1.12185 8.70669 1.29131C8.77689 1.46077 8.81291 1.64243 8.81269 1.82585C8.81269 1.88278 8.8353 1.93739 8.87556 1.97764C8.91582 2.0179 8.97042 2.04052 9.02736 2.04052C9.08429 2.04052 9.13889 2.0179 9.17915 1.97764C9.21941 1.93739 9.24202 1.88278 9.24202 1.82585C9.24232 1.58603 9.19523 1.34852 9.10345 1.12696C9.01167 0.9054 8.87702 0.704159 8.70722 0.5348C8.37676 0.204464 7.9203 0 7.41617 0C6.91205 0 6.45533 0.204464 6.12499 0.534927C5.79453 0.865264 5.5902 1.32173 5.5902 1.82598C5.5902 2.33023 5.79453 2.78669 6.12512 3.11716C6.29448 3.28695 6.49572 3.4216 6.71728 3.51338C6.93884 3.60516 7.17636 3.65225 7.41617 3.65196Z" fill="#FFCE00"/>
<path d="M3.35499 2.83967C3.35499 2.78275 3.33238 2.72817 3.29213 2.68792C3.25189 2.64767 3.1973 2.62506 3.14039 2.62506C3.08347 2.62506 3.02888 2.64767 2.98864 2.68792C2.94839 2.72817 2.92578 2.78275 2.92578 2.83967V4.03463C2.92578 4.09155 2.94839 4.14614 2.98864 4.18638C3.02888 4.22663 3.08347 4.24924 3.14039 4.24924C3.1973 4.24924 3.25189 4.22663 3.29213 4.18638C3.33238 4.14614 3.35499 4.09155 3.35499 4.03463V2.83967ZM7.63073 2.83967C7.63073 2.78275 7.60812 2.72817 7.56788 2.68792C7.52763 2.64767 7.47304 2.62506 7.41613 2.62506C7.35921 2.62506 7.30463 2.64767 7.26438 2.68792C7.22413 2.72817 7.20152 2.78275 7.20152 2.83967V4.03463C7.20152 4.09155 7.22413 4.14614 7.26438 4.18638C7.30463 4.22663 7.35921 4.24924 7.41613 4.24924C7.47304 4.24924 7.52763 4.22663 7.56788 4.18638C7.60812 4.14614 7.63073 4.09155 7.63073 4.03463V2.83967ZM11.9066 2.83967C11.9066 2.78273 11.884 2.72813 11.8437 2.68787C11.8035 2.64762 11.7489 2.625 11.6919 2.625C11.635 2.625 11.5804 2.64762 11.5401 2.68787C11.4999 2.72813 11.4773 2.78273 11.4773 2.83967V4.03463C11.4773 4.09157 11.4999 4.14617 11.5401 4.18643C11.5804 4.22669 11.635 4.2493 11.6919 4.2493C11.7489 4.2493 11.8035 4.22669 11.8437 4.18643C11.884 4.14617 11.9066 4.09157 11.9066 4.03463V2.83967ZM16.1823 2.83967C16.1823 2.78273 16.1597 2.72813 16.1195 2.68787C16.0792 2.64762 16.0246 2.625 15.9677 2.625C15.9107 2.625 15.8561 2.64762 15.8159 2.68787C15.7756 2.72813 15.753 2.78273 15.753 2.83967V4.03463C15.753 4.09157 15.7756 4.14617 15.8159 4.18643C15.8561 4.22669 15.9107 4.2493 15.9677 4.2493C16.0246 4.2493 16.0792 4.22669 16.1195 4.18643C16.1597 4.14617 16.1823 4.09157 16.1823 4.03463V2.83967Z" fill="#FFCE00"/>
<path d="M15.7399 10.7362C15.7399 10.6792 15.7173 10.6246 15.677 10.5844C15.6368 10.5441 15.5821 10.5215 15.5252 10.5215C15.4683 10.5215 15.4137 10.5441 15.3734 10.5844C15.3332 10.6246 15.3105 10.6792 15.3105 10.7362V13.3735C15.3105 13.4305 15.3332 13.4851 15.3734 13.5253C15.4137 13.5656 15.4683 13.5882 15.5252 13.5882C15.5821 13.5882 15.6368 13.5656 15.677 13.5253C15.7173 13.4851 15.7399 13.4305 15.7399 13.3735V10.7362Z" fill="#888A98"/>
<path fill-rule="evenodd" clip-rule="evenodd" d="M4.31641 1.6123H5.13477V2.29415H4.31641V1.6123ZM8.62282 1.6123H9.44119V2.29415H8.62282V1.6123ZM12.9291 1.6123H13.7475V2.29415H12.9291V1.6123ZM17.2355 1.6123H18.0539V2.29415H17.2355V1.6123Z" fill="#E35454"/>
<path fill-rule="evenodd" clip-rule="evenodd" d="M5.28012 11.641H13.8284L16.7717 10.5128C16.8494 10.4841 16.9167 10.4325 16.9646 10.3648C17.0124 10.2971 17.0387 10.2165 17.0399 10.1336C17.0431 10.0507 17.0212 9.96885 16.9769 9.89872C16.9327 9.82858 16.8683 9.77346 16.7922 9.74062L9.79253 6.62181C9.63535 6.55184 9.47322 6.55184 9.31616 6.62181L2.31648 9.74062C2.24034 9.77346 2.17592 9.82857 2.13169 9.8987C2.08746 9.96884 2.06549 10.0507 2.06866 10.1336C2.06986 10.2165 2.09613 10.2971 2.144 10.3648C2.19188 10.4325 2.25912 10.4841 2.33688 10.5128L5.28012 11.641Z" fill="#5C5E71"/>
<path fill-rule="evenodd" clip-rule="evenodd" d="M13.8285 13.6339H5.28027V10.5147C5.28027 8.82452 13.8285 8.82452 13.8285 10.5147V13.6339Z" fill="#888A98"/>
<path fill-rule="evenodd" clip-rule="evenodd" d="M13.8285 13.6339C13.8285 15.3241 5.28027 15.3241 5.28027 13.6339C5.28027 11.9437 13.8285 11.9437 13.8285 13.6339Z" fill="#6A6C76"/>
<path fill-rule="evenodd" clip-rule="evenodd" d="M15.9555 13.3926L16.2247 14.2761C16.2419 14.3317 16.2458 14.3906 16.236 14.4479C16.2262 14.5053 16.203 14.5596 16.1684 14.6064C16.1338 14.6531 16.0886 14.6911 16.0366 14.7172C15.9845 14.7433 15.9271 14.7567 15.8689 14.7565H15.1839C15.1257 14.7567 15.0682 14.7433 15.0162 14.7172C14.9642 14.6911 14.919 14.6531 14.8844 14.6064C14.8497 14.5596 14.8266 14.5053 14.8168 14.4479C14.807 14.3906 14.8109 14.3317 14.8281 14.2761L15.0974 13.3926C15.2077 13.0305 15.8452 13.0307 15.9555 13.3926Z" fill="#5C5E71"/>
</svg>
