<svg width="58" height="58" viewBox="0 0 58 58" fill="none" xmlns="http://www.w3.org/2000/svg">
<path d="M15.5354 23.582C13.7734 24.4776 11.8147 24.916 9.83901 24.857C7.86336 24.916 5.90457 24.4776 4.14258 23.582V46.6847C4.65836 46.6329 5.17829 46.607 5.69615 46.607C7.67179 46.548 9.63059 46.9864 11.3926 47.882V40.3927C11.3926 38.7356 13.0332 37.3726 15.5354 36.7004V23.582Z" fill="#536CB3"/>
<path d="M5.69643 52.8216C8.84248 52.8216 11.3929 51.8942 11.3929 50.7501C11.3929 49.6061 8.84248 48.6787 5.69643 48.6787C2.55038 48.6787 0 49.6061 0 50.7501C0 51.8942 2.55038 52.8216 5.69643 52.8216Z" fill="#536CB3"/>
<path d="M0 53.6177V55.9284C0 56.757 2.27132 57.9998 5.69643 57.9998C9.12154 57.9998 11.3929 56.757 11.3929 55.9284V53.6177C9.63087 54.5133 7.67207 54.9517 5.69643 54.8927C3.72079 54.9517 1.76199 54.5133 0 53.6177ZM30.5753 9.4559C31.3417 10.0307 32.2718 10.3445 33.2299 10.3497C32.3324 8.80845 31.622 7.16559 31.1139 5.45597C31.0401 5.19131 31.0745 4.90819 31.2095 4.66889C31.3445 4.42959 31.5691 4.25372 31.8337 4.17997C32.0984 4.10622 32.3815 4.14062 32.6208 4.27561C32.8601 4.4106 33.036 4.63513 33.1097 4.89979C33.6865 6.84565 34.5685 8.68763 35.7228 10.357H36.7875C37.944 8.68942 38.8259 6.84736 39.3996 4.90083C39.4732 4.63603 39.649 4.41132 39.8883 4.27613C40.1276 4.14094 40.4108 4.10635 40.6756 4.17997C40.9404 4.25359 41.1651 4.42938 41.3003 4.66867C41.4355 4.90797 41.4701 5.19117 41.3965 5.45597C40.8888 7.16411 40.1792 8.80559 39.2826 10.3456C40.2214 10.3312 41.1315 10.0197 41.8822 9.4559C44.3068 7.56054 45.1571 4.54661 45.4368 2.3509C45.4641 2.16683 45.4368 1.97878 45.3582 1.81012C45.2795 1.64145 45.1531 1.4996 44.9945 1.40218C44.8197 1.28818 44.6155 1.22748 44.4068 1.22748C44.198 1.22748 43.9938 1.28818 43.819 1.40218C43.094 1.8579 42.2509 2.0899 41.3944 2.07126C40.1946 2.08095 39.0371 1.62848 38.1619 0.807684C37.9085 0.55178 37.6068 0.348643 37.2744 0.210011C36.9419 0.0713784 36.5853 0 36.2251 0C35.865 0 35.5084 0.0713784 35.1759 0.210011C34.8435 0.348643 34.5418 0.55178 34.2884 0.807684C33.4132 1.62787 32.2563 2.08026 31.0569 2.07126C30.2048 2.09005 29.3659 1.85889 28.6437 1.40633C28.4672 1.29412 28.2624 1.23461 28.0532 1.2348C27.8441 1.23498 27.6393 1.29485 27.463 1.40736C27.3051 1.50455 27.1792 1.64597 27.1009 1.81407C27.0227 1.98218 26.9955 2.16956 27.0228 2.35297C27.3056 4.54868 28.1528 7.56054 30.5753 9.4559Z" fill="#536CB3"/>
<path d="M16.0539 8.28544C19.1999 8.28544 21.7503 7.35803 21.7503 6.21401C21.7503 5.06999 19.1999 4.14258 16.0539 4.14258C12.9078 4.14258 10.3574 5.06999 10.3574 6.21401C10.3574 7.35803 12.9078 8.28544 16.0539 8.28544Z" fill="#536CB3"/>
<path d="M9.83901 22.7854C12.9851 22.7854 15.5354 21.858 15.5354 20.714C15.5354 19.57 12.9851 18.6426 9.83901 18.6426C6.69296 18.6426 4.14258 19.57 4.14258 20.714C4.14258 21.858 6.69296 22.7854 9.83901 22.7854Z" fill="#536CB3"/>
<path d="M57.1893 33.38C53.8191 19.0758 44.8208 13.224 42.0834 11.7429C41.5792 11.988 41.0456 12.1672 40.4957 12.2763L42.419 14.0712C42.5185 14.164 42.5987 14.2755 42.6551 14.3994C42.7115 14.5232 42.743 14.6569 42.7477 14.7929C42.7524 14.9289 42.7303 15.0645 42.6826 15.1919C42.6349 15.3194 42.5626 15.4362 42.4697 15.5357C42.3769 15.6352 42.2654 15.7154 42.1416 15.7718C42.0177 15.8282 41.884 15.8597 41.748 15.8644C41.612 15.8691 41.4764 15.847 41.349 15.7993C41.2215 15.7516 41.1047 15.6793 41.0052 15.5864L37.6226 12.4285H37.2912V15.5357C37.2912 15.8104 37.1821 16.0738 36.9878 16.268C36.7936 16.4623 36.5301 16.5714 36.2555 16.5714C35.9808 16.5714 35.7173 16.4623 35.5231 16.268C35.3289 16.0738 35.2197 15.8104 35.2197 15.5357V12.4285H34.8883L31.5057 15.5864C31.3047 15.774 31.0375 15.8742 30.7628 15.8647C30.488 15.8553 30.2283 15.7371 30.0407 15.5362C29.853 15.3353 29.7529 15.068 29.7624 14.7933C29.7718 14.5185 29.89 14.2588 30.0909 14.0712L32.0039 12.2866C31.4502 12.179 30.9127 12.0004 30.4047 11.7553C27.8295 13.2063 25.5078 15.067 23.5307 17.2643L23.5069 17.2912C22.7506 18.1174 22.0391 18.9835 21.3754 19.8857C21.2104 20.1003 20.9679 20.2419 20.6999 20.28C20.4319 20.3181 20.1596 20.2497 19.9414 20.0895C19.7231 19.9294 19.5763 19.6901 19.5322 19.423C19.4882 19.1559 19.5505 18.8822 19.7058 18.6604C20.3465 17.7892 21.0288 16.9493 21.7503 16.1437V9.08008C19.9885 9.97637 18.0297 10.4155 16.0539 10.3571C14.0782 10.4161 12.1194 9.97772 10.3574 9.08215V16.5849C14.5241 16.7185 17.6074 18.4492 17.6074 20.7143V36.3277C18.1232 36.2759 18.6431 36.25 19.161 36.25C23.5887 36.25 26.9289 38.0314 26.9289 40.3928V51.7857H45.7685C46.8508 51.7857 52.4147 51.5785 55.6202 47.5393C58.1266 44.37 58.6549 39.6067 57.1893 33.38ZM41.4289 33.1428C41.4289 34.2416 40.9924 35.2953 40.2154 36.0723C39.4385 36.8492 38.3848 37.2857 37.286 37.2857V38.3214C37.286 38.5961 37.1769 38.8595 36.9826 39.0538C36.7884 39.248 36.525 39.3571 36.2503 39.3571C35.9756 39.3571 35.7122 39.248 35.5179 39.0538C35.3237 38.8595 35.2146 38.5961 35.2146 38.3214V37.2857C34.1158 37.2857 33.0621 36.8492 32.2851 36.0723C31.5082 35.2953 31.0717 34.2416 31.0717 33.1428C31.0717 32.8681 31.1808 32.6047 31.3751 32.4105C31.5693 32.2162 31.8327 32.1071 32.1074 32.1071C32.3821 32.1071 32.6456 32.2162 32.8398 32.4105C33.034 32.6047 33.1431 32.8681 33.1431 33.1428C33.1431 33.6922 33.3614 34.2191 33.7498 34.6076C34.1383 34.996 34.6652 35.2143 35.2146 35.2143V31.0714C34.1158 31.0714 33.0621 30.6349 32.2851 29.858C31.5082 29.081 31.0717 28.0273 31.0717 26.9285C31.0717 25.8298 31.5082 24.776 32.2851 23.9991C33.0621 23.2222 34.1158 22.7857 35.2146 22.7857V21.75C35.2146 21.4753 35.3237 21.2118 35.5179 21.0176C35.7122 20.8234 35.9756 20.7143 36.2503 20.7143C36.525 20.7143 36.7884 20.8234 36.9826 21.0176C37.1769 21.2118 37.286 21.4753 37.286 21.75V22.7857C38.3848 22.7857 39.4385 23.2222 40.2154 23.9991C40.9924 24.776 41.4289 25.8298 41.4289 26.9285C41.4289 27.2032 41.3197 27.4667 41.1255 27.6609C40.9313 27.8551 40.6678 27.9643 40.3931 27.9643C40.1185 27.9643 39.855 27.8551 39.6608 27.6609C39.4665 27.4667 39.3574 27.2032 39.3574 26.9285C39.3574 26.3792 39.1392 25.8523 38.7507 25.4638C38.3623 25.0754 37.8354 24.8571 37.286 24.8571V29C38.3848 29 39.4385 29.4365 40.2154 30.2134C40.9924 30.9903 41.4289 32.0441 41.4289 33.1428ZM53.9972 46.2477C51.3831 49.5475 46.6841 49.7143 45.7685 49.7143C45.4938 49.7143 45.2304 49.6051 45.0361 49.4109C44.8419 49.2167 44.7328 48.9532 44.7328 48.6785C44.7328 48.4039 44.8419 48.1404 45.0361 47.9462C45.2304 47.752 45.4938 47.6428 45.7685 47.6428C46.5173 47.6428 50.3515 47.5134 52.3722 44.9614C53.3277 43.6112 53.8373 41.9961 53.8295 40.3421C53.8636 39.7735 54.3452 39.3374 54.9139 39.3571C55.0497 39.3636 55.183 39.3968 55.3061 39.4549C55.4291 39.5129 55.5395 39.5946 55.631 39.6953C55.7224 39.796 55.7932 39.9137 55.8391 40.0417C55.8851 40.1698 55.9054 40.3056 55.8988 40.4415C55.89 42.5285 55.2248 44.5599 53.9972 46.2477Z" fill="#536CB3"/>
<path d="M33.1424 26.9289C33.1424 27.4782 33.3607 28.0051 33.7491 28.3936C34.1376 28.782 34.6645 29.0003 35.2139 29.0003V24.8574C34.6645 24.8574 34.1376 25.0757 33.7491 25.4641C33.3607 25.8526 33.1424 26.3795 33.1424 26.9289ZM37.2853 35.2146C37.8347 35.2146 38.3615 34.9963 38.75 34.6079C39.1385 34.2194 39.3567 33.6925 39.3567 33.1431C39.3567 32.5938 39.1385 32.0669 38.75 31.6784C38.3615 31.2899 37.8347 31.0717 37.2853 31.0717V35.2146ZM13.4639 43.261V53.8574C13.4639 54.686 15.7352 55.9289 19.1603 55.9289C22.5854 55.9289 24.8567 54.686 24.8567 53.8574V43.261C23.0947 44.1566 21.1359 44.595 19.1603 44.536C17.1847 44.595 15.2259 44.1566 13.4639 43.261Z" fill="#536CB3"/>
<path d="M19.1603 42.4641C22.3063 42.4641 24.8567 41.5367 24.8567 40.3927C24.8567 39.2487 22.3063 38.3213 19.1603 38.3213C16.0142 38.3213 13.4639 39.2487 13.4639 40.3927C13.4639 41.5367 16.0142 42.4641 19.1603 42.4641Z" fill="#536CB3"/>
<path d="M49.4033 7.24987C49.4033 8.94844 47.5598 10.3363 45.2605 10.357C44.8739 10.3578 44.4884 10.3161 44.1108 10.2327C44.0558 10.3022 43.9892 10.3618 43.9141 10.4088C44.0798 10.5124 44.2662 10.6263 44.463 10.7402C45.0948 11.1545 45.8301 11.662 46.638 12.2938C46.7208 12.3559 46.7933 12.4181 46.8762 12.4906C52.0341 12.8738 53.6705 15.0281 53.7223 15.0902C53.8184 15.2289 53.947 15.3419 54.0969 15.4195C54.2467 15.4972 54.4132 15.537 54.5819 15.5356C54.7856 15.538 54.9848 15.4764 55.1516 15.3595C55.3786 15.2077 55.5365 14.9723 55.5908 14.7046C55.6451 14.4369 55.5915 14.1586 55.4416 13.9302C55.3587 13.8059 53.9294 11.7552 49.7555 10.8127C50.282 10.3779 50.7083 9.83442 51.005 9.21944C51.3018 8.60447 51.462 7.93259 51.4748 7.24987C51.4057 6.1291 50.9852 5.05858 50.2732 4.19033C49.5611 3.32207 48.5936 2.70023 47.508 2.41309C47.5062 2.48255 47.4993 2.55179 47.4873 2.62023C47.4075 3.25201 47.2905 3.87759 47.1351 4.49487C47.7465 4.67258 48.29 5.03058 48.6947 5.5221C49.0994 6.01361 49.3463 6.61577 49.4033 7.24987Z" fill="#536CB3"/>
</svg>
