<svg width="58" height="50" viewBox="0 0 58 50" fill="none" xmlns="http://www.w3.org/2000/svg">
<path d="M49.6274 26.9616H45.1419C45.5991 28.2134 45.8489 29.5642 45.8489 30.9722V47.9247C45.8489 48.5118 45.7467 49.0752 45.5608 49.5993H52.9763C55.7464 49.5993 57.9999 47.3457 57.9999 44.5757V35.3341C58 30.7176 54.244 26.9616 49.6274 26.9616ZM12.1511 30.9723C12.1511 29.5642 12.4009 28.2135 12.8581 26.9617H8.37262C3.75595 26.9617 0 30.7177 0 35.3343V44.5759C0 47.3459 2.2535 49.5995 5.02357 49.5995H12.4392C12.2483 49.0618 12.1509 48.4954 12.1511 47.9249V30.9723ZM34.1272 22.5997H23.8728C19.2561 22.5997 15.5002 26.3557 15.5002 30.9723V47.9249C15.5002 48.8496 16.2499 49.5994 17.1747 49.5994H40.8253C41.7501 49.5994 42.4998 48.8497 42.4998 47.9249V30.9723C42.4998 26.3557 38.7439 22.5997 34.1272 22.5997ZM29 0.399414C23.4479 0.399414 18.9309 4.91639 18.9309 10.4686C18.9309 14.2347 21.0095 17.5238 24.0792 19.2507C25.5352 20.0697 27.2138 20.5378 29 20.5378C30.7862 20.5378 32.4648 20.0697 33.9208 19.2507C36.9906 17.5238 39.0691 14.2346 39.0691 10.4686C39.0691 4.9165 34.5521 0.399414 29 0.399414ZM11.3188 9.78465C7.16651 9.78465 3.78847 13.1627 3.78847 17.315C3.78847 21.4673 7.16651 24.8454 11.3188 24.8454C12.3392 24.8463 13.349 24.6386 14.2862 24.235C15.8615 23.5568 17.1604 22.3563 17.9641 20.8525C18.5464 19.7643 18.8504 18.5491 18.8492 17.315C18.8492 13.1628 15.4712 9.78465 11.3188 9.78465ZM46.6812 9.78465C42.5288 9.78465 39.1508 13.1627 39.1508 17.315C39.1496 18.5491 39.4536 19.7644 40.0359 20.8525C40.8396 22.3564 42.1385 23.5569 43.7138 24.235C44.651 24.6386 45.6608 24.8463 46.6812 24.8454C50.8335 24.8454 54.2115 21.4673 54.2115 17.315C54.2115 13.1627 50.8335 9.78465 46.6812 9.78465Z" fill="#536CB3"/>
</svg>
