<svg width="20" height="21" viewBox="0 0 20 21" fill="none" xmlns="http://www.w3.org/2000/svg">
<path d="M15.8333 10.4987C15.3725 10.4987 15 10.8721 15 11.332V17.9987C15 18.4579 14.6266 18.832 14.1667 18.832H2.5C2.03996 18.832 1.66672 18.4579 1.66672 17.9987V6.33203C1.66672 5.87289 2.03996 5.49875 2.5 5.49875H9.16672C9.62754 5.49875 10 5.12539 10 4.66547C10 4.20543 9.62754 3.83203 9.16672 3.83203H2.5C1.12168 3.83203 0 4.95371 0 6.33203V17.9987C0 19.3771 1.12168 20.4988 2.5 20.4988H14.1667C15.545 20.4988 16.6667 19.3771 16.6667 17.9987V11.332C16.6667 10.8713 16.2941 10.4987 15.8333 10.4987Z" fill="#536CB3"/>
<path d="M7.81295 9.74019C7.75504 9.79837 7.71537 9.8722 7.69881 9.95261L7.10967 12.8994C7.08221 13.036 7.12553 13.1768 7.22381 13.276C7.2626 13.3146 7.30862 13.3453 7.35925 13.3661C7.40988 13.387 7.46413 13.3977 7.51889 13.3976C7.54545 13.3976 7.57307 13.3951 7.60053 13.3894L10.5464 12.8002C10.628 12.7834 10.7022 12.7444 10.7597 12.6859L17.3531 6.09257L14.4072 3.14687L7.81295 9.74019ZM19.3896 1.1094C18.5773 0.296865 17.2555 0.296865 16.4438 1.1094L15.2905 2.26265L18.2364 5.20851L19.3896 4.05511C19.783 3.66265 19.9997 3.13925 19.9997 2.58261C19.9997 2.02597 19.783 1.50261 19.3896 1.1094Z" fill="#536CB3"/>
</svg>
