<svg width="30" height="30" viewBox="0 0 30 30" fill="none" xmlns="http://www.w3.org/2000/svg">
<circle cx="15" cy="15" r="15" fill="#536CB3"/>
<g clip-path="url(#clip0_1212_6409)">
<path d="M10.8248 10.515C10.9572 10.5895 11.8483 11.02 12.2788 11.2273C12.2805 11.3944 12.2842 11.6833 12.2898 11.6882C12.3373 12.102 12.4187 12.5617 12.4423 12.6915C12.4032 12.7132 12.202 12.8447 12.202 13.2539L12.2026 13.2607C12.2023 13.2714 12.202 13.2822 12.202 13.2934C12.2886 14.4307 12.7409 13.9405 12.8342 14.4387C12.9893 15.267 13.7227 15.8662 14.1792 16.0731C14.4431 16.1926 14.7146 16.2536 15 16.2595C15.2854 16.2536 15.5569 16.1926 15.8207 16.0731C16.2772 15.8662 17.0106 15.2669 17.1658 14.4387C17.2591 13.9405 17.7114 14.4307 17.798 13.2934C17.798 13.2822 17.7977 13.2714 17.7974 13.2607L17.798 13.2539C17.798 12.8447 17.5968 12.7132 17.5576 12.6915C17.5813 12.5617 17.6627 12.102 17.7101 11.6882C17.7158 11.6833 17.7195 11.3944 17.7212 11.2273C18.0296 11.0789 18.3376 10.9297 18.6452 10.7797V11.8792C18.5585 11.9304 18.4975 12.0207 18.4975 12.1285C18.4975 12.2239 18.5459 12.3047 18.6165 12.3581C18.6165 12.3581 18.491 13.0634 18.4504 13.2708C18.4099 13.4781 19.1659 13.4365 19.1319 13.2708C19.0979 13.1049 18.9659 12.3581 18.9659 12.3581C19.0365 12.3047 19.0849 12.2239 19.0849 12.1285C19.0849 12.0207 19.0242 11.9304 18.9375 11.8792V10.6361C19.0539 10.5784 19.1405 10.5345 19.1751 10.515C19.2688 10.4623 19.3192 10.3949 19.3086 10.3248C19.3214 10.2517 19.2686 10.1732 19.1268 10.1038C18.1151 9.60857 15.5358 8.34633 15.2807 8.22467C15.1695 8.17161 15.0779 8.14817 15 8.14258C14.9221 8.14817 14.8305 8.17161 14.7192 8.22467C14.4642 8.34633 11.8849 9.6086 10.8732 10.1038C10.7314 10.1732 10.6786 10.2517 10.6914 10.3248C10.6807 10.3949 10.7312 10.4623 10.8248 10.515ZM18.4338 17.6289C17.9578 17.4573 17.1293 16.9625 16.9873 16.8862C16.9494 16.864 16.9063 16.8523 16.8623 16.8523C16.8151 16.8523 16.7688 16.8658 16.7289 16.8911C16.689 16.9164 16.6572 16.9526 16.6371 16.9953C16.2446 17.6523 15.5171 19.5628 15.0094 19.5982C15.0063 19.598 15.0031 19.5973 15 19.597C14.9968 19.5973 14.9937 19.598 14.9906 19.5982C14.4829 19.5628 13.7553 17.6523 13.3629 16.9953C13.3428 16.9526 13.3109 16.9164 13.271 16.8911C13.2312 16.8658 13.1849 16.8523 13.1376 16.8523C13.0937 16.8523 13.0505 16.864 13.0126 16.8862C12.8707 16.9625 12.0422 17.4573 11.5662 17.6289C9.96856 18.2049 9.25 18.7924 9.25 19.193V21.8569H20.75V19.193C20.7499 18.7924 20.0314 18.2049 18.4338 17.6289Z" fill="white"/>
</g>
<defs>
<clipPath id="clip0_1212_6409">
<rect width="13.7143" height="13.7143" fill="white" transform="translate(8.14258 8.14258)"/>
</clipPath>
</defs>
</svg>
