<svg width="57" height="58" viewBox="0 0 57 58" fill="none" xmlns="http://www.w3.org/2000/svg">
<path d="M15.4663 12.5674V8.70079C15.4663 8.44442 15.3645 8.19855 15.1832 8.01727C15.0019 7.83599 14.7561 7.73415 14.4997 7.73415H0.966646C0.710276 7.73415 0.464406 7.83599 0.283124 8.01727C0.101843 8.19855 0 8.44442 0 8.70079L0 12.5674H15.4663ZM0 14.5007V46.4H15.4663V14.5007H0ZM11.5998 27.0671H3.86659C3.61022 27.0671 3.36435 26.9652 3.18306 26.784C3.00178 26.6027 2.89994 26.3568 2.89994 26.1004V18.3673C2.89994 18.1109 3.00178 17.865 3.18306 17.6837C3.36435 17.5025 3.61022 17.4006 3.86659 17.4006H11.5998C11.8561 17.4006 12.102 17.5025 12.2833 17.6837C12.4646 17.865 12.5664 18.1109 12.5664 18.3673V26.1004C12.5664 26.3568 12.4646 26.6027 12.2833 26.784C12.102 26.9652 11.8561 27.0671 11.5998 27.0671ZM0 52.1999V57.0331C0 57.2895 0.101843 57.5354 0.283124 57.7166C0.464406 57.8979 0.710276 57.9998 0.966646 57.9998H14.4997C14.7561 57.9998 15.0019 57.8979 15.1832 57.7166C15.3645 57.5354 15.4663 57.2895 15.4663 57.0331V52.1999H0ZM0 48.3333H15.4663V50.2666H0V48.3333ZM17.3996 48.3333H29.966V50.2666H17.3996V48.3333ZM29.966 3.86756V0.967623C29.966 0.711252 29.8642 0.465382 29.6829 0.284101C29.5016 0.102819 29.2558 0.000976563 28.9994 0.000976562H18.3663C18.1099 0.000976563 17.864 0.102819 17.6828 0.284101C17.5015 0.465382 17.3996 0.711252 17.3996 0.967623V3.86756H29.966ZM17.3996 10.6341H29.966V46.4H17.3996V10.6341ZM17.3996 52.1999V57.0331C17.3996 57.2895 17.5015 57.5354 17.6828 57.7166C17.864 57.8979 18.1099 57.9998 18.3663 57.9998H28.9994C29.2558 57.9998 29.5016 57.8979 29.6829 57.7166C29.8642 57.5354 29.966 57.2895 29.966 57.0331V52.1999H17.3996ZM17.3996 5.80086H29.966V8.70079H17.3996V5.80086ZM31.8763 20.0183L32.3934 22.004L48.7642 17.6384L48.2464 15.6528L31.8763 20.0183ZM39.9544 50.9851L56.3246 46.6194L55.2881 42.6458L38.9169 47.0113L39.9544 50.9851ZM54.8 40.7752L49.2527 19.509L32.8816 23.8745L38.4289 45.1407L54.8 40.7752Z" fill="#536CB3"/>
</svg>
