<svg width="40" height="30" viewBox="0 0 40 30" fill="none" xmlns="http://www.w3.org/2000/svg">
<path fill-rule="evenodd" clip-rule="evenodd" d="M40 4.09091C40 3.00545 39.5787 1.965 38.828 1.19864C38.4568 0.818493 38.016 0.51695 37.5307 0.311272C37.0455 0.105593 36.5253 -0.000182136 36 2.35422e-07H4C2.93867 2.35422e-07 1.92133 0.43091 1.172 1.19864C0.800304 1.57825 0.505462 2.0291 0.304355 2.5254C0.103247 3.02169 -0.000178088 3.55368 2.3019e-07 4.09091V25.9091C2.3019e-07 26.9945 0.421333 28.035 1.172 28.8014C1.54317 29.1815 1.98401 29.4831 2.46928 29.6887C2.95455 29.8944 3.47471 30.0002 4 30H36C37.0613 30 38.0787 29.5691 38.828 28.8014C39.1997 28.4218 39.4945 27.9709 39.6956 27.4746C39.8968 26.9783 40.0002 26.4463 40 25.9091V4.09091ZM37.3333 4.09091V25.9091C37.3339 26.0883 37.2997 26.2659 37.2329 26.4316C37.1661 26.5973 37.0679 26.7478 36.944 26.8745C36.8201 27.0013 36.6729 27.1017 36.5109 27.17C36.3489 27.2384 36.1752 27.2733 36 27.2727H4C3.82476 27.2733 3.65114 27.2384 3.48913 27.17C3.32713 27.1017 3.17993 27.0013 3.05601 26.8745C2.9321 26.7478 2.8339 26.5973 2.76709 26.4316C2.70027 26.2659 2.66614 26.0883 2.66667 25.9091V4.09091C2.66614 3.91168 2.70027 3.73412 2.76709 3.56843C2.8339 3.40274 2.9321 3.2522 3.05601 3.12547C3.17993 2.99874 3.32713 2.89831 3.48913 2.82997C3.65114 2.76164 3.82476 2.72673 4 2.72727H36C36.1752 2.72673 36.3489 2.76164 36.5109 2.82997C36.6729 2.89831 36.8201 2.99874 36.944 3.12547C37.0679 3.2522 37.1661 3.40274 37.2329 3.56843C37.2997 3.73412 37.3339 3.91168 37.3333 4.09091Z" fill="white"/>
<path fill-rule="evenodd" clip-rule="evenodd" d="M8.128 14.6573C6.8774 15.365 5.83495 16.4024 5.10902 17.6617C4.38308 18.9209 4.00014 20.3559 4 21.8177C4 22.1794 4.14048 22.5262 4.39052 22.782C4.64057 23.0377 4.97971 23.1814 5.33333 23.1814C5.68696 23.1814 6.02609 23.0377 6.27614 22.782C6.52619 22.5262 6.66667 22.1794 6.66667 21.8177C6.66667 18.8068 9.056 16.3632 12 16.3632C14.944 16.3632 17.3333 18.8068 17.3333 21.8177C17.3333 22.1794 17.4738 22.5262 17.7239 22.782C17.9739 23.0377 18.313 23.1814 18.6667 23.1814C19.0203 23.1814 19.3594 23.0377 19.6095 22.782C19.8595 22.5262 20 22.1794 20 21.8177C19.9999 20.3559 19.6169 18.9209 18.891 17.6617C18.165 16.4024 17.1226 15.365 15.872 14.6573C16.8114 13.6458 17.3346 12.3037 17.3333 10.9086C17.3333 7.89774 14.944 5.4541 12 5.4541C9.056 5.4541 6.66667 7.89774 6.66667 10.9086C6.66667 12.3609 7.22267 13.6796 8.128 14.6573ZM23.9987 21.8177L29.332 21.8218C29.6856 21.8222 30.0249 21.6789 30.2752 21.4234C30.5255 21.1679 30.6663 20.8212 30.6667 20.4596C30.667 20.0979 30.5269 19.7509 30.2771 19.4949C30.0273 19.2389 29.6883 19.0949 29.3347 19.0946L24.0013 19.0905C23.6477 19.0901 23.3084 19.2334 23.0581 19.4889C22.8078 19.7444 22.667 20.0911 22.6667 20.4527C22.6663 20.8144 22.8065 21.1614 23.0562 21.4174C23.306 21.6734 23.645 21.8174 23.9987 21.8177ZM24 16.3632L33.3333 16.3673C33.687 16.3673 34.0261 16.2236 34.2761 15.9679C34.5262 15.7121 34.6667 15.3653 34.6667 15.0036C34.6667 14.642 34.5262 14.2951 34.2761 14.0394C34.0261 13.7837 33.687 13.64 33.3333 13.64L24 13.6359C23.6567 13.6516 23.3325 13.8022 23.095 14.0562C22.8575 14.3102 22.725 14.6481 22.725 14.9996C22.725 15.351 22.8575 15.6889 23.095 15.9429C23.3325 16.197 23.6567 16.3475 24 16.3632ZM12 8.18137C12.3503 8.18146 12.6971 8.25211 13.0207 8.38929C13.3443 8.52646 13.6383 8.72748 13.8859 8.98086C14.1335 9.23423 14.3299 9.53501 14.4639 9.86602C14.5978 10.197 14.6668 10.5518 14.6667 10.91C14.6666 11.2683 14.5975 11.623 14.4634 11.9539C14.3292 12.2848 14.1327 12.5855 13.885 12.8388C13.6372 13.092 13.3431 13.2929 13.0195 13.4299C12.6958 13.5669 12.3489 13.6374 11.9987 13.6373C11.2912 13.6371 10.6129 13.3495 10.1128 12.8378C9.61268 12.3261 9.33182 11.6321 9.332 10.9086C9.33218 10.1851 9.61337 9.49135 10.1137 8.97989C10.6141 8.46843 11.2926 8.18119 12 8.18137ZM24 10.9086L33.3333 10.9127C33.687 10.9127 34.0261 10.7691 34.2761 10.5133C34.5262 10.2576 34.6667 9.91076 34.6667 9.5491C34.6667 9.18744 34.5262 8.8406 34.2761 8.58487C34.0261 8.32913 33.687 8.18547 33.3333 8.18547L24 8.18137C23.6567 8.19708 23.3325 8.34761 23.095 8.60162C22.8575 8.85563 22.725 9.19355 22.725 9.54501C22.725 9.89647 22.8575 10.2344 23.095 10.4884C23.3325 10.7424 23.6567 10.8929 24 10.9086Z" fill="#536CB3"/>
</svg>
