<svg width="29" height="30" viewBox="0 0 29 30" fill="none" xmlns="http://www.w3.org/2000/svg">
<path d="M29 15C29 22.4871 23.6973 28.6928 16.7656 29.8178V19.3359H20.1442L20.7871 15H16.7656V12.1863C16.7656 10.9998 17.3275 9.84375 19.1287 9.84375H20.957V6.15234C20.957 6.15234 19.2975 5.85938 17.711 5.85938C14.3992 5.85938 12.2344 7.93594 12.2344 11.6953V15H8.55273V19.3359H12.2344V29.8178C5.3027 28.6928 0 22.4871 0 15C0 6.71602 6.49215 0 14.5 0C22.5079 0 29 6.71602 29 15Z" fill="#1877F2"/>
<path d="M20.1442 19.3359L20.7871 15H16.7656V12.1863C16.7656 11 17.3274 9.84375 19.1286 9.84375H20.957V6.15234C20.957 6.15234 19.2977 5.85938 17.7112 5.85938C14.3991 5.85938 12.2344 7.93594 12.2344 11.6953V15H8.55273V19.3359H12.2344V29.8177C12.9726 29.9375 13.7292 30 14.5 30C15.2708 30 16.0274 29.9375 16.7656 29.8177V19.3359H20.1442Z" fill="white"/>
</svg>
