<svg width="32" height="32" viewBox="0 0 32 32" fill="none" xmlns="http://www.w3.org/2000/svg">
<path d="M11.325 14.2099L10.805 14.1149L11.06 13.4599C11.175 13.1549 11.105 12.8099 10.875 12.5799L9.92501 11.6299C9.81229 11.5167 9.66896 11.4389 9.51263 11.406C9.3563 11.3731 9.19377 11.3866 9.04501 11.4449L8.39001 11.6999L8.29501 11.1799C8.22501 10.7849 7.88501 10.5049 7.48501 10.5049H5.52501C5.12501 10.5049 4.78501 10.7899 4.71501 11.1799L4.62001 11.6999L3.96501 11.4449C3.81606 11.3879 3.65385 11.3751 3.49779 11.4079C3.34172 11.4407 3.19842 11.5178 3.08501 11.6299L2.13501 12.5799C2.02181 12.6926 1.94399 12.8359 1.91112 12.9923C1.87826 13.1486 1.89177 13.3111 1.95001 13.4599L2.20501 14.1149L1.68501 14.2099C1.29001 14.2799 1.01001 14.6199 1.01001 15.0199V16.9799C1.01001 17.3799 1.29501 17.7199 1.68501 17.7899L2.20501 17.8849L1.95001 18.5399C1.83501 18.8449 1.90501 19.1899 2.13501 19.4199L3.08501 20.3699C3.31501 20.5999 3.66001 20.6749 3.96501 20.5549L4.62001 20.2999L4.71501 20.8199C4.78501 21.2149 5.12501 21.4949 5.52501 21.4949H7.48501C7.88501 21.4949 8.22501 21.2099 8.29501 20.8199L8.39001 20.2999L9.04501 20.5549C9.35001 20.6699 9.69501 20.5999 9.92501 20.3699L10.875 19.4199C11.105 19.1899 11.18 18.8449 11.06 18.5399L10.805 17.8849L11.325 17.7899C11.72 17.7199 12 17.3799 12 16.9799V15.0199C12 14.6199 11.715 14.2799 11.325 14.2099ZM11 16.8349L10.415 16.9399C10.17 16.9849 9.96501 17.1299 9.84501 17.3499C9.72501 17.5649 9.70501 17.8199 9.79501 18.0499L10.085 18.7999L9.29501 19.5899L8.54501 19.2999C8.43175 19.2567 8.31039 19.2388 8.18948 19.2476C8.06857 19.2564 7.95106 19.2915 7.84522 19.3507C7.73939 19.4098 7.6478 19.4914 7.57693 19.5897C7.50605 19.6881 7.45761 19.8008 7.43501 19.9199L7.33001 20.5049H5.66501L5.56001 19.9199C5.51501 19.6749 5.37001 19.4699 5.15001 19.3499C4.93501 19.2299 4.68001 19.2099 4.45001 19.2999L3.70001 19.5899L2.91001 18.7999L3.20001 18.0499C3.24323 17.9366 3.26108 17.8153 3.2523 17.6944C3.24353 17.5734 3.20834 17.4559 3.14923 17.3501C3.09011 17.2443 3.0085 17.1527 2.91016 17.0818C2.81181 17.0109 2.69911 16.9625 2.58001 16.9399L1.99501 16.8349V15.1699L2.58001 15.0649C2.82501 15.0199 3.03001 14.8749 3.15001 14.6549C3.27001 14.4399 3.29001 14.1849 3.20001 13.9549L2.91001 13.2049L3.70001 12.4149L4.45001 12.7049C4.56327 12.7481 4.68463 12.7659 4.80554 12.7572C4.92645 12.7484 5.04396 12.7132 5.1498 12.6541C5.25563 12.595 5.34722 12.5134 5.41809 12.415C5.48897 12.3167 5.53741 12.204 5.56001 12.0849L5.66501 11.4999H7.33001L7.43501 12.0849C7.48001 12.3299 7.62501 12.5349 7.84501 12.6549C8.06001 12.7749 8.31501 12.7949 8.54501 12.7049L9.29501 12.4149L10.085 13.2049L9.79501 13.9549C9.75179 14.0681 9.73394 14.1895 9.74272 14.3104C9.75149 14.4313 9.78668 14.5488 9.84579 14.6547C9.90491 14.7605 9.98652 14.8521 10.0849 14.923C10.1832 14.9938 10.2959 15.0423 10.415 15.0649L11 15.1699V16.8349Z" fill="#536CB3"/>
<path d="M6.5 13C4.845 13 3.5 14.345 3.5 16C3.5 17.655 4.845 19 6.5 19C8.155 19 9.5 17.655 9.5 16C9.5 14.345 8.155 13 6.5 13ZM6.5 18C5.395 18 4.5 17.105 4.5 16C4.5 14.895 5.395 14 6.5 14C7.605 14 8.5 14.895 8.5 16C8.5 17.105 7.605 18 6.5 18ZM30.765 2.26501L28.075 0.575011C27.9956 0.525395 27.9037 0.499384 27.81 0.500011H23.5C23.225 0.500011 23 0.725011 23 1.00001V10C23 10.275 23.225 10.5 23.5 10.5H30.5C30.775 10.5 31 10.275 31 10V2.69001C31 2.52001 30.91 2.36001 30.765 2.26501ZM28 1.71001L29.26 2.50001H28V1.71001ZM24 9.50001V1.50001H27V3.00001C27 3.27501 27.225 3.50001 27.5 3.50001H30V9.50001H24ZM30.765 12.765L28.075 11.075C27.9956 11.0254 27.9037 10.9994 27.81 11H23.5C23.225 11 23 11.225 23 11.5V20.5C23 20.775 23.225 21 23.5 21H30.5C30.775 21 31 20.775 31 20.5V13.19C31 13.02 30.91 12.86 30.765 12.765ZM28 12.21L29.26 13H28V12.21ZM24 20V12H27V13.5C27 13.775 27.225 14 27.5 14H30V20H24ZM30.765 23.265L28.075 21.575C27.9956 21.5254 27.9037 21.4994 27.81 21.5H23.5C23.225 21.5 23 21.725 23 22V31C23 31.275 23.225 31.5 23.5 31.5H30.5C30.775 31.5 31 31.275 31 31V23.69C31 23.52 30.91 23.36 30.765 23.265ZM28 22.71L29.26 23.5H28V22.71ZM24 30.5V22.5H27V24C27 24.275 27.225 24.5 27.5 24.5H30V30.5H24Z" fill="#536CB3"/>
<path d="M29 4.5H26C25.725 4.5 25.5 4.725 25.5 5C25.5 5.275 25.725 5.5 26 5.5H29C29.275 5.5 29.5 5.275 29.5 5C29.5 4.725 29.275 4.5 29 4.5ZM29 6.5H25C24.725 6.5 24.5 6.725 24.5 7C24.5 7.275 24.725 7.5 25 7.5H29C29.275 7.5 29.5 7.275 29.5 7C29.5 6.725 29.275 6.5 29 6.5ZM25 3.5H26C26.275 3.5 26.5 3.275 26.5 3C26.5 2.725 26.275 2.5 26 2.5H25C24.725 2.5 24.5 2.725 24.5 3C24.5 3.275 24.725 3.5 25 3.5ZM29 14.5H25C24.725 14.5 24.5 14.725 24.5 15V17C24.5 17.275 24.725 17.5 25 17.5H29C29.275 17.5 29.5 17.275 29.5 17V15C29.5 14.725 29.275 14.5 29 14.5ZM28.5 16.5H25.5V15.5H28.5V16.5ZM28.5 18H25.5C25.225 18 25 18.225 25 18.5C25 18.775 25.225 19 25.5 19H28.5C28.775 19 29 18.775 29 18.5C29 18.225 28.775 18 28.5 18ZM29 26.5H25C24.725 26.5 24.5 26.725 24.5 27V29C24.5 29.275 24.725 29.5 25 29.5H29C29.275 29.5 29.5 29.275 29.5 29V27C29.5 26.725 29.275 26.5 29 26.5ZM28.5 28.5H25.5V27.5H28.5V28.5ZM25 24.5H26C26.275 24.5 26.5 24.275 26.5 24C26.5 23.725 26.275 23.5 26 23.5H25C24.725 23.5 24.5 23.725 24.5 24C24.5 24.275 24.725 24.5 25 24.5ZM25 26H28.5C28.775 26 29 25.775 29 25.5C29 25.225 28.775 25 28.5 25H25C24.725 25 24.5 25.225 24.5 25.5C24.5 25.775 24.725 26 25 26ZM21.5 6C21.775 6 22 5.775 22 5.5C22 5.225 21.775 5 21.5 5H18C17.725 5 17.5 5.225 17.5 5.5V15.5H13.5C13.225 15.5 13 15.725 13 16C13 16.275 13.225 16.5 13.5 16.5H17.5V27C17.5 27.275 17.725 27.5 18 27.5H21.5C21.775 27.5 22 27.275 22 27C22 26.725 21.775 26.5 21.5 26.5H18.5V16.5H21.5C21.775 16.5 22 16.275 22 16C22 15.725 21.775 15.5 21.5 15.5H18.5V6H21.5Z" fill="#536CB3"/>
</svg>
