<svg width="32" height="32" viewBox="0 0 32 32" fill="none" xmlns="http://www.w3.org/2000/svg">
<path d="M29.1387 14.7257C28.9029 14.7253 28.6748 14.6419 28.4946 14.4899C28.3144 14.338 28.1935 14.1273 28.1533 13.895C28.0147 13.0849 27.794 12.291 27.4947 11.5257C27.447 11.4031 27.4238 11.2723 27.4267 11.1408C27.4295 11.0093 27.4582 10.8797 27.5111 10.7593C27.564 10.6389 27.6402 10.5301 27.7352 10.4391C27.8301 10.3481 27.9421 10.2767 28.0647 10.229C28.3122 10.1326 28.5879 10.1385 28.831 10.2454C28.9515 10.2984 29.0603 10.3745 29.1512 10.4695C29.2422 10.5645 29.3136 10.6764 29.3613 10.799C29.7074 11.6904 29.9638 12.6141 30.1267 13.5563C30.1489 13.6858 30.1453 13.8184 30.1163 13.9465C30.0872 14.0746 30.0332 14.1958 29.9572 14.303C29.8813 14.4102 29.7851 14.5015 29.6739 14.5715C29.5627 14.6415 29.4388 14.6889 29.3093 14.711C29.2529 14.7205 29.1959 14.7254 29.1387 14.7257ZM27.22 9.79233C27.0524 9.79264 26.8873 9.7508 26.7401 9.67065C26.5928 9.5905 26.4681 9.47462 26.3773 9.33366C25.932 8.64167 25.4188 7.99581 24.8453 7.40566C24.7524 7.31176 24.679 7.20037 24.6294 7.07793C24.5797 6.9555 24.5549 6.82444 24.5562 6.69233C24.5575 6.56023 24.5849 6.42969 24.637 6.30826C24.689 6.18683 24.7646 6.07692 24.8594 5.98488C24.9542 5.89284 25.0663 5.82049 25.1892 5.77201C25.3121 5.72353 25.4433 5.69988 25.5754 5.70243C25.7075 5.70498 25.8378 5.73369 25.9587 5.78688C26.0797 5.84007 26.1889 5.91669 26.28 6.01233C26.946 6.69774 27.5423 7.44764 28.06 8.25099C28.1572 8.40198 28.212 8.57636 28.2185 8.75581C28.2251 8.93527 28.1832 9.11318 28.0973 9.27086C28.0113 9.42854 27.8845 9.56017 27.7302 9.65193C27.5758 9.74368 27.3996 9.79218 27.22 9.79233ZM23.524 5.99099C23.323 5.99152 23.1267 5.93057 22.9613 5.81633C22.2812 5.35324 21.5573 4.95802 20.8 4.63633C20.6705 4.59138 20.5516 4.5203 20.4508 4.42749C20.3499 4.33467 20.2692 4.22212 20.2137 4.0968C20.1581 3.97149 20.1289 3.8361 20.1279 3.69903C20.1269 3.56196 20.1541 3.42615 20.2077 3.30003C20.2614 3.1739 20.3404 3.06016 20.4399 2.96586C20.5394 2.87156 20.6572 2.79872 20.786 2.75186C20.9148 2.705 21.0519 2.68512 21.1887 2.69346C21.3255 2.7018 21.4592 2.73817 21.5813 2.80033C22.4605 3.17242 23.3003 3.6316 24.088 4.17099C24.2642 4.29157 24.3973 4.4654 24.4676 4.66703C24.5379 4.86866 24.5418 5.08751 24.4788 5.29154C24.4157 5.49557 24.289 5.67405 24.1172 5.80087C23.9454 5.9277 23.7375 5.99619 23.524 5.99633V5.99099ZM18.648 3.92966C18.5818 3.92927 18.5158 3.92303 18.4507 3.91099C17.6438 3.7492 16.8229 3.66747 16 3.66699C15.7348 3.66699 15.4804 3.56164 15.2929 3.3741C15.1054 3.18656 15 2.93221 15 2.66699C15 2.40178 15.1054 2.14742 15.2929 1.95989C15.4804 1.77235 15.7348 1.66699 16 1.66699C16.955 1.66685 17.9077 1.76154 18.844 1.94966C19.0867 1.99894 19.3025 2.13651 19.4496 2.33576C19.5966 2.535 19.6646 2.78173 19.6402 3.02817C19.6158 3.27462 19.5008 3.50324 19.3175 3.66978C19.1342 3.83632 18.8956 3.92892 18.648 3.92966Z" fill="#536CB3"/>
<path d="M16.0001 30.3337C12.1986 30.3337 8.55291 28.8235 5.86488 26.1355C3.17686 23.4475 1.66675 19.8018 1.66675 16.0003C1.66675 12.1989 3.17686 8.55315 5.86488 5.86513C8.55291 3.17711 12.1986 1.66699 16.0001 1.66699C16.2653 1.66699 16.5197 1.77235 16.7072 1.95989C16.8947 2.14742 17.0001 2.40178 17.0001 2.66699C17.0001 2.93221 16.8947 3.18656 16.7072 3.3741C16.5197 3.56164 16.2653 3.66699 16.0001 3.66699C13.6132 3.66608 11.2774 4.35779 9.27587 5.65821C7.27436 6.95863 5.6932 8.81189 4.72418 10.9932C3.75515 13.1745 3.43989 15.5901 3.81665 17.9471C4.1934 20.304 5.24597 22.501 6.8467 24.2715C8.44742 26.0421 10.5275 27.3101 12.8347 27.9218C15.1418 28.5335 17.5769 28.4626 19.8445 27.7176C22.1122 26.9727 24.1149 25.5858 25.6099 23.7251C27.1049 21.8644 28.0278 19.6099 28.2668 17.235C28.3002 16.9771 28.4327 16.7424 28.6363 16.5807C28.8399 16.4189 29.0984 16.3428 29.3572 16.3684C29.6159 16.3941 29.8545 16.5196 30.0223 16.7182C30.1901 16.9168 30.274 17.1729 30.2561 17.4323C29.9137 20.9721 28.2624 24.2565 25.6256 26.6428C22.9888 29.029 19.5563 30.3452 16.0001 30.3337Z" fill="#536CB3"/>
<path d="M16.0002 5.33398C13.8905 5.33398 11.8282 5.95957 10.0741 7.13164C8.31996 8.30371 6.95279 9.96962 6.14545 11.9187C5.33812 13.8678 5.12688 16.0125 5.53846 18.0816C5.95003 20.1507 6.96593 22.0514 8.4577 23.5431C9.94946 25.0349 11.8501 26.0508 13.9192 26.4624C15.9883 26.8739 18.133 26.6627 20.0821 25.8554C22.0312 25.048 23.6971 23.6809 24.8692 21.9267C26.0412 20.1726 26.6668 18.1103 26.6668 16.0007C26.6668 13.1717 25.543 10.4586 23.5426 8.45818C21.5423 6.45779 18.8291 5.33398 16.0002 5.33398ZM22.1335 20.6007C21.9744 20.8128 21.7375 20.9531 21.4749 20.9906C21.2124 21.0281 20.9457 20.9598 20.7335 20.8007L15.4002 16.8007C15.2751 16.7083 15.1737 16.5877 15.1042 16.4487C15.0346 16.3096 14.999 16.1561 15.0002 16.0007V9.33398C15.0002 9.06877 15.1055 8.81441 15.2931 8.62688C15.4806 8.43934 15.735 8.33398 16.0002 8.33398C16.2654 8.33398 16.5197 8.43934 16.7073 8.62688C16.8948 8.81441 17.0002 9.06877 17.0002 9.33398V15.494L21.9335 19.2007C22.0386 19.2794 22.1271 19.3782 22.194 19.4912C22.2609 19.6042 22.3049 19.7292 22.3235 19.8592C22.342 19.9892 22.3348 20.1216 22.3022 20.2488C22.2696 20.376 22.2123 20.4956 22.1335 20.6007Z" fill="#536CB3"/>
</svg>
