<svg width="29" height="30" viewBox="0 0 29 30" fill="none" xmlns="http://www.w3.org/2000/svg">
<path d="M14.5 30C6.4931 30 0 23.283 0 15C0 6.717 6.4931 0 14.5 0C22.5069 0 29 6.717 29 15C29 23.283 22.5069 30 14.5 30Z" fill="url(#paint0_linear_773_7522)"/>
<path d="M14.5 6.60574C17.1419 6.60574 17.4551 6.61474 18.4991 6.66574C19.4648 6.71074 19.9897 6.87874 20.3377 7.01974C20.7988 7.20574 21.1294 7.42774 21.4745 7.78474C21.8196 8.14174 22.0342 8.48374 22.214 8.96074C22.3503 9.32074 22.5098 9.86374 22.5562 10.8627C22.6026 11.9427 22.6142 12.2667 22.6142 14.9997C22.6142 17.7327 22.6055 18.0567 22.5562 19.1367C22.5127 20.1357 22.3503 20.6787 22.214 21.0387C22.0342 21.5157 21.8196 21.8577 21.4745 22.2147C21.1294 22.5717 20.7988 22.7937 20.3377 22.9797C19.9897 23.1207 19.4648 23.2857 18.4991 23.3337C17.4551 23.3817 17.1419 23.3937 14.5 23.3937C11.8581 23.3937 11.5449 23.3847 10.5009 23.3337C9.53517 23.2887 9.01027 23.1207 8.66227 22.9797C8.20117 22.7937 7.87057 22.5717 7.52547 22.2147C7.18037 21.8577 6.96577 21.5157 6.78597 21.0387C6.64967 20.6787 6.49017 20.1357 6.44377 19.1367C6.39737 18.0567 6.38577 17.7327 6.38577 14.9997C6.38577 12.2667 6.39447 11.9427 6.44377 10.8627C6.48727 9.86374 6.64967 9.32074 6.78597 8.96074C6.96577 8.48374 7.18037 8.14174 7.52547 7.78474C7.87057 7.42774 8.20117 7.20574 8.66227 7.01974C9.01027 6.87874 9.53517 6.71374 10.5009 6.66574C11.5449 6.61474 11.8581 6.60574 14.5 6.60574ZM14.5 4.76074C11.8117 4.76074 11.4753 4.77274 10.4197 4.82374C9.36697 4.87474 8.64777 5.04574 8.01557 5.30074C7.36597 5.55874 6.81207 5.90974 6.26397 6.47974C5.71297 7.04974 5.37657 7.61974 5.12137 8.29474C4.87777 8.94574 4.70956 9.68974 4.66026 10.7817C4.61096 11.8737 4.59937 12.2217 4.59937 15.0027C4.59937 17.7837 4.61096 18.1317 4.66026 19.2237C4.70956 20.3127 4.87487 21.0567 5.12137 21.7107C5.37367 22.3797 5.71297 22.9527 6.26397 23.5197C6.81497 24.0897 7.36597 24.4377 8.01847 24.7017C8.64777 24.9537 9.36697 25.1277 10.4226 25.1787C11.4782 25.2297 11.8146 25.2417 14.5029 25.2417C17.1912 25.2417 17.5276 25.2297 18.5832 25.1787C19.6359 25.1277 20.3551 24.9567 20.9873 24.7017C21.634 24.4407 22.1879 24.0897 22.736 23.5197C23.287 22.9497 23.6234 22.3797 23.8786 21.7047C24.1222 21.0537 24.2904 20.3097 24.3397 19.2177C24.389 18.1257 24.4006 17.7777 24.4006 14.9967C24.4006 12.2157 24.389 11.8677 24.3397 10.7757C24.2904 9.68674 24.1251 8.94274 23.8786 8.28874C23.6263 7.61974 23.287 7.04674 22.736 6.47974C22.185 5.90974 21.634 5.56174 20.9815 5.29774C20.3522 5.04574 19.633 4.87174 18.5774 4.82074C17.5247 4.77274 17.1883 4.76074 14.5 4.76074Z" fill="white"/>
<path d="M14.5 9.74121C11.6928 9.74121 9.41626 12.0962 9.41626 15.0002C9.41626 17.9042 11.6928 20.2592 14.5 20.2592C17.3072 20.2592 19.5837 17.9042 19.5837 15.0002C19.5837 12.0962 17.3072 9.74121 14.5 9.74121ZM14.5 18.4142C12.6788 18.4142 11.1998 16.8872 11.1998 15.0002C11.1998 13.1132 12.6788 11.5862 14.5 11.5862C16.3212 11.5862 17.8002 13.1132 17.8002 15.0002C17.8002 16.8872 16.3212 18.4142 14.5 18.4142Z" fill="white"/>
<path d="M19.7837 10.7637C20.4404 10.7637 20.9727 10.213 20.9727 9.53371C20.9727 8.8544 20.4404 8.30371 19.7837 8.30371C19.1271 8.30371 18.5947 8.8544 18.5947 9.53371C18.5947 10.213 19.1271 10.7637 19.7837 10.7637Z" fill="white"/>
<defs>
<linearGradient id="paint0_linear_773_7522" x1="4.24696" y1="25.6066" x2="25.448" y2="5.1123" gradientUnits="userSpaceOnUse">
<stop stop-color="#FFD521"/>
<stop offset="0.055" stop-color="#FFD020"/>
<stop offset="0.124" stop-color="#FEC01E"/>
<stop offset="0.2" stop-color="#FCA71B"/>
<stop offset="0.282" stop-color="#FA8316"/>
<stop offset="0.368" stop-color="#F85510"/>
<stop offset="0.456" stop-color="#F51E09"/>
<stop offset="0.5" stop-color="#F30005"/>
<stop offset="0.503" stop-color="#F20007"/>
<stop offset="0.597" stop-color="#E1003B"/>
<stop offset="0.688" stop-color="#D30067"/>
<stop offset="0.776" stop-color="#C70088"/>
<stop offset="0.859" stop-color="#BF00A0"/>
<stop offset="0.936" stop-color="#BB00AF"/>
<stop offset="1" stop-color="#B900B4"/>
</linearGradient>
</defs>
</svg>
