<svg width="88" height="89" viewBox="0 0 88 89" fill="none" xmlns="http://www.w3.org/2000/svg">
<path d="M66.2747 6.19824L81.5757 22.1482V82.8022H24.417V83.0002H81.771V22.349L66.2747 6.19824Z" fill="#909090"/>
<path d="M66.0849 6H24.2217V82.802H81.5757V22.1508L66.0849 6Z" fill="#F4F4F4"/>
<path d="M23.801 10.125H6.22852V28.8993H61.5035V10.125H23.801Z" fill="#7A7B7C"/>
<path d="M61.7977 28.58H6.58594V9.79199H61.7977V28.58Z" fill="#DD2025"/>
<path d="M24.8931 12.9683H21.2988V26.1683H24.1258V21.7161L24.7501 21.7518C25.3569 21.7435 25.9581 21.6348 26.5293 21.4301C27.0315 21.2596 27.4931 20.9871 27.8851 20.6298C28.287 20.2928 28.6028 19.8648 28.8063 19.3813C29.0848 18.5803 29.1833 17.7278 29.0951 16.8843C29.0794 16.2817 28.9737 15.6848 28.7816 15.1133C28.6084 14.7003 28.3509 14.328 28.0256 14.0202C27.7003 13.7124 27.3143 13.4759 26.8923 13.3258C26.5285 13.1911 26.1515 13.0952 25.7676 13.0398C25.4775 12.9926 25.1842 12.9687 24.8903 12.9683M24.3706 19.2768H24.1258V15.2068H24.6566C24.8908 15.1899 25.1259 15.2259 25.3443 15.3121C25.5628 15.3982 25.7592 15.5324 25.9188 15.7046C26.2497 16.1474 26.4265 16.6863 26.4221 17.2391C26.4221 17.9156 26.4221 18.5288 25.8116 18.9606C25.3719 19.2028 24.8712 19.3145 24.3706 19.2768ZM34.4658 12.9326C34.1606 12.9326 33.8636 12.9546 33.6546 12.9628L33.0001 12.9793H30.8551V26.1793H33.3796C34.3442 26.2041 35.3045 26.0407 36.2066 25.6981C36.9329 25.4113 37.5758 24.947 38.0766 24.3478C38.5673 23.746 38.9177 23.0424 39.1023 22.2881C39.3192 21.4354 39.4246 20.5582 39.4158 19.6783C39.4697 18.6393 39.3892 17.5976 39.1766 16.5791C38.973 15.8302 38.5962 15.1397 38.0766 14.5633C37.669 14.0972 37.1677 13.7224 36.6053 13.4633C36.1236 13.24 35.6167 13.0757 35.0956 12.9738C34.8884 12.9399 34.6785 12.9242 34.4686 12.9271M33.9681 23.7538H33.6931V15.3278H33.7288C34.2958 15.2623 34.8695 15.3646 35.3788 15.6221C35.7519 15.92 36.0559 16.2953 36.2698 16.7221C36.5007 17.1713 36.6338 17.6643 36.6603 18.1686C36.6851 18.7736 36.6603 19.2686 36.6603 19.6783C36.6705 20.1503 36.6401 20.6223 36.5696 21.0891C36.4831 21.5678 36.3265 22.0311 36.1048 22.4641C35.8544 22.8679 35.5125 23.2071 35.1066 23.4541C34.7675 23.6741 34.3656 23.7765 33.9626 23.7456M47.9326 12.9793H41.2501V26.1793H44.0771V20.9433H47.6521V18.4903H44.0771V15.4323H47.9271V12.9793" fill="#464648"/>
<path d="M59.8979 56.2012C59.8979 56.2012 68.6649 54.6117 68.6649 57.6064C68.6649 60.6012 63.2336 59.3829 59.8979 56.2012ZM53.4161 56.4294C52.023 56.7364 50.6655 57.187 49.3654 57.7742L50.4654 55.2992C51.5654 52.8242 52.7066 49.4499 52.7066 49.4499C54.016 51.6612 55.5434 53.7359 57.2661 55.6429C55.9692 55.8361 54.684 56.1005 53.4161 56.4349V56.4294ZM49.9456 38.5544C49.9456 35.9447 50.7899 35.2324 51.4471 35.2324C52.1044 35.2324 52.8441 35.5487 52.8689 37.8147C52.6544 40.0931 52.1773 42.3392 51.4471 44.5082C50.4435 42.6884 49.9254 40.6408 49.9429 38.5627L49.9456 38.5544ZM37.1609 67.4734C34.4714 65.8647 42.8011 60.9119 44.3109 60.7524C44.3026 60.7552 39.9769 69.1564 37.1609 67.4734ZM71.2251 57.9612C71.1976 57.6862 70.9501 54.6419 65.5326 54.7712C63.2744 54.7316 61.0172 54.8908 58.7869 55.2469C56.6251 53.0709 54.7642 50.6154 53.2539 47.9457C54.2048 45.1937 54.7811 42.3263 54.9671 39.4207C54.8874 36.1207 54.0981 34.2287 51.5681 34.2562C49.0381 34.2837 48.6696 36.4974 49.0024 39.7919C49.3281 42.0058 49.9429 44.1675 50.8311 46.2214C50.8311 46.2214 49.6624 49.8597 48.1169 53.4787C46.5714 57.0977 45.5154 58.9952 45.5154 58.9952C42.8275 59.8691 40.2973 61.169 38.0216 62.8452C35.7556 64.9544 34.8344 66.5742 36.0279 68.1939C37.0564 69.5909 40.6561 69.9072 43.8736 65.6914C45.5802 63.5118 47.1419 61.2226 48.5486 58.8384C48.5486 58.8384 53.4546 57.4937 54.9809 57.1252C56.5071 56.7567 58.3524 56.4652 58.3524 56.4652C58.3524 56.4652 62.8321 60.9724 67.1524 60.8129C71.4726 60.6534 71.2636 58.2307 71.2361 57.9667" fill="#DD2025"/>
<path d="M65.873 6.21191V22.3627H81.3638L65.873 6.21191Z" fill="#909090"/>
<path d="M66.085 6V22.1508H81.5757L66.085 6Z" fill="#F4F4F4"/>
<path d="M24.6812 12.7564H21.0869V25.9564H23.9249V21.5069L24.5519 21.5427C25.1587 21.5343 25.7599 21.4256 26.3312 21.2209C26.8334 21.0504 27.2949 20.778 27.6869 20.4207C28.0859 20.0827 28.3988 19.6548 28.5999 19.1722C28.8783 18.3711 28.9769 17.5186 28.8887 16.6752C28.873 16.0725 28.7673 15.4756 28.5752 14.9042C28.402 14.4912 28.1445 14.1188 27.8192 13.811C27.4939 13.5032 27.1079 13.2667 26.6859 13.1167C26.3205 12.9806 25.9416 12.8838 25.5557 12.8279C25.2656 12.7807 24.9723 12.7568 24.6784 12.7564M24.1587 19.0649H23.9139V14.9949H24.4474C24.6817 14.978 24.9167 15.014 25.1352 15.1001C25.3537 15.1863 25.55 15.3204 25.7097 15.4927C26.0405 15.9355 26.2173 16.4744 26.2129 17.0272C26.2129 17.7037 26.2129 18.3169 25.6024 18.7487C25.1627 18.9909 24.662 19.0998 24.1614 19.0622M34.2539 12.7207C33.9487 12.7207 33.6517 12.7427 33.4427 12.7509L32.7964 12.7674H30.6514V25.9674H33.1759C34.1406 25.9922 35.1008 25.8288 36.0029 25.4862C36.7292 25.1993 37.3721 24.7351 37.8729 24.1359C38.3636 23.5341 38.7141 22.8305 38.8987 22.0762C39.1156 21.2235 39.2209 20.3462 39.2122 19.4664C39.266 18.4274 39.1856 17.3857 38.9729 16.3672C38.7693 15.6183 38.3925 14.9278 37.8729 14.3514C37.4654 13.8853 36.964 13.5105 36.4017 13.2514C35.9199 13.0281 35.413 12.8638 34.8919 12.7619C34.6847 12.728 34.4749 12.7123 34.2649 12.7152M33.7644 23.5419H33.4894V15.1159H33.5252C34.0921 15.0504 34.6658 15.1527 35.1752 15.4102C35.5482 15.7081 35.8522 16.0834 36.0662 16.5102C36.297 16.9593 36.4301 17.4523 36.4567 17.9567C36.4814 18.5617 36.4567 19.0567 36.4567 19.4664C36.4668 19.9384 36.4365 20.4104 36.3659 20.8772C36.2794 21.3559 36.1228 21.8192 35.9012 22.2522C35.6508 22.656 35.3088 22.9952 34.9029 23.2422C34.5639 23.4622 34.1619 23.5646 33.7589 23.5337M47.7207 12.7674H41.0382V25.9674H43.8652V20.7314H47.4402V18.2784H43.8652V15.2204H47.7152V12.7674" fill="white"/>
</svg>
