<svg width="102" height="69" viewBox="0 0 102 69" fill="none" xmlns="http://www.w3.org/2000/svg">
<path d="M79.3333 26V6.16667C79.3333 3.05 76.7833 0.5 73.6667 0.5H5.66667C2.55 0.5 0 3.05 0 6.16667V62.8333C0 65.95 2.55 68.5 5.66667 68.5H73.6667C76.7833 68.5 79.3333 65.95 79.3333 62.8333V43L92.31 55.9767C95.88 59.5467 102 56.9967 102 51.9533V16.99C102 11.9467 95.88 9.39667 92.31 12.9667L79.3333 26ZM56.6667 40.1667H45.3333V51.5C45.3333 54.6167 42.7833 57.1667 39.6667 57.1667C36.55 57.1667 34 54.6167 34 51.5V40.1667H22.6667C19.55 40.1667 17 37.6167 17 34.5C17 31.3833 19.55 28.8333 22.6667 28.8333H34V17.5C34 14.3833 36.55 11.8333 39.6667 11.8333C42.7833 11.8333 45.3333 14.3833 45.3333 17.5V28.8333H56.6667C59.7833 28.8333 62.3333 31.3833 62.3333 34.5C62.3333 37.6167 59.7833 40.1667 56.6667 40.1667Z" fill="#8CBCD6"/>
</svg>
