<svg width="92" height="86" viewBox="0 0 92 86" fill="none" xmlns="http://www.w3.org/2000/svg">
<path d="M4.04931 12.0868H90.6574V72.5708H4.04931V12.0868Z" fill="#ECF4FF"/>
<path d="M46 12.0868H90.6574V72.5708H46V12.0868Z" fill="#D5E7FD"/>
<path d="M64.9457 72.5708V83.3224C64.9457 84.8022 62.1286 84.6469 60.3892 84.6469L30.4236 84.6166C28.6841 84.6166 27.0545 84.8022 27.0545 83.3224V72.5708C27.0545 71.091 28.4625 69.8932 30.2019 69.8932H61.7982C63.5377 69.8932 64.9457 71.091 64.9457 72.5708Z" fill="#3F558F"/>
<path d="M64.9456 72.5708V83.3224C64.9456 84.8022 63.4857 84.9507 61.7463 84.9507L46 85.2546V69.8932H61.7982C63.5376 69.8932 64.9456 71.091 64.9456 72.5708Z" fill="#1C3470"/>
<path d="M75.7614 83.3224C75.7614 84.8022 74.5536 86 73.0655 86H18.9345C17.4464 86 16.2386 84.8022 16.2386 83.3224C16.2386 81.8444 17.4464 80.6448 18.9345 80.6448H46L66.8601 82.4897C68.3483 82.4897 75.7614 81.8444 75.7614 83.3224Z" fill="#5A729E"/>
<path d="M75.7614 83.3224C75.7614 84.8022 74.5536 86 73.0655 86H46V80.6448H73.0655C74.5536 80.6448 75.7614 81.8444 75.7614 83.3224Z" fill="#3F558F"/>
<path d="M92 12.0868V72.5708C92 74.0489 90.7922 75.2484 89.3041 75.2484H2.69594C1.20778 75.2484 0 74.0489 0 72.5708V12.0868C0 10.607 1.20778 9.40918 2.69594 9.40918H18.9345C20.4227 9.40918 21.6305 10.607 21.6305 12.0868C21.6305 13.5649 20.4227 14.7644 18.9345 14.7644H5.39189V69.8932H86.6081V14.7644H74.4188C72.9307 14.7644 71.7229 13.5649 71.7229 12.0868C71.7229 10.607 72.9307 9.40918 74.4188 9.40918H89.3041C90.7922 9.40918 92 10.607 92 12.0868Z" fill="#5A729E"/>
<path d="M92 12.0868V72.5708C92 74.0489 90.7922 75.2484 89.3041 75.2484H46V69.8932H86.6081V14.7644H74.4188C72.9307 14.7644 71.7229 13.5649 71.7229 12.0868C71.7229 10.607 72.9307 9.40918 74.4188 9.40918H89.3041C90.7922 9.40918 92 10.607 92 12.0868Z" fill="#3F558F"/>
<path d="M66.2879 15.6712V28.215C66.2879 29.3236 65.6013 30.3161 64.5589 30.7141L46 37.6135C45.2834 37.6135 45.5564 37.6185 27.4393 30.7141C26.9309 30.5197 26.4937 30.1769 26.1853 29.7307C25.877 29.2846 25.712 28.7561 25.7121 28.215V15.3803C25.7121 13.9022 26.9199 12.7026 28.4081 12.7026C29.8962 12.7026 31.104 13.9022 31.104 15.3803C31.104 15.4186 29.7729 15.3924 60.8978 15.6498C60.9086 14.1807 62.111 12.9936 63.5919 12.9936C65.0801 12.9936 66.2879 14.1932 66.2879 15.6712Z" fill="#5A729E"/>
<path d="M66.2879 15.6713V28.2151C66.2879 29.3236 65.6013 30.3161 64.5589 30.7142C46.5086 37.6185 46.7105 37.6135 46 37.6135V15.5267L60.8978 15.6499C60.9086 14.1807 62.111 12.9937 63.5919 12.9937C65.0801 12.9937 66.2879 14.1932 66.2879 15.6713Z" fill="#3F558F"/>
<path d="M77.1148 12.0868V30.9034C77.1148 32.3832 75.907 33.581 74.4188 33.581C72.9307 33.581 71.7229 32.3832 71.7229 30.9034L72.8563 13.8208L46 24.1736C45.342 24.1736 45.6138 24.1761 18.0449 14.6145C15.6428 13.7784 15.6426 10.3954 18.0449 9.55913C45.5794 -0.00821096 45.3417 2.41085e-08 46 2.41085e-08L72.3361 10.6304C73.4379 10.9945 77.1148 10.9336 77.1148 12.0868Z" fill="#3F558F"/>
<path d="M77.1148 12.0868V30.9034C77.1148 32.3832 75.907 33.581 74.4188 33.581C72.9307 33.581 71.7229 32.3832 71.7229 30.9034V15.8016C46.5545 24.1818 46.6319 24.1736 46 24.1736V0C46.6267 0 46.3336 6.80956e-07 75.2708 9.54663C75.8078 9.72403 76.275 10.0649 76.6059 10.5208C76.9369 10.9768 77.115 11.5247 77.1148 12.0868Z" fill="#1C3470"/>
<path d="M24.3478 45.6994H13.5218C12.0329 45.6994 10.8258 46.8983 10.8258 48.377V59.1295C10.8258 60.6082 12.0329 61.8071 13.5218 61.8071H24.3478C25.8367 61.8071 27.0437 60.6082 27.0437 59.1295V48.377C27.0437 46.8983 25.8367 45.6994 24.3478 45.6994Z" fill="#FC6284"/>
<path d="M81.1749 48.3776C81.1749 49.8556 79.9671 51.0552 78.4789 51.0552H35.1731C33.6849 51.0552 32.4771 49.8556 32.4771 48.3776C32.4771 46.8977 33.6849 45.7 35.1731 45.7H78.4789C79.9671 45.7 81.1749 46.8977 81.1749 48.3776ZM81.1749 59.1291C81.1749 60.609 79.9671 61.8068 78.4789 61.8068H35.1731C33.6849 61.8068 32.4771 60.609 32.4771 59.1291C32.4771 57.6511 33.6849 56.4515 35.1731 56.4515H78.4789C79.9671 56.4515 81.1749 57.6511 81.1749 59.1291Z" fill="#01C1F0"/>
<path d="M81.1749 59.1291C81.1749 60.609 79.9671 61.8068 78.4789 61.8068H46V56.4515H78.4789C79.9671 56.4515 81.1749 57.6511 81.1749 59.1291ZM78.4789 51.0552H46V45.7H78.4789C79.9671 45.7 81.1749 46.8977 81.1749 48.3776C81.1749 49.8556 79.9671 51.0552 78.4789 51.0552Z" fill="#00ADE9"/>
</svg>
