<svg width="1440" height="486" viewBox="0 0 1440 486" fill="none" xmlns="http://www.w3.org/2000/svg">
<g clip-path="url(#clip0_827_3698)">
<rect width="1440" height="486" fill="#F8F9FA"/>
<path d="M113 18C113 72.1239 69.1239 116 15 116C-39.1239 116 -83 72.1239 -83 18C-83 -36.1239 -39.1239 -80 15 -80C69.1239 -80 113 -36.1239 113 18ZM-57.2969 18C-57.2969 57.9285 -24.9285 90.2969 15 90.2969C54.9285 90.2969 87.2969 57.9285 87.2969 18C87.2969 -21.9285 54.9285 -54.2969 15 -54.2969C-24.9285 -54.2969 -57.2969 -21.9285 -57.2969 18Z" fill="#F15C54"/>
<path d="M294 521C294 575.124 250.124 619 196 619C141.876 619 98 575.124 98 521C98 466.876 141.876 423 196 423C250.124 423 294 466.876 294 521ZM132.925 521C132.925 555.836 161.164 584.075 196 584.075C230.836 584.075 259.075 555.836 259.075 521C259.075 486.164 230.836 457.925 196 457.925C161.164 457.925 132.925 486.164 132.925 521Z" fill="#F15C54"/>
<rect x="886" y="442.799" width="28" height="28" transform="rotate(-45 886 442.799)" fill="#536CB3" fill-opacity="0.4"/>
<rect x="906" y="95.799" width="28" height="28" transform="rotate(-45 906 95.799)" fill="#F15C54" fill-opacity="0.47"/>
<rect x="199" y="102.799" width="28" height="28" transform="rotate(-45 199 102.799)" fill="#D9D9D9"/>
<path d="M1084.61 400.393C1179.82 400.393 1257 323.21 1257 228C1257 132.79 1179.82 55.6066 1084.61 55.6066C989.396 55.6066 912.213 132.79 912.213 228C912.213 323.21 989.396 400.393 1084.61 400.393Z" fill="#514BDB"/>
<path fill-rule="evenodd" clip-rule="evenodd" d="M1198.45 118.215L1129.01 97.9931L1151.72 68.8795L1158.68 90.5145L1179.5 73.7498L1183.08 97.6713L1201.82 85.3768L1198.45 118.215Z" fill="#FEC900"/>
<path d="M1221.76 317.132C1227.75 332.213 1220.35 349.36 1205.27 355.352C1190.19 361.345 1173.05 353.952 1167.05 338.869C1161.06 323.791 1168.45 306.643 1183.53 300.651C1198.61 294.657 1215.76 302.049 1221.76 317.132ZM1174.73 335.822C1179.04 346.67 1191.37 351.989 1202.22 347.677C1213.07 343.367 1218.39 331.031 1214.08 320.183C1209.77 309.332 1197.43 304.014 1186.58 308.325C1175.73 312.638 1170.42 324.972 1174.73 335.822Z" fill="#FE5D0D"/>
<path fill-rule="evenodd" clip-rule="evenodd" d="M1012.52 337.943C1011.62 340.467 1011.13 343.008 1009.58 345.511C1005.37 343.605 1002.91 343.296 999.93 339.677C997.819 337.11 996.698 333.999 995.707 330.909C994.458 327.01 994.438 323.138 990.78 320.082C987.328 317.201 982.418 317.638 978.774 314.319C974.107 310.072 973.142 304.365 972.102 299.671C971.591 297.354 971.637 295.322 968.901 292.976C966.999 291.343 964.192 290.881 961.658 289.738C955.282 286.852 950.931 282.198 950.76 275.089C953.179 274.637 955.57 274.96 957.976 274.725C960.206 284.294 970.712 281.52 976.86 289.507C981.367 295.359 979.328 303.812 984.322 308.259C986.188 309.924 989.366 310.351 991.26 311.173C993.601 312.188 996.065 313.395 997.993 315.49C1003 320.929 1001.75 330.229 1006.83 335.071C1008.52 336.683 1010.29 336.766 1012.52 337.943Z" fill="#79BB35"/>
<path d="M934.04 158.705C937.279 158.705 939.905 156.079 939.905 152.84C939.905 149.601 937.279 146.975 934.04 146.975C930.801 146.975 928.175 149.601 928.175 152.84C928.175 156.079 930.801 158.705 934.04 158.705Z" fill="#FE5D0D"/>
<path d="M947.203 337.392C950.442 337.392 953.068 334.766 953.068 331.527C953.068 328.288 950.442 325.662 947.203 325.662C943.964 325.662 941.338 328.288 941.338 331.527C941.338 334.766 943.964 337.392 947.203 337.392Z" fill="#B8CBFE"/>
<path d="M1239.83 167.432C1244.65 167.432 1248.56 163.525 1248.56 158.705C1248.56 153.886 1244.65 149.979 1239.83 149.979C1235.01 149.979 1231.1 153.886 1231.1 158.705C1231.1 163.525 1235.01 167.432 1239.83 167.432Z" fill="#B8CBFE"/>
<path d="M1135.89 370.977C1136.66 366.219 1133.43 361.738 1128.67 360.969C1123.91 360.2 1119.43 363.433 1118.66 368.191C1117.89 372.949 1121.13 377.429 1125.89 378.198C1130.64 378.968 1135.12 375.734 1135.89 370.977Z" fill="#FEC900"/>
<path fill-rule="evenodd" clip-rule="evenodd" d="M1065.93 88.3646L1081.51 75.7635L1094.11 91.3402L1078.53 103.941L1065.93 88.3646Z" fill="#79BB35"/>
<path fill-rule="evenodd" clip-rule="evenodd" d="M1031.43 383.469L1047.01 370.868L1059.61 386.444L1044.03 399.045L1031.43 383.469Z" fill="#FE5D0D"/>
<path fill-rule="evenodd" clip-rule="evenodd" d="M1216.37 261.501L1219.08 272.849L1227.56 264.834L1236.03 256.818L1224.85 253.484L1213.67 250.15L1216.37 261.501Z" fill="white"/>
<path fill-rule="evenodd" clip-rule="evenodd" d="M909.604 233.444L914.211 244.162L921.195 234.813L928.175 225.464L916.587 224.094L905 222.724L909.604 233.444Z" fill="#FEC900"/>
<path d="M990.295 67.3265L997.104 63.0399L1031.02 116.918L1024.21 121.199L990.295 67.3265Z" fill="#B8CBFE"/>
<path d="M951.932 101.017L954.942 93.5573L996.386 110.281L993.376 117.741L951.932 101.017Z" fill="#B8CBFE"/>
<path d="M1088.26 351.756L946.625 200.072L1039.93 199.511L1074.39 267.656L1088.26 351.756ZM1088.26 351.756L1224.87 198.401L1131.56 198.961L1101.32 270.105L1088.26 351.756Z" fill="#8E8EFF"/>
<path d="M946.625 200.072L991.474 142.042L1021.74 143.217L1050.46 152.762L1053.29 181.45L1042.58 207.958L946.625 200.072ZM1129.01 207.958L1120.91 182.619L1123.58 152.762L1147.46 143.551L1179.78 140.907L1224.87 198.401L1129.01 207.958Z" fill="#B8CBFE"/>
<path d="M1042.58 207.958L1088.26 351.755L1129.01 207.958L1085.62 199.236L1042.58 207.958Z" fill="white"/>
<path d="M1042.58 207.958L1050.46 152.762L1085.8 147.057L1123.58 152.762L1129.01 207.958H1042.58Z" fill="#8E8EFF"/>
<path d="M991.474 142.042L1050.46 152.762H1123.58L1179.78 140.908L1122.25 127.857H1052.63L991.474 142.042Z" fill="#1D1D1B"/>
<path d="M1188.45 171.476C1187.93 165.974 1186.12 161.61 1182.63 157.999C1179.36 154.629 1175.74 153.926 1173 155.919C1170.2 157.946 1169.97 161.273 1172.59 165.411C1174.77 168.85 1177.48 171.945 1178.43 176.07C1179 178.545 1180.79 180.384 1183.6 180.288C1186.84 180.178 1187.95 177.83 1188.34 175.096C1188.54 173.713 1188.43 172.277 1188.45 171.476ZM1170.5 147.95C1169.78 144.57 1164.65 141.489 1160.99 142.126C1158.21 142.61 1156.91 144.367 1157.44 147.14C1158.1 150.535 1163.13 153.483 1166.8 152.718C1169.49 152.158 1170.82 150.524 1170.5 147.95ZM977.721 221.413C972.228 218.045 968.594 213.902 966.614 208.387C964.767 203.24 965.896 199.087 969.394 197.241C972.953 195.361 976.556 196.828 979.536 201.701C982.012 205.751 983.855 210.181 987.685 213.295C989.981 215.163 990.984 217.985 989.434 220.881C987.655 224.208 984.626 224.162 981.563 223.168C980.012 222.664 978.568 221.808 977.721 221.413ZM976.502 187.209C975.652 189.937 972.964 191.527 970.499 190.758C968.034 189.99 966.726 187.154 967.576 184.426C968.427 181.697 971.645 177.124 975.112 178.205C978.778 179.349 977.353 184.48 976.502 187.209Z" fill="white"/>
<path d="M1588 230C1588 284.124 1544.12 328 1490 328C1435.88 328 1392 284.124 1392 230C1392 175.876 1435.88 132 1490 132C1544.12 132 1588 175.876 1588 230ZM1415.44 230C1415.44 271.178 1448.82 304.56 1490 304.56C1531.18 304.56 1564.56 271.178 1564.56 230C1564.56 188.822 1531.18 155.44 1490 155.44C1448.82 155.44 1415.44 188.822 1415.44 230Z" fill="#536CB3"/>
</g>
<defs>
<clipPath id="clip0_827_3698">
<rect width="1440" height="486" fill="white"/>
</clipPath>
</defs>
</svg>
