<svg width="70" height="70" viewBox="0 0 70 70" fill="none" xmlns="http://www.w3.org/2000/svg">
<circle cx="35" cy="35" r="35" fill="#F8F9FA"/>
<path d="M34.9997 32C32.2427 32 29.9997 34.243 29.9997 37C29.9997 39.757 32.2427 42 34.9997 42C37.7567 42 39.9997 39.757 39.9997 37C39.9997 34.243 37.7567 32 34.9997 32ZM37.9997 38C37.7345 38 37.4802 37.8946 37.2926 37.7071C37.1051 37.5196 36.9997 37.2652 36.9997 37C36.9997 35.897 36.1027 35 34.9997 35C34.7345 35 34.4802 34.8946 34.2926 34.7071C34.1051 34.5196 33.9997 34.2652 33.9997 34C33.9997 33.7348 34.1051 33.4804 34.2926 33.2929C34.4802 33.1054 34.7345 33 34.9997 33C37.2057 33 38.9997 34.794 38.9997 37C38.9997 37.2652 38.8944 37.5196 38.7068 37.7071C38.5193 37.8946 38.2649 38 37.9997 38ZM40.5297 26L39.9697 23.757C39.9154 23.5408 39.7905 23.349 39.6148 23.2119C39.4391 23.0747 39.2226 23.0002 38.9997 23H30.9997C30.5407 23 30.1417 23.313 30.0297 23.757L29.4697 26H40.5297Z" fill="#536CB3"/>
<path d="M47 27H23C21.346 27 20 28.346 20 30V44C20 45.654 21.346 47 23 47H47C48.654 47 50 45.654 50 44V30C50 28.346 48.654 27 47 27ZM25 33C24.7348 33 24.4804 32.8946 24.2929 32.7071C24.1054 32.5196 24 32.2652 24 32C24 31.7348 24.1054 31.4804 24.2929 31.2929C24.4804 31.1054 24.7348 31 25 31C25.2652 31 25.5196 31.1054 25.7071 31.2929C25.8946 31.4804 26 31.7348 26 32C26 32.2652 25.8946 32.5196 25.7071 32.7071C25.5196 32.8946 25.2652 33 25 33ZM35 44C31.141 44 28 40.86 28 37C28 33.14 31.141 30 35 30C38.859 30 42 33.14 42 37C42 40.86 38.859 44 35 44Z" fill="#536CB3"/>
</svg>
